<?xml version="1.0" encoding="utf-8"?>
<!-- Generator: Adobe Illustrator 16.2.0, SVG Export Plug-In . SVG Version: 6.00 Build 0)  -->
<!DOCTYPE svg PUBLIC "-//W3C//DTD SVG 1.1//EN" "http://www.w3.org/Graphics/SVG/1.1/DTD/svg11.dtd">
<svg version="1.1" id="OBJECTS" xmlns="http://www.w3.org/2000/svg" xmlns:xlink="http://www.w3.org/1999/xlink" x="0px" y="0px"
	 width="25.938px" height="25.938px" viewBox="0 0 25.938 25.938" enable-background="new 0 0 25.938 25.938" xml:space="preserve">
<g>
	<g>
		<path d="M16.177,17.123V4.319h-0.042l0.05-0.018c0,0-3.263-0.248-3.484-1.667c-0.011-0.138,0.001-0.287,0.029-0.443
			c0.04-0.172,0.1-0.348,0.18-0.518c0.083-0.168,0.175-0.333,0.28-0.483c0.103-0.15,0.212-0.29,0.319-0.414
			c0.215-0.25,0.419-0.447,0.567-0.577C14.225,0.068,14.316,0,14.316,0s-0.112,0.023-0.306,0.081s-0.467,0.151-0.791,0.298
			c-0.162,0.074-0.336,0.162-0.517,0.271c-0.182,0.105-0.366,0.237-0.555,0.389c-0.187,0.153-0.369,0.337-0.542,0.553
			c-0.165,0.221-0.319,0.473-0.431,0.762c-0.03,0.071-0.049,0.146-0.073,0.222c-0.023,0.075-0.046,0.151-0.058,0.229
			c-0.015,0.078-0.029,0.156-0.043,0.234c-0.008,0.078-0.013,0.158-0.019,0.237c-0.016,0.161,0.001,0.313,0.008,0.472
			c0.014,0.152,0.041,0.299,0.066,0.448c0.034,0.14,0.069,0.28,0.109,0.415c0.045,0.127,0.091,0.253,0.137,0.377
			c0.101,0.229,0.202,0.455,0.309,0.636c0.053,0.094,0.103,0.186,0.153,0.269c0.051,0.08,0.1,0.156,0.146,0.228
			s0.091,0.139,0.131,0.2c0.043,0.058,0.082,0.11,0.116,0.158c0.089,0.12,0.154,0.207,0.191,0.256v10.389h-0.849
			c0.392-1.199-0.651-2.409-1.049-2.855c-0.258-0.348-1.524-1.777-4.882-1.777H2.368l-0.417-0.41l-2.014,1.98h5.634
			c2.655,0,3.534,1.023,3.626,1.141l0.016,0.027l0.05,0.057c0.716,0.803,0.804,1.244,0.75,1.365
			c-0.113,0.256-0.906,0.459-1.539,0.473H4.52l-0.915-0.898L1.89,17.909H1.85l5.259,1.833l-1.041-1.046h2.352
			c0.027,0,0.062-0.001,0.102-0.001h1.391c0.939,0,1.751,0.151,2.439,0.377v2.238c0,0.004,0.063,0.006,0.096,0.01
			c0.095,0.008,0.188,0.018,0.282,0.025c0.094,0.009,0.186,0.018,0.277,0.026l0.069,0.009l0.009,0.001c-0.001,0-0.001,0-0.001,0
			c-0.008,0,0.095,0.003,0.088,0.003h-0.015l-0.001,0.001c0.001,0.001,0.005,0.001,0.009,0.003l0.023,0.007
			c0.033,0.008,0.07,0.015,0.107,0.022c0.073,0.016,0.149,0.029,0.225,0.041c0.075,0.015,0.149,0.029,0.224,0.043
			c0.073,0.014,0.146,0.024,0.218,0.035c0.072,0.014,0.143,0.026,0.212,0.037c0.137,0.02,0.27,0.039,0.396,0.059
			c0.125,0.014,0.244,0.031,0.354,0.04c0.109,0.007,0.214,0.02,0.306,0.02c0.001,0,0.002,0,0.002,0h0.096
			c0.058,0,0.112-0.001,0.162-0.007c0.079-0.007,0.15-0.021,0.214-0.042c0.081-0.024,0.149-0.063,0.206-0.106
			c0.007-0.004,0.014-0.01,0.021-0.015c0.01-0.008,0.02-0.016,0.028-0.024c0.016-0.014,0.03-0.025,0.043-0.039
			c0.001-0.001,0.002-0.001,0.002-0.002c0.032-0.033,0.059-0.064,0.074-0.085c0.017-0.021,0.026-0.032,0.026-0.032l0.154,0.004
			c0,0,0,0.014-0.001,0.039c-0.001,0.027-0.004,0.065-0.011,0.117c-0.015,0.1-0.051,0.252-0.157,0.413
			c-0.015,0.022-0.03,0.046-0.048,0.067v0.002c-0.105,0.138-0.262,0.271-0.453,0.379c-0.224,0.129-0.496,0.224-0.795,0.295
			c-0.27,0.063-0.563,0.105-0.872,0.132c-0.036,0.003-0.07,0.007-0.106,0.01c-0.154,0.012-0.313,0.018-0.476,0.018
			c-0.021,0-0.041,0-0.062-0.001c-0.046,0-0.093-0.002-0.14-0.002l-0.063-0.002h-0.069c-0.092,0-0.185,0.001-0.278,0.001
			c-0.374,0.001-0.761,0.003-1.154,0.005H11.52c-0.375,0-0.757-0.01-1.139-0.014c-0.191,0-0.383-0.002-0.574-0.004l-0.019-0.02
			H5.861l6.01,2.096l-0.521-0.524h1.001V26h3.826v-1.995c0.669-0.242,1.118-0.608,1.34-1.097c0.377-0.831,0.033-1.82-1.022-2.938
			c-0.05-0.062-0.156-0.188-0.317-0.352v-0.924h4.528V26h3.904v-7.305h1.328v-1.572H16.177z M15.002,20.307
			c-0.041-0.004-0.083-0.01-0.127-0.015c-0.043-0.005-0.087-0.011-0.132-0.016l-0.192-0.028l-0.174-0.025
			c-0.056-0.009-0.112-0.02-0.17-0.03l-0.053-0.009c-0.055-0.008-0.11-0.018-0.167-0.026l-0.093-0.019l-0.123-0.023
			c-0.012-0.002-0.023-0.004-0.036-0.006c-0.009-0.002-0.018-0.003-0.026-0.004v-1.033c0-0.375-0.151-0.723-0.404-0.975
			c0.25-0.248,0.404-0.593,0.404-0.975V6.734c0-0.295-0.095-0.582-0.271-0.818l-0.07-0.094l-0.117-0.158l-0.058-0.08l-0.035-0.048
			l-0.013-0.018l-0.098-0.149L12.926,5.18l-0.007-0.01C12.89,5.12,12.86,5.066,12.83,5.012l-0.034-0.06
			c-0.005-0.008-0.01-0.017-0.015-0.025c-0.039-0.065-0.083-0.155-0.129-0.255c0.385,0.245,0.877,0.466,1.504,0.645
			c0.227,0.064,0.45,0.117,0.661,0.16v11.646c0,0.293,0.091,0.563,0.246,0.786c-0.155,0.222-0.246,0.493-0.246,0.786v0.924
			C14.817,19.863,14.882,20.1,15.002,20.307z M14.817,24.633h-1.108v-0.282c0-0.06-0.004-0.118-0.011-0.176
			c0.072-0.003,0.143-0.009,0.212-0.013c0.031-0.003,0.063-0.006,0.094-0.008l0.026-0.003c0.002,0,0.004,0,0.006-0.001
			c0.275-0.023,0.537-0.059,0.781-0.104V24.633z M23.251,18.695v5.938h-1.187v-5.938c0-0.069-0.005-0.139-0.015-0.205h1.216
			C23.256,18.557,23.251,18.626,23.251,18.695z M24.609,6.666c0.036-0.049,0.083-0.111,0.14-0.188
			c0.035-0.048,0.073-0.101,0.116-0.158c0.04-0.062,0.084-0.129,0.131-0.2c0.046-0.071,0.095-0.147,0.146-0.228
			c0.05-0.083,0.1-0.175,0.152-0.269c0.106-0.181,0.207-0.406,0.308-0.636c0.046-0.124,0.092-0.25,0.137-0.377
			c0.04-0.135,0.075-0.275,0.109-0.415C25.874,4.047,25.9,3.9,25.915,3.748c0.007-0.159,0.022-0.311,0.007-0.472
			c-0.005-0.079-0.01-0.159-0.019-0.237c-0.014-0.078-0.028-0.156-0.042-0.234c-0.012-0.078-0.034-0.154-0.058-0.229
			C25.779,2.5,25.76,2.425,25.73,2.354c-0.11-0.289-0.265-0.541-0.43-0.762c-0.172-0.216-0.354-0.399-0.541-0.553
			c-0.188-0.152-0.371-0.284-0.553-0.389c-0.18-0.109-0.354-0.196-0.516-0.271c-0.323-0.147-0.597-0.241-0.789-0.298
			C22.709,0.023,22.598,0,22.598,0s0.092,0.068,0.24,0.199c0.147,0.13,0.351,0.327,0.565,0.577c0.106,0.125,0.216,0.264,0.318,0.414
			c0.104,0.15,0.197,0.315,0.279,0.483c0.08,0.17,0.14,0.346,0.18,0.518c0.028,0.156,0.04,0.306,0.029,0.443
			c-0.221,1.419-3.476,1.667-3.476,1.667l0.049,0.018h-0.078v11.862h3.904V6.666z M24.125,4.93c-0.005,0.008-0.01,0.015-0.014,0.022
			l-0.036,0.065c-0.03,0.053-0.059,0.105-0.088,0.154l-0.061,0.094l-0.067,0.105L23.8,5.462l-0.05,0.075l-0.035,0.048l-0.058,0.08
			l-0.034,0.046l-0.104,0.14c-0.175,0.235-0.269,0.522-0.269,0.815v8.146h-1.187V5.484c0.221-0.045,0.457-0.1,0.695-0.168
			c0.621-0.178,1.109-0.398,1.492-0.641C24.209,4.77,24.163,4.863,24.125,4.93z"/>
	</g>
</g>
</svg>
