<?xml version="1.0" encoding="utf-8"?>
<!-- Generator: Adobe Illustrator 16.2.0, SVG Export Plug-In . SVG Version: 6.00 Build 0)  -->
<!DOCTYPE svg PUBLIC "-//W3C//DTD SVG 1.1//EN" "http://www.w3.org/Graphics/SVG/1.1/DTD/svg11.dtd">
<svg version="1.1" id="OBJECTS" xmlns="http://www.w3.org/2000/svg" xmlns:xlink="http://www.w3.org/1999/xlink" x="0px" y="0px"
	 width="35.875px" height="35.875px" viewBox="0 0 35.875 35.875" enable-background="new 0 0 35.875 35.875" xml:space="preserve">
<g>
	<path d="M7.093,22.363l0.353-0.088l0.672-0.631H3.774l-0.707,0.402c0.319-0.025,0.638-0.043,0.948-0.053
		c0.008,0.098,0.008,0.193,0.008,0.291c0,0.404-0.017,0.797-0.026,1.201c-0.017,0.438-0.008,0.885-0.017,1.322v2.219
		c-0.009,0.201-0.009,0.299-0.207,0.58l-0.172,0.227H6.05l0.525-0.279c-0.008,0-0.025,0-0.043-0.01
		c-0.095-0.01-0.198-0.016-0.293-0.027c-0.112,0-0.215-0.016-0.327-0.025c-0.121,0-0.302-0.008-0.396-0.086
		c-0.112-0.098-0.104-0.316-0.112-0.457c-0.009-0.314-0.009-0.633-0.009-0.947c0-0.211,0.009-0.42,0.009-0.631
		c0-0.203-0.009-0.314,0-0.412c0.017-0.105,0.06-0.141,0.103-0.176C5.593,24.73,5.722,24.74,5.74,24.74h0.379
		c0.293,0,0.595-0.018,0.681,0c0,0.008,0.104,0.033,0.104,0.105c0.008,0.043-0.026,0.078-0.043,0.113l-0.069,0.088l0.302-0.088
		l0.568-0.57H5.412l0.052-2.402c0.129-0.01,0.267-0.01,0.396-0.01h0.741c0.25,0.01,0.482,0,0.568,0.035
		c0.043,0.02,0.061,0.045,0.061,0.08c0,0.043-0.035,0.096-0.035,0.096L7.093,22.363z M28.187,15.557v0.113
		c-0.008,0.299,0,0.264-0.215,0.641l-0.078,0.123h3.938l0.896-0.809l-0.534,0.133c-0.405,0.297-0.793,0.35-1.293,0.35
		c-0.404,0-0.879-0.025-0.982-0.043c-0.318-0.053-0.302-0.367-0.311-0.455c0-0.15-0.008-0.309-0.008-0.457
		c-0.01-0.246,0-0.49,0-0.736c0-0.168-0.026-0.771,0.034-0.93c0.017-0.053,0.069-0.121,0.198-0.133
		c0.164-0.025,0.354-0.016,0.715-0.016c0.139,0,0.242,0,0.293,0.016c0.018,0.012,0.078,0.029,0.078,0.09
		c0,0.051-0.025,0.088-0.053,0.131l-0.051,0.088l0.301-0.088l0.569-0.578h-2.068l0.061-2.394c0.336-0.01,0.681-0.018,1.025-0.018
		c0.173,0,0.413,0,0.448,0.018c0.043,0.007,0.095,0.042,0.095,0.097c0,0.07-0.061,0.156-0.061,0.156l-0.069,0.106l0.346-0.106
		l0.672-0.613h-4.162l-0.689,0.412l0.947-0.052c0.009,0.49-0.017,0.981-0.025,1.472C28.187,13.232,28.179,14.398,28.187,15.557z
		 M35.214,18.355c0.004-0.354-0.027-0.619-0.033-0.807c-0.012-0.184-0.018-0.283-0.018-0.283l-0.235-0.006
		c0,0-0.011,0.098-0.03,0.281c-0.025,0.182-0.039,0.461-0.1,0.793c-0.027,0.168-0.057,0.354-0.09,0.555
		c-0.041,0.201-0.085,0.418-0.133,0.65c-0.102,0.461-0.242,0.973-0.415,1.521c-0.087,0.273-0.194,0.555-0.297,0.846
		c-0.123,0.283-0.23,0.584-0.374,0.877c-0.268,0.598-0.596,1.199-0.959,1.803c-0.378,0.596-0.802,1.184-1.26,1.754
		c-0.467,0.564-0.976,1.104-1.516,1.604c-0.548,0.492-1.138,0.928-1.741,1.313c-0.61,0.379-1.226,0.707-1.813,1.031
		c-0.596,0.311-1.165,0.627-1.725,0.898c-0.277,0.141-0.557,0.258-0.822,0.387c-0.272,0.117-0.536,0.23-0.789,0.34
		c-0.512,0.207-0.992,0.393-1.426,0.549c-0.217,0.074-0.424,0.148-0.615,0.219c-0.022,0.006-0.04,0.014-0.062,0.02
		c0.131-0.18,0.253-0.369,0.373-0.557c0.063-0.104,0.122-0.213,0.183-0.32c0.063-0.105,0.117-0.213,0.17-0.328
		c0.111-0.219,0.205-0.453,0.289-0.689c0.043-0.117,0.08-0.242,0.112-0.363c0.034-0.123,0.065-0.244,0.085-0.373
		c0.021-0.127,0.045-0.25,0.052-0.381c0.003-0.133,0.012-0.26,0.004-0.387c-0.11,0.072-0.204,0.15-0.303,0.221
		c-0.093,0.074-0.198,0.143-0.289,0.211c-0.093,0.07-0.187,0.137-0.282,0.203C21.059,30,20.978,30.07,20.88,30.133
		c-0.096,0.063-0.183,0.131-0.272,0.195c-0.093,0.063-0.183,0.127-0.271,0.191c-0.181,0.129-0.354,0.26-0.533,0.387l-0.522,0.391
		l-0.515,0.395l-0.505,0.406l-0.484,0.393l-0.68,0.555l0.327,0.805c0.146,0.359,0.331,0.57,0.487,0.727
		c0.082,0.082,0.153,0.139,0.232,0.207c0.072,0.055,0.146,0.105,0.219,0.158l0.209,0.131l0.205,0.109
		c0.133,0.068,0.268,0.129,0.398,0.184c0.525,0.217,1.038,0.352,1.557,0.439c0.258,0.049,0.52,0.076,0.778,0.1
		c0.261,0.02,0.522,0.029,0.784,0.027c0.526-0.012,1.057-0.053,1.6-0.201c-0.419-0.381-0.846-0.682-1.271-0.967
		c-0.213-0.141-0.425-0.275-0.636-0.406c-0.214-0.125-0.422-0.256-0.632-0.373c-0.101-0.059-0.197-0.115-0.297-0.172
		c0.184,0.014,0.372,0.029,0.58,0.039c0.5,0.018,1.068,0.002,1.686-0.072c0.311-0.031,0.627-0.098,0.959-0.154
		c0.324-0.086,0.67-0.148,1.009-0.266c0.69-0.199,1.391-0.502,2.082-0.877c0.682-0.395,1.339-0.879,1.958-1.424
		c0.614-0.551,1.201-1.145,1.757-1.76c0.549-0.623,1.053-1.281,1.505-1.957c0.449-0.68,0.824-1.387,1.154-2.082
		c0.311-0.707,0.59-1.395,0.783-2.072c0.109-0.332,0.182-0.668,0.268-0.984c0.067-0.322,0.139-0.633,0.189-0.932
		c0.104-0.602,0.16-1.154,0.195-1.645c0.013-0.244,0.023-0.473,0.035-0.686C35.216,18.729,35.215,18.533,35.214,18.355z
		 M1.729,12.939c0.268-0.596,0.596-1.2,0.959-1.803c0.378-0.596,0.801-1.184,1.259-1.754C4.414,8.818,4.922,8.28,5.462,7.781
		C6.011,7.288,6.601,6.85,7.204,6.466c0.609-0.378,1.225-0.705,1.813-1.031c0.596-0.311,1.165-0.625,1.725-0.897
		c0.278-0.141,0.556-0.259,0.823-0.388c0.272-0.118,0.535-0.23,0.788-0.338c0.512-0.208,0.991-0.393,1.425-0.55
		c0.218-0.073,0.423-0.148,0.614-0.217c0.188-0.063,0.363-0.119,0.523-0.177c0.015-0.006,0.026-0.008,0.041-0.014
		c-0.069,0.094-0.141,0.184-0.207,0.281c-0.137,0.198-0.26,0.409-0.383,0.619c-0.061,0.105-0.115,0.217-0.172,0.325
		c-0.059,0.108-0.109,0.221-0.158,0.334c-0.104,0.224-0.189,0.462-0.266,0.702c-0.039,0.117-0.071,0.242-0.1,0.365
		c-0.03,0.123-0.058,0.247-0.072,0.377c-0.018,0.127-0.036,0.25-0.039,0.382c0.002,0.134-0.002,0.259,0.01,0.389
		c0.107-0.078,0.198-0.159,0.295-0.233c0.091-0.076,0.193-0.146,0.281-0.221c0.091-0.072,0.183-0.143,0.275-0.213
		c0.094-0.067,0.174-0.141,0.269-0.208c0.093-0.065,0.178-0.136,0.266-0.203c0.091-0.066,0.179-0.136,0.265-0.203
		c0.176-0.132,0.346-0.271,0.52-0.403l0.51-0.41l0.5-0.413l0.49-0.421l0.471-0.413l0.66-0.577l-0.354-0.794
		c-0.158-0.353-0.352-0.558-0.513-0.708c-0.085-0.08-0.157-0.132-0.239-0.198c-0.074-0.053-0.148-0.102-0.224-0.15l-0.214-0.123
		l-0.208-0.104c-0.136-0.063-0.272-0.119-0.404-0.168c-0.532-0.199-1.05-0.314-1.571-0.383c-0.26-0.039-0.521-0.057-0.781-0.072
		c-0.262-0.01-0.522-0.012-0.785,0c-0.525,0.03-1.053,0.09-1.591,0.259c0.432,0.364,0.869,0.65,1.303,0.919
		c0.218,0.134,0.435,0.261,0.65,0.384c0.205,0.111,0.405,0.226,0.607,0.332c-0.151-0.011-0.299-0.023-0.467-0.032
		c-0.501-0.018-1.069-0.002-1.687,0.072c-0.31,0.034-0.626,0.1-0.958,0.155c-0.324,0.084-0.669,0.15-1.009,0.266
		C9.236,2.562,8.536,2.866,7.845,3.24c-0.682,0.395-1.34,0.88-1.958,1.425C5.272,5.216,4.686,5.808,4.129,6.423
		C3.581,7.046,3.077,7.707,2.625,8.382C2.176,9.061,1.8,9.769,1.471,10.464c-0.311,0.705-0.59,1.395-0.785,2.071
		c-0.109,0.332-0.181,0.67-0.268,0.986c-0.066,0.322-0.138,0.633-0.189,0.932c-0.104,0.602-0.16,1.158-0.195,1.648
		C0.022,16.346,0.011,16.58,0,16.793c0.001,0.211,0.002,0.418,0.003,0.594C0,17.736,0.031,18.035,0.038,18.221
		c0.011,0.186,0.017,0.332,0.017,0.332H0.29c0,0,0.011-0.143,0.031-0.326c0.025-0.184,0.038-0.498,0.099-0.836
		c0.027-0.168,0.057-0.354,0.09-0.557c0.041-0.201,0.085-0.418,0.132-0.648c0.103-0.461,0.242-0.975,0.416-1.523
		c0.086-0.273,0.194-0.555,0.297-0.846C1.477,13.533,1.585,13.234,1.729,12.939z M17.942,25.826l0.022-0.117
		c0.056-0.291,0.107-0.582,0.153-0.873c0.044-0.293,0.094-0.584,0.133-0.877l0.026-0.195l3.413-0.148
		c1.259-0.051,2.517-0.123,3.775-0.184l0.096-0.004l0.021-0.115c0.057-0.291,0.109-0.584,0.155-0.875
		c0.044-0.291,0.096-0.584,0.134-0.875c0.082-0.582,0.162-1.166,0.225-1.75c0.028-0.232,0.049-0.467,0.074-0.699l0.037-0.002
		l3.774-0.162c1.259-0.051,2.517-0.123,3.774-0.184l0.096-0.004l0.022-0.115c0.057-0.293,0.108-0.584,0.155-0.875
		c0.044-0.291,0.096-0.584,0.134-0.873c0.081-0.586,0.161-1.17,0.224-1.752c0.07-0.584,0.132-1.166,0.188-1.75
		c0.053-0.582,0.102-1.166,0.145-1.75c0.084-1.166,0.155-2.332,0.201-3.498c0.025-0.584,0.041-1.168,0.059-1.75
		c0.012-0.584,0.025-1.168,0.029-1.75l0.006-1.259l-1.258-0.016c-0.629-0.006-1.258-0.004-1.887,0.003s-1.258,0.018-1.888,0.047
		l-0.943,0.038C28.725,3.477,28.41,3.5,28.095,3.519c-0.314,0.018-0.629,0.046-0.943,0.072s-0.629,0.059-0.943,0.099l-0.967,0.114
		l0.024,0.844l0.098,3.393c-0.595-0.006-1.19-0.006-1.785,0.002C22.949,8.05,22.32,8.061,21.69,8.089l-0.943,0.039
		c-0.314,0.016-0.629,0.037-0.943,0.057c-0.314,0.018-0.629,0.047-0.943,0.072s-0.629,0.059-0.943,0.097L16.95,8.47l0.023,0.844
		l0.032,1.126c-0.375-0.001-0.75-0.006-1.126-0.001c-0.656,0.007-1.312,0.017-1.967,0.044l-0.984,0.039
		c-0.328,0.014-0.655,0.038-0.983,0.058c-0.328,0.018-0.656,0.045-0.984,0.072c-0.328,0.026-0.656,0.062-0.983,0.1l-0.966,0.115
		l0.023,0.844l0.1,3.5l0.001,0.021c-0.479-0.002-0.957-0.004-1.435,0.002c-0.629,0.008-1.258,0.02-1.887,0.049L4.87,15.32
		c-0.314,0.016-0.629,0.037-0.944,0.057c-0.314,0.016-0.629,0.047-0.943,0.072s-0.629,0.061-0.944,0.098l-0.967,0.115l0.024,0.844
		l0.101,3.5l0.121,3.5l0.12,3.498l0.144,3.5l0.02,0.484l0.438-0.02l3.774-0.162c1.258-0.051,2.517-0.121,3.774-0.184l0.096-0.004
		l0.022-0.115c0.057-0.293,0.109-0.584,0.155-0.875c0.044-0.291,0.095-0.584,0.134-0.873c0.081-0.584,0.162-1.168,0.224-1.752
		c0.034-0.277,0.059-0.557,0.089-0.834l3.605-0.152c1.311-0.053,2.623-0.125,3.934-0.188L17.942,25.826z M26.81,15.146l0.119-3.5
		l0.121-3.498l0.07-2.447c0.011,0.001,0.021,0.002,0.031,0.003c0.314,0.026,0.629,0.056,0.943,0.072
		c0.315,0.018,0.63,0.042,0.944,0.057l0.943,0.039c0.63,0.028,1.259,0.038,1.888,0.046c0.219,0.004,0.438,0,0.656,0.001
		c0.003,0.16,0.005,0.319,0.008,0.479c0.018,0.582,0.033,1.166,0.06,1.75c0.046,1.166,0.116,2.332,0.2,3.498
		c0.043,0.584,0.092,1.168,0.146,1.75c0.055,0.584,0.116,1.166,0.187,1.75c0.063,0.582,0.143,1.166,0.225,1.752
		c0.038,0.289,0.09,0.582,0.134,0.873c0.039,0.25,0.085,0.498,0.132,0.748c-1.211-0.059-2.422-0.127-3.634-0.176l-3.299-0.143
		L26.81,15.146z M18.472,22.211c0.07-0.584,0.132-1.168,0.186-1.752c0.053-0.582,0.104-1.166,0.146-1.748
		c0.044-0.584,0.081-1.168,0.114-1.75c0.033-0.584,0.064-1.168,0.086-1.75c0.01-0.234,0.01-0.467,0.019-0.699l0.927-0.051
		c0.008,0.492-0.018,0.98-0.026,1.473c-0.017,1.158-0.026,2.324-0.017,3.482v0.111c-0.01,0.299,0,0.266-0.216,0.643l-0.077,0.123
		h3.938l0.896-0.807l-0.534,0.131c-0.405,0.299-0.793,0.352-1.292,0.352c-0.406,0-0.88-0.027-0.983-0.045
		c-0.318-0.053-0.302-0.369-0.31-0.457c0-0.148-0.009-0.307-0.009-0.455c-0.009-0.246,0-0.492,0-0.736
		c0-0.166-0.026-0.771,0.034-0.93c0.018-0.053,0.068-0.123,0.198-0.133c0.163-0.025,0.354-0.018,0.716-0.018
		c0.138,0,0.24,0,0.293,0.018c0.017,0.01,0.077,0.029,0.077,0.09c0,0.051-0.026,0.086-0.052,0.131l-0.052,0.088l0.302-0.088
		l0.568-0.578h-2.068l0.061-2.395c0.336-0.01,0.682-0.018,1.025-0.018c0.173,0,0.414,0,0.448,0.018
		c0.044,0.008,0.095,0.043,0.095,0.098c0,0.068-0.061,0.158-0.061,0.158l-0.068,0.104l0.345-0.104l0.672-0.615h-4.162L19.022,14.5
		c0.033-0.93,0.064-1.859,0.074-2.79l0.013-1.254l-0.282-0.004l0.002-0.085c0.011,0.001,0.021,0.002,0.031,0.003
		c0.314,0.025,0.629,0.055,0.943,0.071c0.314,0.019,0.629,0.042,0.943,0.058l0.943,0.037c0.63,0.029,1.259,0.041,1.888,0.048
		c0.219,0.003,0.438,0,0.657,0.001c0.003,0.159,0.005,0.318,0.008,0.478c0.018,0.583,0.033,1.167,0.059,1.751
		c0.046,1.166,0.116,2.332,0.2,3.498c0.043,0.584,0.093,1.166,0.146,1.75c0.056,0.584,0.117,1.168,0.188,1.75
		c0.063,0.584,0.143,1.168,0.224,1.75c0.038,0.291,0.09,0.584,0.134,0.875c0.04,0.25,0.086,0.5,0.133,0.748
		c-1.211-0.059-2.423-0.127-3.635-0.176l-3.297-0.143C18.421,22.648,18.445,22.43,18.472,22.211z M5.813,30.203l-3.299-0.145
		l0.125-3.055l0.121-3.498l0.12-3.5l0.071-2.447c0.011,0.002,0.021,0.002,0.032,0.004c0.314,0.025,0.629,0.055,0.943,0.07
		c0.314,0.02,0.629,0.043,0.944,0.059l0.943,0.037c0.629,0.031,1.258,0.039,1.887,0.049c0.219,0.002,0.438,0,0.657,0
		c0.003,0.16,0.004,0.318,0.008,0.479c0.018,0.584,0.033,1.166,0.059,1.75c0.045,1.166,0.116,2.332,0.2,3.5
		c0.043,0.582,0.093,1.166,0.146,1.75c0.055,0.582,0.116,1.166,0.187,1.748c0.063,0.584,0.143,1.168,0.224,1.752
		c0.039,0.289,0.09,0.582,0.134,0.873c0.04,0.25,0.085,0.498,0.133,0.75C8.236,30.318,7.025,30.25,5.813,30.203z M10.821,15.211
		l0.069-2.447c0.023,0.002,0.047,0.004,0.071,0.006c0.328,0.027,0.656,0.055,0.984,0.072c0.328,0.02,0.655,0.045,0.983,0.057
		l0.984,0.041c0.655,0.025,1.311,0.037,1.967,0.045c0.251,0.002,0.501-0.002,0.752-0.002c0.016,0.744,0.027,1.486,0.059,2.229
		c0.023,0.582,0.053,1.166,0.086,1.75c0.034,0.582,0.071,1.166,0.115,1.75c0.043,0.582,0.093,1.166,0.146,1.748
		c0.054,0.584,0.116,1.168,0.186,1.752c0.023,0.195,0.047,0.393,0.07,0.59c-0.004-0.004-0.009-0.006-0.013-0.01
		c-0.63-0.58-1.139-1.369-1.275-1.57l-0.061-0.088c-0.112-0.148-0.225-0.307-0.328-0.465c-0.164-0.219-0.318-0.439-0.49-0.639
		c0.051-0.045,0.267-0.168,0.439-0.318c0.137-0.129,0.533-0.543,0.533-1.148c0-0.736-0.49-1.096-0.697-1.227
		c-0.621-0.369-1.448-0.359-2.129-0.359h-2l-0.446,0.252c0.004-0.242,0.011-0.482,0.012-0.723l0.006-1.26H10.82L10.821,15.211z
		 M14.591,18.783c0,0.254-0.061,0.49-0.198,0.711c-0.25,0.385-0.673,0.578-1.112,0.639c-0.086,0.018-0.18,0.025-0.37,0.035
		l0.052-2.814c0.414,0,0.828,0.035,1.172,0.342C14.557,18.064,14.591,18.607,14.591,18.783z M13.913,25.402l-3.451-0.146
		l0.053-1.309c0.011-0.146,0.026-0.295,0.037-0.441c0.084-1.168,0.155-2.334,0.2-3.5c0.026-0.584,0.042-1.166,0.059-1.75
		c0.006-0.301,0.01-0.6,0.015-0.898c0.031,0,0.063-0.004,0.094-0.004c0.216-0.01,0.422,0,0.629,0.008
		c-0.043,1.588-0.078,3.201-0.069,4.797v0.141c-0.009,0.395-0.018,0.369-0.198,0.711l-0.095,0.158h2.396l0.525-0.309
		c-0.207-0.018-0.414-0.035-0.612-0.043h-0.103c-0.121-0.01-0.293-0.018-0.389-0.105c-0.12-0.096-0.095-0.334-0.095-0.656
		c-0.009-0.52-0.017-1.045-0.009-1.553c0.104-0.018,0.207-0.018,0.302-0.018c0.095-0.01,0.198-0.018,0.293-0.027l0.087-0.008
		c0.068-0.008,0.137-0.027,0.215-0.035c0.129,0.191,0.259,0.395,0.389,0.588c0.077,0.121,0.154,0.236,0.224,0.357l0.086,0.133
		c0.491,0.736,0.922,1.342,1.792,1.641c0.293,0.096,0.586,0.148,0.896,0.148c0.058,0,0.11-0.01,0.167-0.012l0.093,0.689
		c0.039,0.293,0.088,0.584,0.132,0.877c0.04,0.248,0.085,0.498,0.131,0.748C16.442,25.521,15.178,25.453,13.913,25.402z"/>
</g>
</svg>
