<?xml version="1.0" encoding="utf-8"?>
<!-- Generator: Adobe Illustrator 16.2.0, SVG Export Plug-In . SVG Version: 6.00 Build 0)  -->
<!DOCTYPE svg PUBLIC "-//W3C//DTD SVG 1.1//EN" "http://www.w3.org/Graphics/SVG/1.1/DTD/svg11.dtd">
<svg version="1.1" id="OBJECTS" xmlns="http://www.w3.org/2000/svg" xmlns:xlink="http://www.w3.org/1999/xlink" x="0px" y="0px"
	 width="35.875px" height="35.875px" viewBox="0 0 35.875 35.875" enable-background="new 0 0 35.875 35.875" xml:space="preserve">
<g>
	<path d="M26.188,3.408l-0.002-0.002c0.002,0.002,0.003,0.004,0.003,0.004L26.188,3.408z M35.316,8.843
		C34.601,8.8,33.886,8.747,33.17,8.716l-2.146-0.109c-1.431-0.074-2.861-0.115-4.292-0.174c-0.47-0.021-0.94-0.032-1.411-0.046
		c0.008-0.003,0.016-0.004,0.023-0.006c0.575-0.165,1.155-0.372,1.733-0.692c0.572-0.32,1.17-0.754,1.627-1.457
		c0.229-0.348,0.396-0.77,0.465-1.204c0.071-0.434,0.054-0.872-0.03-1.262c-0.083-0.392-0.218-0.744-0.376-1.059
		c-0.069-0.153-0.188-0.343-0.267-0.472l-0.112-0.171l-0.047-0.07l-0.111-0.154c-0.195-0.272-0.426-0.536-0.698-0.783
		c-0.271-0.246-0.581-0.48-0.941-0.662c-0.358-0.182-0.764-0.311-1.173-0.364s-0.816-0.031-1.189,0.04
		c-0.752,0.144-1.368,0.46-1.902,0.807c-0.535,0.35-0.994,0.749-1.406,1.173c-0.407,0.43-0.782,0.867-1.115,1.332
		c-0.339,0.46-0.646,0.934-0.938,1.412c-0.295,0.476-0.568,0.96-0.84,1.442c-0.113,0.2-0.221,0.401-0.331,0.601
		c-0.029-0.089-0.058-0.178-0.087-0.268c-0.145-0.4-0.299-0.797-0.463-1.189c-0.331-0.785-0.686-1.565-1.152-2.328
		c-0.236-0.38-0.499-0.761-0.838-1.112c-0.339-0.349-0.754-0.684-1.3-0.898c-0.54-0.217-1.219-0.254-1.803-0.086
		c-0.591,0.16-1.07,0.471-1.464,0.807c-0.098,0.088-0.223,0.2-0.283,0.264l-0.055,0.053l-0.028,0.028l-0.045,0.049l-0.126,0.142
		c-0.165,0.198-0.332,0.405-0.47,0.651c-0.14,0.243-0.265,0.514-0.35,0.817C9.141,4.069,9.105,4.408,9.137,4.744
		c0.03,0.334,0.128,0.659,0.264,0.941c0.14,0.282,0.315,0.522,0.5,0.729c0.371,0.415,0.789,0.696,1.2,0.936
		c0.416,0.233,0.836,0.413,1.26,0.562c0.353,0.124,0.708,0.214,1.065,0.298c-0.572-0.001-1.143-0.003-1.715,0.005L9.565,8.235
		C8.85,8.239,8.134,8.263,7.419,8.274C6.704,8.288,5.988,8.306,5.273,8.331C3.842,8.375,2.412,8.435,0.981,8.522L0,8.584
		l0.014,0.896l0.103,6.485l0.014,0.87l0.851-0.016l2.841-0.053l0.015,0.273l0.062,1.189c0.031,0.793,0.077,1.585,0.096,2.377
		c0.019,0.793,0.051,1.586,0.059,2.379l0.013,1.188l0.002,1.19c-0.001,0.791-0.014,1.584-0.032,2.376
		c-0.022,0.793-0.051,1.586-0.089,2.379l-0.136,2.378l-0.157,2.378l-0.047,0.719l0.827,0.052l1.714,0.108l1.714,0.088
		c0.572,0.029,1.143,0.049,1.715,0.066c0.571,0.017,1.143,0.031,1.714,0.035c1.143,0.019,2.286,0.006,3.429-0.008
		c1.144-0.014,2.286-0.035,3.429-0.066l1.715-0.05l1.714-0.065c1.144-0.05,2.286-0.102,3.429-0.176l1.715-0.109
		c0.57-0.035,1.143-0.09,1.714-0.133s1.143-0.098,1.714-0.155c0.572-0.052,1.143-0.116,1.715-0.187l0.109-0.014l0.137-1.295
		l0.108-1.188c0.038-0.397,0.065-0.793,0.099-1.188l0.096-1.189l0.162-2.379l0.138-2.376c0.049-0.793,0.084-1.587,0.118-2.378
		l0.105-2.379l0.077-2.377c0.02-0.695,0.046-1.392,0.063-2.087l2.349-0.062l0.014-0.116c0.057-0.541,0.11-1.081,0.157-1.621
		c0.046-0.54,0.097-1.081,0.137-1.622l0.122-1.621c0.041-0.54,0.07-1.079,0.106-1.621L36,8.884L35.316,8.843z M17.91,8.081
		c0.282-0.441,0.611-0.875,0.947-1.289c0.338-0.416,0.701-0.812,1.068-1.196c0.373-0.381,0.754-0.749,1.144-1.097
		c0.393-0.345,0.78-0.682,1.185-0.979c0.4-0.301,0.803-0.575,1.203-0.787c0.397-0.211,0.799-0.349,1.13-0.373
		c0.335-0.023,0.572,0.042,0.813,0.193c0.241,0.155,0.493,0.417,0.726,0.763l0.043,0.063l0.009,0.012l0.001,0.002l0.003,0.003
		l0.005,0.008c0-0.001-0.001-0.002-0.002-0.004l0.002,0.002l0.002,0.004l0.002,0.003l0.009,0.016L26.305,3.6
		c0.059,0.104,0.08,0.147,0.126,0.24c0.088,0.168,0.146,0.328,0.176,0.464c0.063,0.282,0.052,0.433-0.05,0.666
		c-0.107,0.229-0.371,0.512-0.719,0.768c-0.347,0.259-0.771,0.491-1.219,0.705c-0.902,0.426-1.904,0.771-2.926,1.096
		c-0.512,0.164-1.032,0.311-1.557,0.463l-0.891,0.25c-0.366-0.006-0.731-0.015-1.098-0.02c-0.111-0.002-0.223,0-0.334-0.002
		L17.91,8.081z M13.025,6.536c-0.328-0.21-0.644-0.425-0.919-0.656c-0.279-0.225-0.515-0.473-0.673-0.699
		c-0.158-0.233-0.208-0.426-0.203-0.574c0.008-0.147,0.06-0.332,0.209-0.56c0.072-0.112,0.161-0.234,0.264-0.353l0.079-0.091
		l0.087-0.095c0.08-0.09,0.112-0.114,0.164-0.17c0.226-0.215,0.447-0.388,0.652-0.487c0.207-0.098,0.401-0.152,0.661-0.126
		c0.258,0.022,0.564,0.137,0.863,0.321c0.299,0.182,0.597,0.423,0.869,0.697c0.275,0.273,0.527,0.583,0.757,0.91
		c0.229,0.328,0.435,0.675,0.614,1.037c0.18,0.359,0.337,0.734,0.462,1.113c0.125,0.374,0.233,0.779,0.257,1.123l0.021,0.302
		c-0.349-0.003-0.698-0.005-1.047-0.006c-0.334-0.171-0.669-0.334-0.994-0.505c-0.37-0.188-0.735-0.381-1.091-0.574
		C13.703,6.945,13.355,6.746,13.025,6.536z M1.858,15.124l0.073-4.637c1.114,0.06,2.228,0.107,3.341,0.142
		c0.715,0.025,1.431,0.042,2.146,0.057c0.715,0.012,1.431,0.034,2.146,0.04l2.146,0.02c0.715,0.01,1.431,0.008,2.146,0.007
		c0.149-0.001,0.298-0.002,0.447-0.003l0.302,4.007c-1.104,0.022-2.209,0.063-3.314,0.093l-1.714,0.072
		c-0.572,0.023-1.143,0.053-1.715,0.086L4.78,15.178L1.858,15.124z M30.148,34.566c-0.571-0.056-1.143-0.11-1.714-0.153
		s-1.144-0.098-1.714-0.133l-1.715-0.109c-1.143-0.074-2.285-0.128-3.429-0.177l-1.714-0.064l-1.715-0.052
		c-1.143-0.031-2.285-0.053-3.429-0.065c-1.143-0.013-2.286-0.025-3.429-0.009c-0.571,0.005-1.143,0.02-1.714,0.035
		c-0.572,0.019-1.143,0.037-1.715,0.066l-1.714,0.09l-0.99,0.062l-0.103-1.561L4.92,30.118c-0.038-0.793-0.067-1.586-0.089-2.379
		c-0.018-0.792-0.031-1.585-0.032-2.376l0.002-1.19l0.013-1.188c0.008-0.793,0.04-1.586,0.059-2.379
		c0.019-0.792,0.065-1.584,0.096-2.377l0.062-1.189l0.016-0.296l2.764-0.051l0.051,0.003c0.572,0.034,1.143,0.063,1.715,0.086
		l1.714,0.072c1.143,0.033,2.286,0.073,3.429,0.098l0.052,0.001L15.4,25.3l1.098-14.563c0.55-0.003,1.101,0,1.65-0.009
		c0.57-0.007,1.141-0.021,1.711-0.03l1.1,14.602l0.618-8.204c1.144,0.026,2.286,0.035,3.429,0.042
		c1.143-0.001,2.285,0.003,3.429-0.016l1.714-0.024l0.527-0.011c0.014,0.381,0.027,0.762,0.038,1.143l0.077,2.377l0.105,2.379
		c0.033,0.791,0.069,1.585,0.118,2.378l0.138,2.376l0.162,2.379l0.096,1.189c0.033,0.396,0.061,0.791,0.099,1.188l0.108,1.188
		l0.111,1.055C31.201,34.676,30.676,34.615,30.148,34.566z M33.085,15.786l0.021-1.115l-1.242-0.027l-1.715-0.037l-1.714-0.023
		c-1.144-0.02-2.286-0.017-3.429-0.018c-1.08,0.006-2.16,0.018-3.24,0.041l0.297-3.946c0.126-0.003,0.252-0.004,0.378-0.007
		l2.146-0.056c0.716-0.023,1.432-0.038,2.146-0.069c1.431-0.06,2.861-0.102,4.292-0.175l2.146-0.108
		c0.516-0.023,1.03-0.057,1.545-0.09c0.02,0.316,0.04,0.631,0.064,0.945l0.121,1.621c0.04,0.541,0.092,1.082,0.137,1.622
		c0.044,0.497,0.094,0.997,0.146,1.497L33.085,15.786z M9.865,27l0.379-0.093l0.722-0.658H6.303l-0.759,0.422
		c0.342-0.027,0.685-0.047,1.018-0.057c0.01,0.102,0.01,0.201,0.01,0.303c0,0.422-0.019,0.834-0.028,1.256
		c-0.019,0.458-0.009,0.925-0.019,1.384v2.319c-0.009,0.209-0.009,0.311-0.222,0.604l-0.185,0.238h2.628l0.564-0.293
		c-0.009,0-0.028,0-0.046-0.009c-0.102-0.009-0.212-0.02-0.314-0.028c-0.12,0-0.231-0.018-0.352-0.027
		c-0.13,0-0.324-0.008-0.426-0.092c-0.12-0.101-0.111-0.33-0.12-0.477c-0.009-0.33-0.009-0.66-0.009-0.99
		c0-0.219,0.009-0.438,0.009-0.658c0-0.211-0.009-0.331,0-0.432c0.019-0.109,0.064-0.146,0.111-0.184
		c0.093-0.055,0.231-0.045,0.25-0.045h0.407c0.315,0,0.639-0.02,0.731,0c0,0.008,0.111,0.037,0.111,0.109
		c0.009,0.047-0.028,0.082-0.046,0.119l-0.074,0.092l0.324-0.092l0.611-0.596H8.061l0.055-2.511
		c0.139-0.009,0.287-0.009,0.426-0.009h0.796c0.269,0.009,0.518,0,0.611,0.036c0.046,0.019,0.064,0.047,0.064,0.083
		c0,0.046-0.037,0.1-0.037,0.1L9.865,27z M16.963,30.683l-0.064-0.091c-0.121-0.155-0.241-0.321-0.352-0.485
		c-0.176-0.23-0.343-0.459-0.527-0.668c0.055-0.047,0.287-0.175,0.472-0.33c0.147-0.139,0.573-0.568,0.573-1.202
		c0-0.769-0.527-1.145-0.75-1.282c-0.666-0.385-1.554-0.375-2.285-0.375h-2.146l-0.75,0.412c0.129-0.01,0.25-0.018,0.37-0.018
		c0.231-0.011,0.454,0,0.675,0.008c-0.046,1.658-0.083,3.345-0.074,5.013v0.147c-0.009,0.412-0.019,0.385-0.213,0.741l-0.102,0.165
		h2.572l0.565-0.321c-0.223-0.018-0.445-0.036-0.658-0.044h-0.11c-0.13-0.01-0.314-0.02-0.417-0.111
		c-0.129-0.101-0.102-0.349-0.102-0.688c-0.009-0.54-0.019-1.09-0.009-1.621c0.11-0.019,0.222-0.019,0.323-0.019
		c0.102-0.011,0.213-0.019,0.314-0.028l0.093-0.01c0.074-0.008,0.148-0.026,0.231-0.035c0.139,0.201,0.277,0.412,0.417,0.614
		c0.083,0.128,0.166,0.247,0.24,0.375l0.093,0.138c0.527,0.77,0.99,1.402,1.924,1.713c0.315,0.102,0.63,0.156,0.963,0.156
		c0.231,0,0.453-0.027,0.676-0.045c-0.186-0.156-0.389-0.303-0.574-0.469C17.656,31.72,17.111,30.894,16.963,30.683z M15.232,28.878
		c-0.269,0.404-0.722,0.605-1.193,0.669c-0.093,0.019-0.194,0.028-0.398,0.037l0.056-2.94c0.444,0,0.888,0.036,1.259,0.356
		c0.453,0.385,0.49,0.954,0.49,1.137C15.445,28.401,15.381,28.649,15.232,28.878z M22.729,32.379c-0.436,0-0.944-0.026-1.056-0.046
		c-0.342-0.055-0.323-0.385-0.333-0.477c0-0.156-0.009-0.32-0.009-0.478c-0.009-0.255,0-0.513,0-0.768
		c0-0.175-0.028-0.808,0.037-0.972c0.019-0.056,0.073-0.129,0.212-0.139c0.176-0.027,0.38-0.018,0.769-0.018
		c0.148,0,0.259,0,0.314,0.018c0.019,0.01,0.083,0.027,0.083,0.092c0,0.055-0.027,0.092-0.055,0.139l-0.056,0.091l0.323-0.091
		l0.611-0.605H21.35l0.064-2.502c0.361-0.01,0.731-0.019,1.102-0.019c0.185,0,0.443,0,0.48,0.019c0.047,0.009,0.103,0.047,0.103,0.1
		c0,0.074-0.065,0.166-0.065,0.166L22.959,27l0.371-0.11l0.722-0.641h-4.47l-0.74,0.431l1.018-0.056
		c0.01,0.514-0.019,1.026-0.027,1.54c-0.019,1.208-0.027,2.428-0.019,3.637v0.12c-0.009,0.313,0,0.275-0.231,0.67l-0.084,0.127
		h4.229l0.962-0.842l-0.573,0.137C23.682,32.323,23.265,32.379,22.729,32.379z M28.706,32.379c-0.435,0-0.944-0.026-1.055-0.046
		c-0.343-0.055-0.324-0.385-0.333-0.477c0-0.156-0.01-0.32-0.01-0.478c-0.009-0.255,0-0.513,0-0.768
		c0-0.175-0.027-0.808,0.037-0.972c0.019-0.056,0.074-0.129,0.213-0.139c0.176-0.027,0.379-0.018,0.769-0.018
		c0.147,0,0.259,0,0.314,0.018c0.019,0.01,0.083,0.027,0.083,0.092c0,0.055-0.027,0.092-0.056,0.139l-0.056,0.091l0.324-0.091
		l0.611-0.605h-2.222l0.065-2.502c0.36-0.01,0.73-0.019,1.101-0.019c0.185,0,0.444,0,0.481,0.019c0.046,0.009,0.102,0.047,0.102,0.1
		c0,0.074-0.064,0.166-0.064,0.166L28.938,27l0.37-0.11l0.722-0.641h-4.469l-0.74,0.431l1.018-0.056
		c0.009,0.514-0.019,1.026-0.027,1.54c-0.02,1.208-0.028,2.428-0.02,3.637v0.12c-0.009,0.313,0,0.275-0.23,0.67l-0.084,0.127h4.229
		l0.963-0.842l-0.574,0.137C29.659,32.323,29.242,32.379,28.706,32.379z"/>
</g>
</svg>
