<?xml version="1.0" encoding="utf-8"?>
<!-- Generator: Adobe Illustrator 16.2.0, SVG Export Plug-In . SVG Version: 6.00 Build 0)  -->
<!DOCTYPE svg PUBLIC "-//W3C//DTD SVG 1.1//EN" "http://www.w3.org/Graphics/SVG/1.1/DTD/svg11.dtd">
<svg version="1.1" id="OBJECTS" xmlns="http://www.w3.org/2000/svg" xmlns:xlink="http://www.w3.org/1999/xlink" x="0px" y="0px"
	 width="36px" height="36px" viewBox="0 0 36 36" enable-background="new 0 0 36 36" xml:space="preserve">
<g>
	<g>
		<path d="M36,15.891c0-2.846-1.696-5.427-4.295-6.648c-0.167-3.962-3.412-7.133-7.377-7.133c-1.266,0-2.492,0.328-3.597,0.957
			C18.935,1.105,16.451,0,13.781,0C8.653,0,4.462,4.118,4.294,9.243C1.696,10.465,0,13.046,0,15.891
			c0,3.733,2.813,6.828,6.448,7.315c0.06,0.597,0.172,1.204,0.34,1.832l-1.331,0.769c-0.504,0.291-0.677,0.936-0.386,1.441
			L7.181,30.9c0.291,0.504,0.937,0.678,1.44,0.387l1.334-0.771c1.396,1.368,3.059,2.341,4.881,2.862v1.567
			c0,0.581,0.472,1.054,1.055,1.054h4.219c0.582,0,1.055-0.473,1.055-1.054v-1.567c1.822-0.521,3.484-1.494,4.881-2.862l1.334,0.771
			c0.504,0.291,1.149,0.118,1.44-0.387l2.109-3.652c0.291-0.506,0.119-1.15-0.386-1.441l-1.331-0.769
			c0.168-0.628,0.28-1.235,0.34-1.832C33.188,22.719,36,19.624,36,15.891z M27.52,28.934l-1.139-0.658
			c-0.434-0.251-0.983-0.162-1.315,0.213c-1.403,1.579-3.19,2.627-5.166,3.031c-0.492,0.1-0.845,0.531-0.845,1.033v1.338h-2.109
			v-1.338c0-0.502-0.353-0.934-0.844-1.033c-1.977-0.402-3.764-1.452-5.167-3.031c-0.332-0.375-0.882-0.464-1.315-0.213L8.48,28.934
			l-1.055-1.828l1.141-0.658c0.435-0.25,0.632-0.772,0.473-1.246c-0.226-0.676-0.378-1.314-0.459-1.928h2.113
			c0.514,3.572,3.594,6.329,7.307,6.329s6.794-2.757,7.307-6.329h2.114c-0.082,0.613-0.234,1.252-0.46,1.928
			c-0.159,0.474,0.039,0.996,0.473,1.246l1.142,0.658L27.52,28.934z M12.833,23.273h10.335c-0.491,2.404-2.621,4.219-5.168,4.219
			S13.323,25.678,12.833,23.273z M28.547,21.164H7.453c-2.946,0-5.344-2.366-5.344-5.273c0-2.21,1.454-4.203,3.619-4.957
			c0.439-0.152,0.728-0.576,0.707-1.043C6.431,9.783,6.417,9.688,6.407,9.619C6.404,9.597,6.399,9.568,6.398,9.554
			c0.005-4.105,3.314-7.444,7.383-7.444c2.329,0,4.478,1.088,5.896,2.987c0.168,0.226,0.42,0.374,0.698,0.413
			c0.277,0.039,0.561-0.035,0.784-0.205c0.938-0.71,2.033-1.087,3.168-1.087c2.906,0,5.271,2.395,5.273,5.339
			c-0.001,0.016-0.006,0.049-0.009,0.075c-0.01,0.065-0.021,0.147-0.026,0.243c-0.029,0.471,0.26,0.903,0.705,1.059
			c2.165,0.754,3.619,2.747,3.619,4.957C33.891,18.798,31.493,21.164,28.547,21.164z M11.604,9.192
			c-0.153-0.413-0.548-0.685-0.987-0.685S9.784,8.779,9.63,9.192l-3.164,8.437c-0.204,0.546,0.071,1.154,0.617,1.357
			c0.545,0.205,1.153-0.07,1.357-0.615l0.534-1.426h3.285l0.534,1.426c0.205,0.545,0.813,0.82,1.358,0.615
			c0.545-0.203,0.821-0.812,0.616-1.357L11.604,9.192z M9.767,14.836l0.851-2.27l0.852,2.27H9.767z M20.109,8.508H18
			c-0.583,0-1.055,0.473-1.055,1.055V18c0,0.583,0.472,1.055,1.055,1.055c0.582,0,1.055-0.472,1.055-1.055v-3.164h1.055
			c1.745,0,3.164-1.42,3.164-3.165S21.854,8.508,20.109,8.508z M20.109,12.727h-1.055v-2.109h1.055c0.582,0,1.055,0.473,1.055,1.054
			C21.164,12.254,20.691,12.727,20.109,12.727z M26.438,8.508c-0.583,0-1.055,0.473-1.055,1.055V18c0,0.583,0.472,1.055,1.055,1.055
			c0.582,0,1.055-0.472,1.055-1.055V9.563C27.492,8.98,27.02,8.508,26.438,8.508z"/>
	</g>
</g>
</svg>
