<?xml version="1.0" encoding="utf-8"?>
<!-- Generator: Adobe Illustrator 16.2.0, SVG Export Plug-In . SVG Version: 6.00 Build 0)  -->
<!DOCTYPE svg PUBLIC "-//W3C//DTD SVG 1.1//EN" "http://www.w3.org/Graphics/SVG/1.1/DTD/svg11.dtd">
<svg version="1.1" id="OBJECTS" xmlns="http://www.w3.org/2000/svg" xmlns:xlink="http://www.w3.org/1999/xlink" x="0px" y="0px"
	 width="25.938px" height="24px" viewBox="0 0 25.938 24" enable-background="new 0 0 25.938 24" xml:space="preserve">
<path fill-rule="evenodd" clip-rule="evenodd" d="M24.7,6.596c-1.325,1.053-2.537,2.015-3.748,2.978
	c-1.455,1.16-2.907,2.324-4.364,3.48c-0.982,0.779-1.902,0.798-2.87,0.036c-1.897-1.496-3.785-3.004-5.674-4.511
	C7.865,8.437,7.71,8.267,7.494,8.063C7.15,8.268,6.759,8.467,6.407,8.722c-0.548,0.395-0.723,1.328-0.318,2.064
	c0.928,1.686,1.874,3.363,2.877,5.004c0.567,0.928,1.43,1.043,2.384,0.53c0.563-0.302,1.155-0.594,1.771-0.742
	c0.662-0.159,1.303,0.115,1.785,0.589c1.377,1.355,2.412,2.934,2.856,4.854c0.186,0.801-0.101,1.383-0.8,1.808
	c-3.025,1.843-6.695,1.488-9.52-0.899c-1.231-1.042-2.23-2.271-3.034-3.672c-0.919-1.604-1.849-3.199-2.754-4.811
	c-1.163-2.071-1.869-4.277-1.688-6.691c0.225-2.991,1.666-5.201,4.296-6.59c0.693-0.367,1.295-0.071,1.831,0.396
	c0.997,0.87,1.548,2.05,2.1,3.215c0.185,0.39,0.386,0.522,0.811,0.521c4.926-0.016,9.852-0.012,14.777-0.01
	c1.587,0,2.155,0.586,2.155,2.208c0.001,3.503,0.002,7.005,0,10.507c0,1.361-0.661,2.036-1.994,2.039
	c-1.737,0.002-3.475,0.001-5.212,0c-0.604-0.002-0.925-0.225-0.888-0.645c0.047-0.533,0.429-0.62,0.867-0.619
	c1.718,0.004,3.436,0.004,5.154,0.001c0.767-0.002,0.835-0.069,0.835-0.814C24.7,13.559,24.7,10.155,24.7,6.596z M1.174,6.712
	c0.012,2.688,0.634,4.492,1.597,6.193c0.9,1.59,1.808,3.178,2.725,4.76c0.7,1.208,1.564,2.281,2.617,3.199
	c2.426,2.112,5.518,2.488,8.06,0.996c0.374-0.221,0.465-0.451,0.338-0.844c-0.465-1.438-1.232-2.696-2.265-3.775
	c-0.572-0.598-0.966-0.602-1.685-0.193c-0.216,0.123-0.431,0.248-0.646,0.371c-1.492,0.861-3.176,0.449-4.06-1.039
	c-0.962-1.62-1.889-3.264-2.816-4.906c-0.743-1.315-0.462-3.369,1.126-4.077C6.39,7.296,6.594,7.147,6.808,7.021
	C7.523,6.597,7.707,6.349,7.505,5.56C7.113,4.026,6.386,2.656,5.29,1.505C5.054,1.258,4.83,1.251,4.532,1.429
	C2.272,2.771,1.196,4.786,1.174,6.712z M23.979,5.572c-5.157,0-10.158,0-15.089,0c-0.146,0.614-0.277,1.164-0.42,1.761
	c1.938,1.543,3.913,3.117,5.894,4.686c0.645,0.512,0.893,0.496,1.56-0.033c1.17-0.928,2.341-1.855,3.509-2.785
	C20.911,8.022,22.388,6.842,23.979,5.572z"/>
</svg>
