<?xml version="1.0" encoding="utf-8"?>
<!-- Generator: Adobe Illustrator 16.2.0, SVG Export Plug-In . SVG Version: 6.00 Build 0)  -->
<!DOCTYPE svg PUBLIC "-//W3C//DTD SVG 1.1//EN" "http://www.w3.org/Graphics/SVG/1.1/DTD/svg11.dtd">
<svg version="1.1" id="OBJECTS" xmlns="http://www.w3.org/2000/svg" xmlns:xlink="http://www.w3.org/1999/xlink" x="0px" y="0px"
	 width="387px" height="125.5px" viewBox="-309.531 -67.031 387 125.5" enable-background="new -309.531 -67.031 387 125.5"
	 xml:space="preserve">
<g>
	<path d="M66.245-34.944c0.216,0.624,0.389,1.233,0.541,1.836c0.767,3.03,0.738,5.796-0.108,8.236
		c-1.611,4.646-5.651,6.614-5.693,6.632l-1.931,0.921l2.033,0.494c4.285,1.04,10.317,5.637,13.438,13.266
		c1.897,4.644,3.365,12.181-0.43,21.729c-4.779,12.026-13.767,14.551-20.467,14.551c-3.332,0-5.696-0.661-5.721-0.668l-0.325-0.092
		l-0.237,0.283C40.055,40.894,32.623,45.28,25.259,45.28c-11.47,0-18.937-10.826-19.01-10.936L5.914,33.85l-0.449,0.33
		c-5.807,4.266-11.816,6.43-17.86,6.43c-14.373,0-24.401-12.309-24.501-12.432l-0.404-0.506l-0.434,0.467
		c-8.119,8.715-16.709,13.133-25.53,13.133c-10.938,0-18.408-6.97-18.482-7.041l-0.352-0.334l-0.368,0.309
		c-5.499,4.605-10.925,6.941-16.129,6.941c-6.259,0-9.989-3.48-10.025-3.516l-0.342-0.325l-0.364,0.286
		c-9.929,7.803-19.867,11.761-29.538,11.761c-20.276,0-32.811-17.561-32.935-17.739l-0.366-0.521l-0.456,0.403
		c-4.059,3.603-8.506,5.43-13.218,5.43c-8.523,0-15.101-6.038-15.167-6.1l-0.347-0.324l-0.362,0.297
		c-7.848,6.42-16.271,9.676-25.034,9.676c-15.433,0-26.777-10.229-26.89-10.332l-0.475-0.435l-0.369,0.567
		c-4.411,6.801-9.408,10.25-14.852,10.25c-8.336,0-14.96-8.184-15.027-8.268l-0.252-0.316l-0.348,0.119
		c-4.606,1.565-8.026,1.01-10.031-1.644c-2.413-3.194-2.081-8.408-2.077-8.461l0.029-0.419l-0.281-0.245
		c-5.731-4.998-8.353-9.912-7.792-14.605c1.132-9.47,14.778-15.32,14.915-15.378l0.232-0.098l0.111-0.267
		c8.393-20.12,21.38-30.323,38.601-30.323c14.378,0,26.525,7.45,26.646,7.526l0.388,0.241l0.312-0.368
		c5.305-6.254,11.382-9.426,18.061-9.426c12.219,0,22.446,10.704,22.547,10.811l0.367,0.389l0.393-0.349
		c12.044-10.728,25.412-16.168,39.733-16.168c15.568,0,26.71,6.646,26.821,6.713l0.319,0.193l0.295-0.244
		c7.023-5.816,14.541-8.766,22.343-8.766c13.787,0,23.872,9.327,23.972,9.42l0.444,0.416l0.377-0.503
		c6.298-8.417,13.934-12.683,22.696-12.683c8.276,0,14.581,3.958,14.643,3.999l0.259,0.165l0.267-0.142
		c7.56-4.005,14.687-6.038,21.185-6.038c14.833,0,24.292,10.536,31.199,18.229c0.829,0.923,1.627,1.813,2.398,2.646
		c2.626,2.837,5.603,4.272,8.845,4.272c7.394,0,13.565-7.389,13.824-7.703l0.071-0.088l0.045-0.111
		c0.021-0.05,0.041-0.097,0.062-0.146c0.012-0.027,0.023-0.053,0.034-0.081c-0.36-0.231-0.712-0.479-1.054-0.746
		c-0.028,0.07-0.059,0.137-0.088,0.208c-0.005,0.006-0.017,0.019-0.022,0.026c-0.763,0.881-6.427,7.164-12.872,7.164
		c-2.936,0-5.64-1.312-8.037-3.901c-0.768-0.829-1.561-1.712-2.385-2.631C15.781-44.911,6.12-55.672-9.186-55.672
		c-6.591,0-13.792,2.027-21.409,6.024c-1.312-0.777-7.226-4.007-14.945-4.007c-8.947,0-16.759,4.267-23.226,12.68
		c-2.149-1.83-11.72-9.33-24.263-9.33c-7.944,0-15.593,2.955-22.74,8.785c-1.968-1.1-12.661-6.682-27.038-6.682
		c-14.432,0-27.91,5.421-40.066,16.113c-1.996-1.991-11.479-10.795-22.974-10.795c-6.877,0-13.131,3.19-18.598,9.482
		c-2.223-1.284-13.59-7.456-26.809-7.456c-17.391,0-31.071,10.674-39.574,30.869c-1.932,0.856-14.32,6.706-15.488,16.462
		c-0.623,5.204,2.074,10.513,8.016,15.783c-0.039,1.421,0.037,6.01,2.407,9.152c2.279,3.024,5.981,3.781,10.917,2.189
		c1.346,1.582,7.635,8.408,15.642,8.408c5.685,0,10.879-3.454,15.446-10.268c2.357,1.964,13.101,10.217,27.139,10.217
		c8.878,0,17.407-3.244,25.358-9.641c1.52,1.301,7.651,6.09,15.552,6.09c4.803,0,9.34-1.791,13.491-5.328
		c2.267,2.947,14.61,17.756,33.484,17.756c9.796,0,19.837-3.944,29.85-11.726c1.12,0.919,4.781,3.52,10.419,3.52
		c5.34,0,10.876-2.323,16.46-6.905c1.656,1.439,8.745,7.031,18.871,7.031c8.973,0,17.689-4.393,25.915-13.055
		c2.077,2.349,11.733,12.391,24.955,12.391c6.115,0,12.185-2.127,18.05-6.322c1.635,2.206,8.83,10.993,19.604,10.993
		c7.613,0,15.249-4.435,22.702-13.181c0.783,0.188,2.884,0.623,5.668,0.623c5.77,0,16.241-2,21.562-15.387
		c4.011-10.087,2.444-18.093,0.423-23.03c-2.937-7.182-8.338-11.831-12.709-13.552c1.485-1.073,3.717-3.146,4.889-6.513
		c0.917-2.633,1-5.566,0.279-8.738c-0.186-0.819-0.412-1.649-0.707-2.499c-0.015-0.042-0.025-0.082-0.039-0.124
		c-0.402,0.09-0.81,0.175-1.219,0.257C66.156-35.237,66.194-35.094,66.245-34.944z"/>
	<path d="M-4.326-60.474c0.425,0.075,0.876,0.154,1.353,0.237c0.471,0.12,0.967,0.247,1.484,0.378
		c1.033,0.264,2.151,0.546,3.335,0.826c1.162,0.386,2.387,0.794,3.655,1.216c0.316,0.105,0.636,0.211,0.957,0.318
		c0.313,0.137,0.629,0.274,0.946,0.415c0.636,0.273,1.279,0.55,1.928,0.829c0.325,0.137,0.651,0.276,0.979,0.414
		c0.321,0.154,0.635,0.338,0.954,0.506c0.635,0.342,1.273,0.686,1.91,1.03c0.652,0.309,1.26,0.726,1.871,1.125
		c0.613,0.398,1.224,0.794,1.829,1.187c0.585,0.433,1.151,0.892,1.724,1.321c0.567,0.439,1.143,0.849,1.65,1.349
		c0.525,0.474,1.041,0.942,1.545,1.398c0.502,0.461,0.949,0.977,1.409,1.444c0.459,0.471,0.899,0.937,1.29,1.433
		c0.404,0.481,0.795,0.947,1.168,1.394c0.686,0.964,1.363,1.804,1.875,2.637c0.55,0.802,0.958,1.56,1.315,2.172
		c0.321,0.638,0.601,1.125,0.753,1.481c0.169,0.349,0.244,0.543,0.244,0.543s-0.225-0.819-0.794-2.17
		c-0.31-0.654-0.663-1.473-1.153-2.346c-0.451-0.908-1.065-1.839-1.719-2.877c-0.721-0.961-1.445-2.083-2.365-3.075
		c-0.453-0.509-0.892-1.069-1.389-1.572c-0.504-0.492-1.019-0.995-1.543-1.508c-0.512-0.533-1.09-0.976-1.662-1.45
		c-0.576-0.465-1.148-0.956-1.752-1.402c-0.618-0.414-1.241-0.827-1.867-1.244c-0.627-0.417-1.248-0.854-1.914-1.181
		c-0.656-0.346-1.314-0.691-1.968-1.035c-0.329-0.167-0.652-0.352-0.982-0.506c-0.336-0.137-0.67-0.274-1.004-0.412
		c-0.668-0.269-1.331-0.536-1.984-0.801c-0.329-0.13-0.654-0.258-0.977-0.385c-0.331-0.097-0.658-0.194-0.984-0.288
		c-1.301-0.378-2.56-0.743-3.756-1.043c-1.211-0.221-2.357-0.411-3.414-0.583c-0.527-0.086-1.034-0.167-1.515-0.245
		c-0.485-0.028-0.945-0.055-1.378-0.08c-0.864-0.049-1.617-0.092-2.237-0.125c-1.238-0.064-1.945-0.08-1.945-0.08
		s0.702,0.147,1.925,0.366C-5.92-60.754-5.178-60.624-4.326-60.474z"/>
	<path d="M-22.915-58.04c0.225-0.067,0.459-0.128,0.701-0.18c0.24-0.054,0.481-0.125,0.723-0.192
		c0.238-0.083,0.483-0.128,0.722-0.199c0.239-0.064,0.473-0.139,0.699-0.215c0.458-0.119,0.883-0.284,1.251-0.411
		c0.37-0.129,0.678-0.262,0.896-0.353c0.219-0.099,0.348-0.159,0.348-0.159s-0.515-0.249-1.305-0.331
		c-0.396-0.066-0.854-0.055-1.348-0.04c-0.489,0.058-1.014,0.115-1.526,0.265c-0.508,0.166-1.022,0.3-1.475,0.561
		c-0.453,0.25-0.879,0.459-1.207,0.751c-0.668,0.544-1.043,1.014-1.043,1.014s0.563-0.025,1.299-0.224
		C-23.812-57.851-23.365-57.904-22.915-58.04z"/>
	<path d="M71.149-39.906l0.075-0.501c0.024-0.344,0.121-0.654,0.186-0.976c0.083-0.311,0.171-0.617,0.282-0.898
		c0.123-0.274,0.229-0.553,0.373-0.79c0.062-0.128,0.136-0.238,0.209-0.345c0.072-0.109,0.135-0.228,0.211-0.321
		c0.148-0.189,0.284-0.378,0.423-0.523c0.133-0.155,0.261-0.274,0.365-0.383c0.214-0.206,0.352-0.313,0.352-0.313
		s-0.163-0.014-0.448,0.045c-0.138,0.038-0.317,0.071-0.502,0.165c-0.195,0.077-0.403,0.194-0.625,0.348
		c-0.21,0.166-0.459,0.339-0.66,0.599c-0.225,0.238-0.432,0.526-0.615,0.854c-0.106,0.155-0.167,0.342-0.254,0.518
		c-0.076,0.18-0.175,0.357-0.22,0.557c-0.112,0.389-0.231,0.789-0.272,1.2l-0.078,0.615c-0.01,0.205-0.006,0.407-0.008,0.607
		s0,0.399,0.007,0.595c0.022,0.192,0.045,0.382,0.066,0.568c0.046,0.37,0.085,0.731,0.178,1.052
		c0.078,0.326,0.166,0.629,0.248,0.905c0.068,0.281,0.188,0.516,0.274,0.729c0.086,0.213,0.175,0.394,0.243,0.542
		c0.144,0.294,0.235,0.456,0.235,0.456s0.005-0.201-0.003-0.541c-0.006-0.169-0.009-0.375-0.026-0.604
		c-0.009-0.231-0.041-0.483-0.041-0.765c-0.005-0.281-0.01-0.58-0.032-0.892c-0.032-0.313,0.007-0.641-0.008-0.974
		c-0.001-0.167-0.002-0.335-0.002-0.508c0.017-0.167,0.03-0.336,0.039-0.508L71.149-39.906z"/>
	<path d="M-134.901-52.274c0.377,0.044,0.799,0.064,1.26,0.123c0.458,0.07,0.955,0.146,1.479,0.225
		c0.523,0.103,1.073,0.211,1.643,0.322c1.134,0.265,2.347,0.531,3.548,0.879c0.604,0.154,1.208,0.314,1.798,0.497
		c0.593,0.171,1.176,0.343,1.741,0.506c1.132,0.338,2.189,0.654,3.094,0.924c1.813,0.553,3.048,0.883,3.048,0.883
		s-1.087-0.791-2.828-1.683c-0.435-0.223-0.907-0.463-1.415-0.69c-0.509-0.22-1.041-0.478-1.605-0.684
		c-0.563-0.214-1.142-0.456-1.744-0.639c-0.598-0.203-1.211-0.383-1.826-0.558c-0.614-0.174-1.242-0.293-1.852-0.434
		c-0.61-0.146-1.228-0.193-1.814-0.291c-0.591-0.08-1.169-0.095-1.712-0.132c-0.546-0.019-1.064,0.011-1.539,0.025
		c-0.477,0.022-0.913,0.11-1.296,0.161c-0.384,0.037-0.714,0.146-0.984,0.224c-0.54,0.16-0.84,0.264-0.84,0.264
		s0.32,0.019,0.866,0.029C-135.608-52.319-135.28-52.323-134.901-52.274z"/>
	<path d="M-108.539-50.379c0.474-0.218,0.979-0.456,1.469-0.728c0.492-0.267,0.968-0.581,1.419-0.863
		c0.449-0.285,0.862-0.579,1.208-0.857c0.348-0.271,0.634-0.522,0.832-0.703c0.197-0.183,0.306-0.302,0.306-0.302
		s-0.582-0.002-1.393,0.218c-0.41,0.1-0.879,0.25-1.372,0.439c-0.495,0.187-0.999,0.452-1.502,0.722
		c-0.25,0.142-0.5,0.282-0.74,0.433c-0.242,0.148-0.479,0.294-0.7,0.462c-0.438,0.344-0.836,0.691-1.162,1.013
		c-0.66,0.627-1.035,1.152-1.035,1.152s0.587-0.099,1.369-0.405C-109.446-49.942-109.002-50.142-108.539-50.379z"/>
	<path d="M-218.243-45.105c0.357-0.209,0.794-0.354,1.248-0.562c0.229-0.099,0.467-0.203,0.713-0.308
		c0.243-0.114,0.495-0.228,0.766-0.306c0.531-0.183,1.091-0.376,1.669-0.575c0.586-0.15,1.192-0.307,1.806-0.465
		c0.624-0.099,1.25-0.256,1.885-0.311c0.634-0.059,1.268-0.168,1.895-0.15c0.313-0.01,0.626-0.018,0.933-0.027
		c0.308,0.013,0.611,0.027,0.911,0.042c0.6,0.008,1.174,0.108,1.727,0.147c0.543,0.108,1.069,0.151,1.542,0.27
		c1.911,0.394,3.17,0.915,3.17,0.915s-0.267-0.241-0.778-0.582c-0.258-0.163-0.571-0.371-0.946-0.56
		c-0.372-0.199-0.797-0.412-1.276-0.592c-0.472-0.212-1.002-0.36-1.562-0.536c-0.567-0.116-1.161-0.312-1.791-0.359
		c-0.314-0.038-0.633-0.078-0.957-0.116c-0.324-0.02-0.653-0.027-0.985-0.029c-0.665-0.034-1.335,0.061-2.009,0.107
		c-0.671,0.072-1.331,0.257-1.985,0.379c-0.647,0.166-1.269,0.418-1.876,0.615c-0.598,0.236-1.156,0.536-1.691,0.793
		c-0.541,0.235-1.002,0.602-1.448,0.873c-0.439,0.291-0.849,0.536-1.175,0.834c-0.336,0.276-0.622,0.528-0.857,0.735
		c-0.47,0.411-0.729,0.657-0.729,0.657s0.314-0.139,0.848-0.403C-218.93-44.754-218.61-44.917-218.243-45.105z"/>
	<path d="M-192.4-42.68c0.259,0.242,0.568,0.479,0.904,0.716c0.166,0.127,0.338,0.257,0.518,0.377
		c0.18,0.118,0.364,0.239,0.546,0.358c0.738,0.475,1.515,0.879,2.138,1.119c0.616,0.249,1.083,0.332,1.083,0.332
		s-0.242-0.495-0.719-1.053c-0.464-0.581-1.169-1.207-1.937-1.707c-0.385-0.246-0.794-0.446-1.178-0.619
		c-0.397-0.151-0.778-0.255-1.108-0.318c-0.337-0.054-0.628-0.044-0.825-0.036c-0.198,0.012-0.312,0.033-0.312,0.033
		S-192.93-43.083-192.4-42.68z"/>
	<path d="M-306.932-2.748c0.265-0.282,0.565-0.604,0.892-0.953c0.319-0.356,0.675-0.725,1.061-1.101
		c0.384-0.381,0.777-0.792,1.209-1.182c0.425-0.399,0.864-0.812,1.324-1.206c0.454-0.406,0.918-0.813,1.404-1.184
		c0.466-0.403,0.949-0.778,1.43-1.134c0.476-0.371,0.956-0.71,1.417-1.05c0.469-0.324,0.922-0.636,1.352-0.935
		c0.437-0.286,0.85-0.557,1.232-0.807c1.535-0.984,2.605-1.594,2.605-1.594s-0.295,0.032-0.804,0.151
		c-0.506,0.124-1.23,0.322-2.071,0.663c-0.849,0.323-1.81,0.796-2.815,1.374c-0.491,0.314-1.021,0.594-1.517,0.972
		c-0.506,0.354-1.015,0.727-1.507,1.13c-0.498,0.397-0.97,0.837-1.433,1.271c-0.478,0.412-0.89,0.908-1.31,1.353
		c-0.428,0.433-0.787,0.925-1.14,1.373c-0.175,0.226-0.35,0.438-0.508,0.658c-0.15,0.228-0.296,0.447-0.435,0.659
		c-0.277,0.422-0.533,0.807-0.738,1.168c-0.202,0.363-0.367,0.69-0.505,0.956c-0.272,0.533-0.417,0.844-0.417,0.844
		s0.227-0.236,0.605-0.658C-307.412-2.19-307.182-2.446-306.932-2.748z"/>
	<path d="M-304.499,21.242c-0.245-0.405-0.504-0.828-0.762-1.274c-0.255-0.448-0.509-0.918-0.753-1.405
		c-0.261-0.474-0.487-0.982-0.71-1.494c-0.252-0.491-0.433-1.028-0.646-1.535c-0.204-0.514-0.372-1.035-0.553-1.535
		c-0.177-0.5-0.303-1.006-0.455-1.473c-0.154-0.469-0.25-0.93-0.362-1.353c-0.096-0.423-0.229-0.808-0.291-1.16
		c-0.067-0.352-0.138-0.66-0.195-0.915c-0.116-0.508-0.194-0.801-0.194-0.801s-0.024,0.3-0.046,0.832
		c-0.009,0.267-0.023,0.591-0.025,0.964c-0.016,0.375,0.033,0.79,0.066,1.248c0.039,0.457,0.061,0.961,0.17,1.471
		c0.1,0.514,0.163,1.074,0.321,1.619c0.162,0.541,0.274,1.131,0.491,1.682c0.214,0.549,0.394,1.131,0.653,1.665
		c0.25,0.538,0.506,1.072,0.796,1.567c0.265,0.518,0.593,0.969,0.889,1.418c0.297,0.451,0.63,0.838,0.933,1.215
		c0.317,0.363,0.618,0.701,0.92,0.979c0.288,0.297,0.576,0.534,0.83,0.743c0.252,0.209,0.486,0.369,0.677,0.5
		c0.386,0.259,0.621,0.367,0.621,0.367s-0.716-0.855-1.645-2.215C-304.006,22.02-304.235,21.627-304.499,21.242z"/>
	<path d="M-206.402,41.835c-0.731,0.333-1.5,0.713-2.258,1.124c-0.377,0.211-0.753,0.422-1.124,0.631
		c-0.368,0.215-0.728,0.439-1.082,0.635c-0.703,0.409-1.349,0.819-1.898,1.195c-0.549,0.375-1.002,0.705-1.317,0.943
		c-0.314,0.242-0.49,0.392-0.49,0.392s0.853-0.128,2.064-0.548c0.608-0.203,1.311-0.469,2.054-0.784
		c0.748-0.3,1.516-0.706,2.285-1.112c0.767-0.414,1.522-0.857,2.22-1.297c0.348-0.225,0.671-0.48,0.98-0.712
		c0.31-0.228,0.596-0.46,0.86-0.675c1.057-0.852,1.697-1.527,1.697-1.527s-0.846,0.245-2.019,0.773
		C-205.02,41.129-205.69,41.462-206.402,41.835z"/>
	<path d="M-112.876,48.321c-0.605,0.447-1.324,0.885-2.076,1.412c-0.381,0.254-0.771,0.533-1.185,0.795
		c-0.426,0.235-0.867,0.479-1.319,0.729c-0.451,0.252-0.914,0.509-1.388,0.772c-0.473,0.264-0.982,0.459-1.486,0.698
		c-0.506,0.229-1.021,0.462-1.542,0.698c-0.523,0.229-1.073,0.387-1.613,0.598c-0.543,0.195-1.091,0.394-1.641,0.593
		c-0.561,0.151-1.124,0.305-1.686,0.458c-1.116,0.362-2.261,0.55-3.38,0.791c-1.121,0.217-2.236,0.358-3.313,0.514
		c-1.082,0.068-2.126,0.238-3.122,0.251c-0.499,0.025-0.983,0.046-1.452,0.067c-0.47,0.003-0.922,0.006-1.359,0.01
		c-0.872,0.02-1.669-0.039-2.38-0.047c-0.708-0.054-1.329-0.068-1.837-0.121c-0.509-0.047-0.911-0.078-1.184-0.115
		c-0.273-0.034-0.419-0.053-0.419-0.053s0.141,0.047,0.406,0.131c0.267,0.086,0.66,0.206,1.163,0.326
		c0.503,0.135,1.119,0.252,1.828,0.393c0.71,0.103,1.512,0.27,2.394,0.33c0.44,0.043,0.9,0.086,1.375,0.131
		c0.476,0.018,0.969,0.033,1.476,0.049c1.014,0.059,2.083-0.021,3.19-0.056c0.553-0.04,1.114-0.112,1.682-0.167
		c0.568-0.065,1.146-0.099,1.719-0.23c1.149-0.229,2.327-0.405,3.478-0.76c0.576-0.166,1.152-0.331,1.727-0.497
		c0.564-0.212,1.126-0.423,1.684-0.632c0.554-0.219,1.114-0.402,1.645-0.666c0.528-0.266,1.051-0.529,1.564-0.787
		c0.507-0.273,1.028-0.481,1.498-0.795c0.472-0.306,0.934-0.605,1.382-0.896c0.447-0.291,0.883-0.574,1.304-0.85
		c0.404-0.311,0.782-0.635,1.151-0.935c0.732-0.605,1.414-1.14,1.981-1.673c0.546-0.569,1.02-1.064,1.411-1.473
		c0.768-0.825,1.208-1.3,1.208-1.3s-0.493,0.389-1.354,1.065C-111.772,47.424-112.285,47.843-112.876,48.321z"/>
	<path d="M-97.201,47.429c-0.337,0.028-0.741-0.046-1.153-0.021c-0.207,0.008-0.419,0.019-0.638,0
		c-0.217-0.012-0.438-0.009-0.658-0.008c-0.439,0.021-0.882-0.031-1.303,0.001c-0.417-0.023-0.817,0.007-1.162,0.013
		c-0.347,0.007-0.642,0.034-0.852,0.047c-0.215,0.021-0.339,0.035-0.339,0.035s0.092,0.104,0.272,0.246
		c0.18,0.148,0.448,0.333,0.783,0.5c0.333,0.193,0.739,0.321,1.179,0.459c0.445,0.081,0.925,0.193,1.41,0.178
		c0.242-0.008,0.484-0.016,0.722-0.037c0.238-0.006,0.47-0.064,0.694-0.129c0.223-0.061,0.437-0.128,0.637-0.197
		c0.202-0.061,0.387-0.146,0.551-0.256c0.668-0.388,1.048-0.764,1.048-0.764S-96.525,47.399-97.201,47.429z"/>
	<path d="M11.675,47.807c-0.105-0.1-0.221-0.209-0.352-0.311c-0.509-0.467-1.209-1.023-1.947-1.516
		c-0.74-0.486-1.521-0.904-2.15-1.131c-0.621-0.248-1.09-0.313-1.09-0.313s0.255,0.484,0.734,1.037
		c0.469,0.569,1.166,1.199,1.926,1.705c0.38,0.25,0.777,0.47,1.163,0.644c0.387,0.171,0.766,0.295,1.102,0.358
		c0.336,0.07,0.634,0.074,0.838,0.048c0.215-0.042,0.317-0.095,0.317-0.095s-0.095-0.07-0.263-0.191
		C11.872,47.975,11.781,47.887,11.675,47.807z"/>
	<path d="M40.118,47.059c-0.376,0.236-0.825,0.443-1.309,0.682c-0.485,0.23-0.997,0.51-1.55,0.768
		c-0.563,0.228-1.156,0.465-1.76,0.734c-0.611,0.237-1.264,0.404-1.904,0.646c-0.652,0.201-1.326,0.336-1.992,0.513
		c-0.676,0.104-1.348,0.259-2.016,0.317c-0.669,0.041-1.327,0.15-1.967,0.125c-0.64,0.021-1.258-0.008-1.846-0.045
		c-0.297-0.002-0.578-0.063-0.855-0.088c-0.275-0.035-0.547-0.046-0.8-0.102c-0.511-0.094-0.981-0.172-1.395-0.279
		c-0.417-0.092-0.772-0.207-1.073-0.289c-0.29-0.103-0.528-0.168-0.684-0.231c-0.157-0.063-0.241-0.095-0.241-0.095
		s0.287,0.25,0.841,0.6c0.281,0.156,0.617,0.378,1.025,0.555c0.402,0.203,0.869,0.39,1.385,0.568
		c0.516,0.17,1.084,0.342,1.692,0.455c0.608,0.112,1.255,0.235,1.929,0.251c0.673,0.065,1.369,0.036,2.076-0.002
		c0.707-0.046,1.418-0.188,2.132-0.284c0.7-0.197,1.407-0.36,2.087-0.588c0.674-0.253,1.335-0.515,1.962-0.799
		c0.618-0.314,1.206-0.645,1.764-0.951c0.55-0.325,1.042-0.699,1.504-1.021c0.464-0.317,0.88-0.625,1.224-0.948
		c0.345-0.313,0.648-0.587,0.896-0.809c0.492-0.455,0.764-0.727,0.764-0.727s-0.329,0.168-0.889,0.476
		C40.841,46.648,40.504,46.838,40.118,47.059z"/>
	<g>
		<g>
			<path d="M75.539-4.004c-2.938-7.184-8.337-11.834-12.708-13.556c1.486-1.073,3.716-3.146,4.888-6.515
				c1.153-3.313,1.01-7.094-0.427-11.24c-1.125-3.244-1.252-5.843-0.39-7.942c3.164-7.699-9.495-23.774-40.428-23.774
				c5.504,0,25.5,10.625,19.604,29.522c-0.691,0.804-6.398,7.192-12.893,7.192c-2.936,0-5.64-1.313-8.037-3.902
				c-0.767-0.829-1.56-1.712-2.384-2.632C15.711-44.709,6.052-55.471-9.253-55.471c-6.59,0-13.791,2.026-21.406,6.024
				c-1.312-0.776-7.225-4.007-14.943-4.007c-8.946,0-16.758,4.267-23.225,12.683c-2.148-1.832-11.718-9.332-24.261-9.332
				c-7.943,0-15.591,2.956-22.737,8.786c-1.968-1.101-12.66-6.683-27.036-6.683c-14.43,0-27.906,5.422-40.062,16.116
				c-1.997-1.991-11.478-10.798-22.972-10.798c-6.876,0-13.131,3.19-18.598,9.484c-2.222-1.283-13.587-7.456-26.805-7.456
				c-17.389,0-31.067,10.676-39.571,30.876c-1.932,0.855-14.318,6.707-15.486,16.465c-0.623,5.207,2.074,10.516,8.015,15.787
				c-0.039,1.421,0.037,6.011,2.406,9.155c2.278,3.024,5.981,3.781,10.916,2.189c1.346,1.58,7.635,8.408,15.641,8.408
				c5.684,0,10.877-3.454,15.444-10.268c2.357,1.963,13.1,10.217,27.137,10.217c8.876,0,17.405-3.244,25.355-9.642
				c1.521,1.302,7.651,6.092,15.55,6.092c4.803,0,9.339-1.793,13.49-5.329c2.267,2.947,14.608,17.759,33.48,17.759
				c9.795,0,19.835-3.945,29.847-11.728c1.119,0.92,4.781,3.52,10.419,3.52c5.339,0,10.874-2.323,16.458-6.906
				c1.655,1.439,8.744,7.032,18.868,7.032c8.974,0,17.688-4.393,25.912-13.059c2.078,2.351,11.733,12.395,24.954,12.395
				c6.113,0,12.184-2.127,18.047-6.323c1.636,2.206,8.829,10.995,19.603,10.995c7.613,0,15.249-4.435,22.7-13.183
				c0.782,0.188,2.884,0.622,5.669,0.622c5.768,0,16.238-1.999,21.559-15.39C79.125,8.943,77.559,0.935,75.539-4.004z
				 M74.022,18.388c-4.779,12.029-13.767,14.555-20.464,14.555c-3.333,0-5.697-0.662-5.722-0.669l-0.324-0.092l-0.238,0.283
				c-7.29,8.651-14.721,13.038-22.085,13.038c-11.469,0-18.935-10.829-19.008-10.938l-0.335-0.493l-0.449,0.33
				c-5.807,4.267-11.815,6.43-17.857,6.43c-14.372,0-24.399-12.311-24.499-12.434l-0.404-0.505l-0.434,0.466
				c-8.119,8.717-16.708,13.137-25.529,13.137c-10.936,0-18.406-6.972-18.48-7.044l-0.352-0.334l-0.367,0.309
				c-5.498,4.607-10.925,6.943-16.127,6.943c-6.259,0-9.988-3.481-10.024-3.516l-0.342-0.325l-0.363,0.286
				c-9.928,7.805-19.866,11.763-29.536,11.763c-20.273,0-32.807-17.564-32.932-17.743l-0.366-0.521l-0.455,0.403
				c-4.059,3.604-8.505,5.432-13.218,5.432c-8.522,0-15.1-6.04-15.165-6.101l-0.347-0.324l-0.362,0.297
				c-7.847,6.422-16.269,9.678-25.032,9.678c-15.431,0-26.774-10.23-26.887-10.335l-0.475-0.435l-0.369,0.568
				c-4.411,6.802-9.408,10.253-14.851,10.253c-8.336,0-14.96-8.187-15.025-8.271l-0.252-0.315l-0.348,0.118
				c-4.606,1.566-8.024,1.01-10.03-1.645c-2.412-3.195-2.08-8.41-2.076-8.462l0.029-0.42l-0.281-0.245
				c-5.73-4.999-8.352-9.914-7.791-14.607c1.132-9.474,14.776-15.324,14.914-15.382l0.232-0.099l0.111-0.267
				c8.392-20.124,21.378-30.329,38.597-30.329c14.376,0,26.522,7.451,26.643,7.527l0.388,0.24l0.313-0.368
				c5.304-6.255,11.38-9.428,18.06-9.428c12.217,0,22.443,10.706,22.544,10.813l0.367,0.389l0.393-0.349
				c12.043-10.731,25.41-16.172,39.729-16.172c15.567,0,26.708,6.647,26.818,6.714l0.319,0.194l0.295-0.244
				c7.022-5.817,14.539-8.769,22.341-8.769c13.785,0,23.87,9.328,23.97,9.422l0.444,0.418l0.377-0.504
				c6.298-8.419,13.934-12.686,22.694-12.686c8.274,0,14.579,3.959,14.642,3.999l0.259,0.164l0.267-0.142
				c7.559-4.007,14.686-6.039,21.183-6.039c14.832,0,24.29,10.539,31.196,18.234c0.829,0.924,1.627,1.812,2.397,2.646
				c2.627,2.837,5.603,4.274,8.845,4.274c7.394,0,13.563-7.392,13.821-7.706l0.072-0.088l0.045-0.111
				c2.226-1.913,4.726-19.038-11.649-28.288c-0.85-0.48,30.125,4,30.5,19.625c0.064,2.673-1.875,5,0.197,10.667
				c1.366,3.736,1.447,7.148,0.432,10.075c-1.61,4.646-5.65,6.614-5.691,6.633l-1.932,0.922l2.034,0.493
				c4.283,1.041,10.315,5.639,13.436,13.27C76.349,1.298,77.816,8.838,74.022,18.388z M-4.393-60.275
				c0.425,0.074,0.877,0.154,1.354,0.238c0.472,0.119,0.967,0.246,1.483,0.377c1.033,0.264,2.151,0.547,3.335,0.826
				c1.162,0.387,2.387,0.795,3.654,1.217C5.75-57.512,6.069-57.406,6.39-57.3c0.313,0.136,0.63,0.275,0.946,0.414
				c0.637,0.274,1.279,0.551,1.929,0.83c0.324,0.138,0.65,0.275,0.978,0.415c0.321,0.153,0.635,0.337,0.953,0.505
				c0.636,0.343,1.273,0.687,1.911,1.031c0.651,0.31,1.259,0.726,1.87,1.124c0.613,0.398,1.223,0.795,1.828,1.188
				c0.586,0.433,1.151,0.891,1.724,1.321c0.567,0.438,1.143,0.849,1.651,1.349c0.523,0.475,1.039,0.942,1.544,1.399
				c0.503,0.46,0.949,0.977,1.409,1.444c0.459,0.471,0.899,0.938,1.291,1.433c0.403,0.482,0.793,0.948,1.167,1.396
				c0.685,0.965,1.362,1.804,1.874,2.638c0.55,0.801,0.959,1.56,1.316,2.173c0.321,0.637,0.6,1.124,0.752,1.479
				c0.168,0.349,0.244,0.544,0.244,0.544s-0.225-0.819-0.794-2.17c-0.31-0.655-0.662-1.474-1.153-2.347
				c-0.451-0.908-1.064-1.84-1.718-2.877c-0.721-0.962-1.444-2.084-2.366-3.077c-0.452-0.509-0.891-1.068-1.387-1.571
				c-0.504-0.493-1.02-0.995-1.543-1.508c-0.513-0.534-1.091-0.977-1.663-1.45c-0.575-0.466-1.149-0.956-1.751-1.404
				c-0.619-0.412-1.242-0.827-1.868-1.243c-0.626-0.418-1.248-0.854-1.913-1.182c-0.657-0.346-1.314-0.69-1.969-1.035
				c-0.328-0.168-0.651-0.352-0.982-0.506c-0.335-0.137-0.67-0.273-1.004-0.411c-0.667-0.269-1.33-0.536-1.984-0.8
				c-0.328-0.131-0.653-0.26-0.977-0.387c-0.33-0.097-0.658-0.193-0.983-0.289c-1.302-0.376-2.56-0.741-3.757-1.041
				c-1.211-0.222-2.357-0.412-3.413-0.585c-0.528-0.086-1.034-0.167-1.515-0.245c-0.485-0.027-0.946-0.054-1.379-0.078
				c-0.863-0.049-1.616-0.092-2.236-0.126c-1.238-0.064-1.945-0.081-1.945-0.081s0.701,0.146,1.925,0.367
				C-5.987-60.554-5.245-60.425-4.393-60.275z M-22.98-57.84c0.225-0.068,0.459-0.129,0.7-0.18c0.241-0.055,0.481-0.126,0.723-0.192
				c0.238-0.085,0.484-0.129,0.722-0.198c0.239-0.066,0.473-0.14,0.699-0.217c0.458-0.119,0.883-0.283,1.251-0.41
				c0.37-0.129,0.678-0.262,0.896-0.353c0.219-0.1,0.347-0.159,0.347-0.159s-0.515-0.249-1.305-0.332
				c-0.396-0.065-0.854-0.055-1.348-0.039c-0.489,0.057-1.014,0.115-1.525,0.264c-0.509,0.166-1.023,0.302-1.476,0.562
				c-0.453,0.249-0.879,0.46-1.207,0.751c-0.668,0.544-1.043,1.014-1.043,1.014s0.563-0.025,1.299-0.223
				C-23.878-57.651-23.43-57.705-22.98-57.84z M-134.955-52.073c0.378,0.045,0.8,0.063,1.259,0.123
				c0.458,0.069,0.955,0.146,1.48,0.224c0.523,0.104,1.073,0.212,1.643,0.323c1.135,0.265,2.346,0.53,3.548,0.878
				c0.604,0.155,1.208,0.314,1.798,0.498c0.593,0.172,1.176,0.342,1.741,0.507c1.132,0.338,2.188,0.654,3.094,0.925
				c1.813,0.553,3.047,0.883,3.047,0.883s-1.088-0.791-2.828-1.685c-0.435-0.222-0.907-0.462-1.415-0.688
				c-0.509-0.222-1.04-0.479-1.605-0.686c-0.563-0.214-1.141-0.455-1.743-0.639c-0.598-0.203-1.211-0.383-1.826-0.559
				c-0.615-0.174-1.241-0.292-1.852-0.433c-0.611-0.146-1.228-0.194-1.814-0.292c-0.591-0.08-1.169-0.095-1.712-0.133
				c-0.546-0.018-1.064,0.012-1.539,0.027c-0.476,0.021-0.913,0.108-1.295,0.16c-0.384,0.037-0.714,0.146-0.984,0.225
				c-0.54,0.159-0.841,0.263-0.841,0.263s0.32,0.02,0.866,0.03C-135.661-52.118-135.334-52.121-134.955-52.073z M-108.596-50.177
				c0.474-0.219,0.979-0.456,1.47-0.729c0.491-0.268,0.968-0.58,1.418-0.863c0.45-0.285,0.863-0.578,1.209-0.857
				c0.348-0.271,0.633-0.522,0.831-0.703c0.197-0.184,0.306-0.301,0.306-0.301s-0.581-0.004-1.393,0.218
				c-0.409,0.099-0.878,0.249-1.372,0.438c-0.494,0.188-0.999,0.452-1.502,0.723c-0.249,0.143-0.499,0.281-0.739,0.433
				c-0.242,0.147-0.479,0.294-0.7,0.462c-0.438,0.345-0.836,0.69-1.162,1.014c-0.66,0.627-1.035,1.15-1.035,1.15
				s0.587-0.097,1.369-0.404C-109.502-49.74-109.058-49.939-108.596-50.177z M-218.288-44.902c0.356-0.21,0.793-0.354,1.248-0.563
				c0.229-0.099,0.466-0.202,0.713-0.309c0.244-0.113,0.496-0.227,0.766-0.306c0.531-0.184,1.09-0.375,1.669-0.575
				c0.586-0.151,1.191-0.308,1.807-0.466c0.623-0.098,1.249-0.255,1.884-0.31c0.634-0.059,1.268-0.168,1.896-0.149
				c0.313-0.01,0.625-0.019,0.933-0.028c0.308,0.014,0.611,0.028,0.911,0.041c0.6,0.009,1.174,0.109,1.727,0.148
				c0.542,0.109,1.069,0.151,1.542,0.271c1.911,0.394,3.169,0.915,3.169,0.915s-0.267-0.242-0.778-0.583
				c-0.257-0.162-0.571-0.37-0.945-0.559c-0.372-0.199-0.798-0.412-1.276-0.593c-0.472-0.214-1.002-0.359-1.562-0.536
				c-0.566-0.116-1.161-0.312-1.791-0.359c-0.314-0.038-0.633-0.077-0.956-0.117c-0.324-0.02-0.653-0.025-0.985-0.028
				c-0.664-0.033-1.335,0.061-2.008,0.107c-0.671,0.072-1.331,0.256-1.985,0.379c-0.648,0.165-1.269,0.418-1.876,0.615
				c-0.598,0.236-1.156,0.537-1.69,0.792c-0.541,0.235-1.002,0.603-1.448,0.874c-0.439,0.291-0.848,0.535-1.175,0.834
				c-0.336,0.275-0.622,0.527-0.858,0.734c-0.47,0.412-0.729,0.658-0.729,0.658s0.314-0.14,0.848-0.403
				C-218.977-44.552-218.656-44.715-218.288-44.902z M-192.449-42.477c0.259,0.242,0.569,0.478,0.904,0.715
				c0.167,0.129,0.339,0.26,0.519,0.379c0.18,0.118,0.363,0.238,0.546,0.358c0.738,0.475,1.514,0.879,2.137,1.119
				c0.616,0.249,1.083,0.332,1.083,0.332s-0.242-0.494-0.72-1.053c-0.463-0.582-1.168-1.208-1.936-1.708
				c-0.385-0.246-0.794-0.446-1.178-0.618c-0.397-0.151-0.778-0.256-1.108-0.318c-0.336-0.054-0.627-0.044-0.825-0.035
				c-0.199,0.011-0.313,0.033-0.313,0.033S-192.979-42.879-192.449-42.477z M-306.969-2.534c0.265-0.284,0.565-0.604,0.892-0.954
				c0.319-0.356,0.675-0.726,1.062-1.102c0.384-0.381,0.777-0.792,1.209-1.182c0.425-0.4,0.864-0.813,1.324-1.207
				c0.455-0.405,0.917-0.813,1.403-1.184c0.466-0.404,0.949-0.777,1.431-1.135c0.476-0.37,0.956-0.71,1.417-1.049
				c0.469-0.325,0.922-0.637,1.352-0.936c0.437-0.286,0.85-0.557,1.231-0.807c1.536-0.984,2.606-1.595,2.606-1.595
				s-0.295,0.032-0.804,0.151c-0.506,0.124-1.23,0.321-2.071,0.664c-0.848,0.32-1.81,0.795-2.815,1.373
				c-0.491,0.313-1.021,0.594-1.517,0.972c-0.506,0.354-1.015,0.728-1.508,1.132c-0.497,0.396-0.969,0.838-1.432,1.271
				c-0.478,0.412-0.889,0.909-1.309,1.353c-0.428,0.434-0.788,0.928-1.141,1.374c-0.174,0.226-0.349,0.439-0.508,0.657
				c-0.15,0.229-0.295,0.448-0.434,0.66c-0.278,0.422-0.533,0.807-0.738,1.169c-0.202,0.364-0.368,0.689-0.505,0.956
				c-0.273,0.534-0.417,0.845-0.417,0.845s0.227-0.235,0.604-0.659C-307.449-1.977-307.22-2.232-306.969-2.534z M-304.536,21.461
				c-0.245-0.405-0.505-0.829-0.761-1.275c-0.256-0.449-0.51-0.918-0.753-1.405c-0.261-0.474-0.487-0.982-0.71-1.494
				c-0.252-0.492-0.433-1.029-0.646-1.536c-0.204-0.514-0.372-1.035-0.554-1.535c-0.177-0.5-0.302-1.006-0.455-1.475
				c-0.154-0.469-0.25-0.93-0.362-1.351c-0.095-0.424-0.229-0.809-0.29-1.161c-0.067-0.353-0.139-0.66-0.195-0.915
				c-0.116-0.509-0.194-0.802-0.194-0.802s-0.024,0.301-0.046,0.832c-0.009,0.267-0.023,0.592-0.025,0.965
				c-0.016,0.375,0.033,0.789,0.066,1.246c0.04,0.457,0.062,0.962,0.17,1.472c0.099,0.515,0.163,1.074,0.321,1.619
				c0.162,0.542,0.274,1.133,0.49,1.683c0.214,0.55,0.394,1.131,0.652,1.666c0.251,0.537,0.507,1.071,0.796,1.567
				c0.265,0.517,0.592,0.969,0.889,1.419c0.296,0.45,0.63,0.839,0.933,1.215c0.317,0.363,0.617,0.701,0.92,0.979
				c0.289,0.296,0.577,0.533,0.83,0.742c0.252,0.21,0.486,0.371,0.677,0.502c0.386,0.259,0.621,0.366,0.621,0.366
				s-0.715-0.855-1.644-2.215C-304.044,22.239-304.272,21.846-304.536,21.461z M-206.448,42.058c-0.731,0.333-1.5,0.713-2.258,1.123
				c-0.377,0.212-0.753,0.424-1.124,0.632c-0.369,0.215-0.727,0.439-1.082,0.636c-0.703,0.409-1.35,0.819-1.898,1.197
				c-0.548,0.373-1.002,0.702-1.317,0.941c-0.314,0.243-0.489,0.394-0.489,0.394s0.852-0.129,2.064-0.55
				c0.609-0.202,1.311-0.469,2.053-0.784c0.748-0.3,1.517-0.707,2.285-1.113c0.766-0.414,1.521-0.855,2.219-1.297
				c0.349-0.224,0.671-0.48,0.98-0.712c0.311-0.228,0.597-0.46,0.86-0.675c1.056-0.852,1.697-1.528,1.697-1.528
				s-0.845,0.246-2.019,0.774C-205.068,41.351-205.737,41.685-206.448,42.058z M-112.932,48.545
				c-0.604,0.448-1.323,0.886-2.075,1.412c-0.381,0.254-0.771,0.533-1.185,0.794c-0.426,0.236-0.865,0.48-1.318,0.731
				c-0.451,0.252-0.914,0.509-1.388,0.772c-0.473,0.264-0.983,0.459-1.486,0.697c-0.507,0.229-1.021,0.463-1.542,0.699
				c-0.523,0.229-1.073,0.387-1.613,0.598c-0.544,0.196-1.092,0.394-1.642,0.592c-0.56,0.153-1.123,0.307-1.686,0.459
				c-1.115,0.363-2.261,0.551-3.379,0.79c-1.122,0.22-2.236,0.359-3.313,0.515c-1.082,0.069-2.126,0.239-3.122,0.253
				c-0.498,0.023-0.983,0.045-1.452,0.066c-0.469,0.003-0.922,0.006-1.358,0.01c-0.872,0.019-1.67-0.04-2.381-0.047
				c-0.707-0.055-1.329-0.067-1.837-0.122c-0.509-0.047-0.911-0.077-1.184-0.114c-0.273-0.034-0.419-0.054-0.419-0.054
				s0.142,0.047,0.407,0.132c0.267,0.085,0.659,0.205,1.163,0.326c0.503,0.135,1.119,0.253,1.827,0.394
				c0.71,0.102,1.512,0.268,2.394,0.329c0.44,0.042,0.9,0.087,1.375,0.131c0.477,0.017,0.97,0.033,1.476,0.049
				c1.014,0.059,2.083-0.021,3.19-0.056c0.553-0.04,1.113-0.111,1.682-0.167c0.568-0.064,1.146-0.1,1.72-0.231
				c1.149-0.229,2.326-0.405,3.476-0.759c0.577-0.166,1.153-0.332,1.727-0.497c0.564-0.212,1.126-0.423,1.683-0.633
				c0.555-0.219,1.115-0.401,1.645-0.665c0.528-0.266,1.05-0.529,1.563-0.787c0.508-0.274,1.028-0.481,1.498-0.796
				c0.472-0.306,0.933-0.604,1.382-0.896c0.447-0.292,0.883-0.574,1.304-0.85c0.404-0.312,0.783-0.636,1.152-0.935
				c0.731-0.605,1.413-1.142,1.979-1.674c0.545-0.569,1.021-1.065,1.412-1.474c0.768-0.825,1.206-1.298,1.206-1.298
				s-0.492,0.387-1.354,1.064C-111.828,47.649-112.343,48.068-112.932,48.545z M-97.26,47.655c-0.337,0.027-0.741-0.047-1.152-0.021
				c-0.207,0.008-0.419,0.018-0.638,0c-0.218-0.013-0.438-0.01-0.658-0.008c-0.44,0.02-0.882-0.031-1.303,0
				c-0.416-0.023-0.817,0.008-1.162,0.013c-0.347,0.007-0.642,0.035-0.851,0.046c-0.216,0.023-0.34,0.036-0.34,0.036
				s0.093,0.104,0.272,0.246c0.181,0.149,0.448,0.333,0.783,0.503c0.332,0.191,0.739,0.319,1.18,0.458
				c0.444,0.08,0.924,0.191,1.408,0.177c0.242-0.009,0.485-0.015,0.723-0.037c0.238-0.004,0.471-0.065,0.693-0.129
				c0.224-0.06,0.437-0.128,0.637-0.196c0.202-0.061,0.387-0.146,0.552-0.257c0.667-0.389,1.048-0.765,1.048-0.765
				S-96.583,47.623-97.26,47.655z M11.607,48.031c-0.105-0.1-0.222-0.208-0.352-0.312c-0.509-0.466-1.208-1.023-1.947-1.515
				c-0.74-0.487-1.521-0.904-2.149-1.132c-0.621-0.246-1.091-0.312-1.091-0.312s0.255,0.485,0.734,1.037
				c0.47,0.57,1.165,1.2,1.925,1.706c0.381,0.25,0.777,0.47,1.164,0.644c0.386,0.171,0.766,0.295,1.102,0.358
				c0.336,0.071,0.634,0.072,0.838,0.049c0.215-0.044,0.317-0.096,0.317-0.096s-0.096-0.07-0.265-0.192
				C11.804,48.198,11.712,48.112,11.607,48.031z M40.047,47.281c-0.377,0.237-0.826,0.445-1.309,0.684
				c-0.485,0.229-0.997,0.51-1.55,0.767c-0.563,0.229-1.155,0.466-1.759,0.735c-0.612,0.237-1.263,0.405-1.905,0.647
				c-0.651,0.201-1.325,0.335-1.991,0.512c-0.675,0.105-1.348,0.259-2.016,0.318c-0.669,0.04-1.326,0.15-1.966,0.124
				c-0.641,0.021-1.258-0.007-1.847-0.043c-0.296-0.002-0.577-0.063-0.854-0.089c-0.275-0.036-0.547-0.046-0.801-0.103
				c-0.51-0.094-0.981-0.172-1.394-0.279c-0.417-0.091-0.772-0.207-1.072-0.288c-0.292-0.104-0.529-0.167-0.685-0.232
				c-0.157-0.062-0.241-0.096-0.241-0.096s0.287,0.251,0.841,0.601c0.28,0.157,0.617,0.379,1.025,0.556
				c0.402,0.202,0.868,0.39,1.385,0.567c0.517,0.171,1.084,0.342,1.691,0.455c0.609,0.113,1.255,0.236,1.929,0.251
				c0.673,0.065,1.369,0.036,2.076-0.001c0.707-0.046,1.418-0.188,2.132-0.285c0.7-0.196,1.407-0.36,2.087-0.587
				c0.674-0.253,1.334-0.516,1.961-0.8c0.619-0.315,1.207-0.645,1.764-0.949c0.551-0.326,1.042-0.702,1.504-1.023
				c0.464-0.318,0.88-0.623,1.223-0.949c0.346-0.312,0.648-0.585,0.897-0.808c0.491-0.455,0.764-0.726,0.764-0.726
				s-0.329,0.166-0.89,0.475C40.77,46.872,40.433,47.063,40.047,47.281z"/>
		</g>
	</g>
</g>
</svg>
