<?xml version="1.0" encoding="utf-8"?>
<!-- Generator: Adobe Illustrator 16.2.0, SVG Export Plug-In . SVG Version: 6.00 Build 0)  -->
<!DOCTYPE svg PUBLIC "-//W3C//DTD SVG 1.1//EN" "http://www.w3.org/Graphics/SVG/1.1/DTD/svg11.dtd">
<svg version="1.1" id="OBJECTS" xmlns="http://www.w3.org/2000/svg" xmlns:xlink="http://www.w3.org/1999/xlink" x="0px" y="0px"
	 width="644.5px" height="161.5px" viewBox="-309.531 -67.031 644.5 161.5" enable-background="new -309.531 -67.031 644.5 161.5"
	 xml:space="preserve">
<g>
	<g>
		<path d="M329.254,2.416c1.024-7.041-3.41-14.223-13.181-21.351c0.063-1.922-0.061-8.13-3.957-12.382
			c-3.747-4.09-9.835-5.114-17.95-2.961c-2.214-2.138-12.555-11.372-25.72-11.372c-9.347,0-17.888,4.671-25.397,13.887
			c-3.875-2.655-21.541-13.818-44.624-13.818c-14.597,0-28.621,4.388-41.695,13.04c-2.5-1.761-12.581-8.238-25.571-8.238
			c-7.897,0-15.356,2.424-22.183,7.207C105.248-37.558,84.953-57.59,53.92-57.59c-16.107,0-32.617,5.336-49.081,15.861
			c-1.841-1.244-7.861-4.761-17.132-4.761c-8.78,0-17.883,3.142-27.064,9.341c-2.723-1.947-14.379-9.512-31.028-9.512
			c-14.755,0-29.086,5.941-42.61,17.661c-3.417-3.179-19.293-16.763-41.034-16.763c-10.054,0-20.035,2.877-29.677,8.553
			c-2.689-2.984-14.52-14.871-32.235-14.871c-12.519,0-25.075,5.998-37.328,17.829c-1.288-0.255-4.743-0.842-9.322-0.842
			c-9.485,0-26.703,2.704-35.452,20.813c-6.592,13.646-4.016,24.475-0.695,31.155c4.83,9.715,13.71,16.003,20.897,18.332
			c-2.443,1.451-6.11,4.255-8.038,8.81c-1.896,4.48-1.66,9.595,0.703,15.201c1.85,4.39,2.059,7.902,0.64,10.742
			c-2.647,5.3-10.595,7.284-16.98,8.879c-1.514,0.378-2.944,0.734-4.2,1.11l-2.784,0.835l2.708,1.055
			c0.338,0.134,8.413,3.235,18.839,3.235c0.001,0,0.001,0,0.001,0c11.607,0,27.374-3.979,36.658-22.888
			c1.138-1.088,10.522-9.727,21.202-9.727c4.827,0,9.273,1.775,13.216,5.277c1.261,1.121,2.565,2.315,3.92,3.559
			c11.598,10.628,27.483,25.185,52.649,25.185c10.837,0,22.678-2.741,35.202-8.148c2.157,1.051,11.88,5.42,24.573,5.42
			c14.711,0,27.556-5.771,38.19-17.152c3.533,2.478,19.27,12.621,39.895,12.621c13.063,0,25.639-3.998,37.39-11.884
			c3.236,1.488,20.818,9.039,44.459,9.039c23.729,0,45.891-7.333,65.879-21.797c3.282,2.693,18.874,14.603,37.775,14.603
			c11.308,0,21.593-4.314,30.581-12.827c3.654,1.737,22.344,10.086,44.08,10.086c28.595,0,51.088-14.439,65.07-41.758
			C306.965,23.526,327.334,15.614,329.254,2.416z M302.751,22.928l-0.382,0.133l-0.183,0.361
			c-13.8,27.217-35.154,41.019-63.469,41.019c-23.642,0-43.614-10.077-43.813-10.181l-0.638-0.325l-0.513,0.498
			c-8.723,8.459-18.715,12.75-29.697,12.75c-20.091,0-36.906-14.479-37.073-14.624l-0.604-0.526l-0.646,0.472
			C105.931,67.017,83.95,74.376,60.403,74.376c-25.599,0-43.919-8.991-44.101-9.081l-0.525-0.263l-0.484,0.331
			C3.744,73.231-8.617,77.221-21.446,77.221c-22.669,0-39.251-12.615-39.416-12.742l-0.73-0.564l-0.62,0.682
			c-10.356,11.386-22.912,17.156-37.318,17.156c-13.607,0-23.975-5.354-24.078-5.409l-0.425-0.222l-0.439,0.191
			c-12.429,5.419-24.149,8.167-34.833,8.167c-24.39,0-39.943-14.253-51.299-24.659c-1.363-1.25-2.675-2.451-3.943-3.578
			c-4.32-3.838-9.212-5.781-14.543-5.781c-12.159,0-22.304,9.997-22.729,10.422l-0.119,0.119l-0.074,0.15
			c-8.821,18.119-23.869,21.922-34.939,21.922c-6.224,0-11.666-1.18-14.92-2.083c0.276-0.069,0.557-0.14,0.84-0.21
			c6.783-1.695,15.225-3.802,18.285-9.926c1.671-3.345,1.474-7.522-0.587-12.413c-2.142-5.083-2.381-9.667-0.711-13.626
			c2.649-6.283,9.292-8.946,9.359-8.972l3.177-1.245l-3.345-0.668c-7.044-1.407-16.963-7.625-22.095-17.946
			c-3.122-6.281-5.534-16.478,0.705-29.393c7.859-16.269,22.638-19.684,33.652-19.684c5.481,0,9.369,0.895,9.408,0.903l0.534,0.125
			l0.393-0.384c11.988-11.7,24.207-17.633,36.316-17.633c18.86,0,31.136,14.646,31.258,14.794l0.549,0.667l0.739-0.446
			c9.549-5.771,19.43-8.696,29.366-8.696c23.633,0,40.123,16.648,40.287,16.815l0.665,0.684l0.713-0.63
			c13.351-11.789,27.475-17.767,41.98-17.767c17.983,0,30.268,9.429,30.39,9.525l0.578,0.451l0.604-0.417
			c9.042-6.231,17.965-9.39,26.521-9.39c10.292,0,16.424,4.708,16.483,4.755l0.563,0.44l0.598-0.387
			C21.677-50.236,38.018-55.588,53.92-55.588c33.338,0,53.949,23.754,54.153,23.995l0.602,0.705l0.749-0.546
			c6.674-4.873,13.986-7.345,21.734-7.345c14.014,0,24.83,8.168,24.938,8.251l0.57,0.438l0.596-0.402
			c12.904-8.684,26.753-13.088,41.162-13.088c25.376,0,44.028,13.837,44.214,13.977l0.78,0.589l0.606-0.769
			c7.254-9.199,15.47-13.865,24.421-13.865c13.707,0,24.6,11.07,24.708,11.185l0.415,0.427l0.572-0.161
			c7.574-2.117,13.196-1.365,16.493,2.225c3.967,4.321,3.421,11.374,3.414,11.444l-0.048,0.567l0.462,0.331
			c9.424,6.762,13.734,13.408,12.813,19.756C325.414,14.938,302.978,22.85,302.751,22.928z M-167.297,92.978
			c-0.698-0.101-1.442-0.208-2.225-0.321c-0.775-0.162-1.59-0.334-2.44-0.512c-1.699-0.356-3.537-0.738-5.483-1.117
			c-1.911-0.521-3.925-1.074-6.01-1.645c-0.521-0.142-1.045-0.285-1.574-0.43c-0.516-0.185-1.035-0.371-1.556-0.561
			c-1.046-0.37-2.104-0.744-3.17-1.121c-0.534-0.187-1.07-0.374-1.608-0.562c-0.529-0.208-1.043-0.456-1.568-0.684
			c-1.044-0.463-2.093-0.928-3.142-1.394c-1.071-0.419-2.07-0.982-3.076-1.521c-1.007-0.539-2.01-1.075-3.005-1.606
			c-0.963-0.585-1.895-1.206-2.835-1.787c-0.933-0.593-1.878-1.148-2.714-1.823c-0.862-0.643-1.709-1.275-2.539-1.894
			c-0.827-0.622-1.561-1.321-2.318-1.954c-0.755-0.636-1.479-1.268-2.122-1.938c-0.664-0.651-1.305-1.282-1.919-1.886
			c-1.125-1.305-2.241-2.44-3.083-3.567c-0.904-1.084-1.576-2.11-2.164-2.938c-0.528-0.862-0.986-1.521-1.238-2.003
			c-0.276-0.471-0.401-0.734-0.401-0.734s0.37,1.107,1.306,2.936c0.508,0.885,1.089,1.992,1.896,3.173
			c0.741,1.229,1.751,2.488,2.826,3.892c1.185,1.3,2.375,2.817,3.891,4.16c0.743,0.688,1.464,1.445,2.28,2.126
			c0.829,0.666,1.676,1.346,2.538,2.039c0.843,0.722,1.793,1.321,2.734,1.961c0.946,0.63,1.889,1.294,2.879,1.898
			c1.017,0.559,2.042,1.119,3.072,1.683c1.03,0.564,2.053,1.154,3.146,1.597c1.081,0.468,2.161,0.935,3.237,1.4
			c0.541,0.227,1.072,0.476,1.616,0.685c0.552,0.186,1.103,0.371,1.651,0.557c1.098,0.363,2.188,0.725,3.264,1.082
			c0.539,0.176,1.074,0.35,1.606,0.522c0.543,0.13,1.083,0.261,1.617,0.39c2.14,0.51,4.208,1.003,6.177,1.41
			c1.991,0.299,3.876,0.556,5.613,0.79c0.868,0.115,1.7,0.226,2.491,0.331c0.798,0.037,1.556,0.072,2.268,0.106
			c1.42,0.065,2.658,0.124,3.678,0.17c2.036,0.087,3.198,0.108,3.198,0.108s-1.153-0.198-3.165-0.496
			C-164.676,93.356-165.897,93.18-167.297,92.978z M-136.731,89.684c-0.37,0.092-0.755,0.174-1.152,0.244
			c-0.396,0.072-0.792,0.168-1.188,0.259c-0.392,0.114-0.796,0.175-1.188,0.27c-0.393,0.088-0.777,0.188-1.15,0.292
			c-0.752,0.16-1.451,0.383-2.057,0.556c-0.608,0.174-1.114,0.354-1.473,0.476c-0.36,0.135-0.571,0.216-0.571,0.216
			s0.847,0.337,2.146,0.448c0.651,0.089,1.405,0.074,2.217,0.054c0.804-0.077,1.667-0.155,2.508-0.357
			c0.836-0.225,1.682-0.407,2.426-0.759c0.745-0.337,1.445-0.621,1.984-1.017c1.099-0.735,1.715-1.37,1.715-1.37
			s-0.925,0.034-2.136,0.302C-135.257,89.429-135.991,89.501-136.731,89.684z M-291.397,65.155l-0.122,0.678
			c-0.041,0.465-0.201,0.886-0.306,1.321c-0.137,0.42-0.283,0.834-0.466,1.215c-0.203,0.37-0.377,0.748-0.613,1.067
			c-0.1,0.175-0.223,0.321-0.343,0.468c-0.119,0.146-0.221,0.308-0.346,0.434c-0.246,0.256-0.469,0.511-0.696,0.708
			c-0.219,0.209-0.429,0.372-0.602,0.518c-0.351,0.278-0.578,0.423-0.578,0.423s0.269,0.019,0.737-0.061
			c0.227-0.052,0.522-0.097,0.827-0.223c0.319-0.104,0.663-0.263,1.025-0.472c0.346-0.224,0.754-0.458,1.088-0.81
			c0.369-0.321,0.708-0.712,1.011-1.157c0.174-0.209,0.274-0.463,0.417-0.699c0.125-0.244,0.288-0.483,0.361-0.754
			c0.185-0.526,0.382-1.067,0.45-1.623l0.127-0.832c0.017-0.275,0.01-0.549,0.013-0.821c0.004-0.271,0-0.54-0.012-0.804
			c-0.037-0.26-0.074-0.517-0.11-0.769c-0.076-0.501-0.137-0.989-0.292-1.423c-0.127-0.441-0.271-0.852-0.407-1.225
			c-0.112-0.38-0.308-0.697-0.45-0.986c-0.143-0.288-0.288-0.531-0.402-0.733c-0.234-0.397-0.384-0.616-0.384-0.616
			s-0.009,0.272,0.003,0.732c0.009,0.229,0.015,0.506,0.044,0.816c0.015,0.313,0.068,0.654,0.068,1.035
			c0.007,0.379,0.017,0.784,0.053,1.206c0.053,0.422-0.012,0.867,0.012,1.317c0.002,0.225,0.003,0.453,0.005,0.686
			c-0.029,0.228-0.051,0.455-0.065,0.688L-291.397,65.155z M47.403,81.885c-0.621-0.061-1.314-0.087-2.071-0.166
			c-0.754-0.094-1.57-0.196-2.434-0.304c-0.859-0.14-1.765-0.285-2.701-0.437c-1.866-0.357-3.858-0.718-5.834-1.188
			c-0.993-0.209-1.986-0.425-2.957-0.673c-0.975-0.232-1.935-0.464-2.862-0.686c-1.861-0.458-3.599-0.884-5.088-1.251
			c-2.98-0.747-5.011-1.193-5.011-1.193s1.788,1.07,4.649,2.277c0.716,0.301,1.492,0.626,2.326,0.932
			c0.838,0.299,1.711,0.648,2.641,0.927c0.926,0.29,1.877,0.616,2.866,0.863c0.983,0.275,1.991,0.52,3.003,0.756
			c1.01,0.235,2.041,0.396,3.045,0.585c1.004,0.199,2.019,0.263,2.983,0.396c0.972,0.108,1.922,0.128,2.815,0.179
			c0.897,0.024,1.75-0.016,2.53-0.035c0.783-0.03,1.501-0.148,2.131-0.218c0.632-0.05,1.175-0.198,1.619-0.303
			c0.888-0.216,1.382-0.356,1.382-0.356s-0.526-0.025-1.424-0.04C48.564,81.946,48.025,81.95,47.403,81.885z M4.057,79.322
			c-0.779,0.295-1.609,0.616-2.416,0.985c-0.809,0.361-1.591,0.785-2.333,1.168c-0.739,0.386-1.418,0.781-1.986,1.158
			c-0.571,0.368-1.042,0.707-1.368,0.951c-0.324,0.248-0.502,0.408-0.502,0.408s0.956,0.004,2.29-0.295
			c0.674-0.135,1.444-0.338,2.256-0.594c0.813-0.252,1.643-0.611,2.47-0.977c0.41-0.192,0.821-0.381,1.217-0.586
			c0.397-0.199,0.786-0.397,1.15-0.624c0.722-0.467,1.375-0.935,1.911-1.37c1.086-0.849,1.702-1.559,1.702-1.559
			s-0.965,0.133-2.25,0.548C5.547,78.731,4.818,79,4.057,79.322z M184.438,72.188c-0.587,0.283-1.306,0.479-2.052,0.76
			c-0.376,0.134-0.768,0.273-1.173,0.417c-0.4,0.153-0.814,0.308-1.259,0.414c-0.873,0.247-1.793,0.508-2.744,0.777
			c-0.964,0.204-1.96,0.415-2.971,0.63c-1.024,0.133-2.054,0.346-3.099,0.419c-1.042,0.08-2.084,0.228-3.116,0.203
			c-0.516,0.013-1.028,0.024-1.534,0.037c-0.506-0.019-1.005-0.037-1.497-0.056c-0.987-0.011-1.932-0.147-2.839-0.2
			c-0.893-0.147-1.758-0.204-2.536-0.365c-3.143-0.532-5.212-1.237-5.212-1.237s0.438,0.326,1.279,0.787
			c0.423,0.221,0.938,0.502,1.555,0.757c0.611,0.27,1.312,0.558,2.099,0.802c0.776,0.288,1.648,0.486,2.567,0.725
			c0.932,0.156,1.908,0.422,2.944,0.486c0.517,0.051,1.041,0.104,1.572,0.158c0.533,0.025,1.074,0.035,1.619,0.037
			c1.093,0.046,2.196-0.081,3.303-0.145c1.104-0.098,2.188-0.347,3.265-0.512c1.065-0.224,2.087-0.566,3.085-0.833
			c0.983-0.319,1.901-0.726,2.78-1.071c0.89-0.318,1.648-0.814,2.381-1.181c0.723-0.394,1.396-0.726,1.933-1.129
			c0.553-0.373,1.022-0.715,1.41-0.993c0.772-0.558,1.199-0.89,1.199-0.89s-0.517,0.188-1.395,0.545
			C185.569,71.712,185.042,71.934,184.438,72.188z M140.459,67.94c-0.273-0.174-0.557-0.35-0.853-0.511s-0.598-0.323-0.898-0.485
			c-1.214-0.643-2.49-1.189-3.515-1.513c-1.013-0.337-1.781-0.449-1.781-0.449s0.398,0.669,1.184,1.425
			c0.762,0.786,1.921,1.633,3.184,2.309c0.633,0.332,1.306,0.604,1.938,0.836c0.652,0.205,1.279,0.347,1.822,0.431
			c0.554,0.072,1.032,0.06,1.356,0.048c0.327-0.016,0.514-0.045,0.514-0.045s-0.592-0.533-1.463-1.077
			C141.52,68.58,141.011,68.261,140.459,67.94z M330.266,14.889c-0.437,0.383-0.93,0.817-1.467,1.289
			c-0.524,0.482-1.11,0.98-1.745,1.489c-0.631,0.515-1.277,1.071-1.988,1.6c-0.699,0.54-1.421,1.098-2.178,1.631
			c-0.747,0.55-1.509,1.101-2.308,1.602c-0.767,0.546-1.561,1.052-2.353,1.534c-0.782,0.501-1.571,0.961-2.33,1.419
			c-0.771,0.439-1.517,0.861-2.224,1.265c-0.718,0.387-1.397,0.754-2.025,1.092c-2.525,1.332-4.284,2.156-4.284,2.156
			s0.485-0.043,1.321-0.205c0.833-0.167,2.023-0.435,3.406-0.896c1.395-0.436,2.977-1.076,4.629-1.858
			c0.807-0.425,1.68-0.803,2.494-1.314c0.832-0.479,1.669-0.983,2.479-1.53c0.817-0.536,1.594-1.133,2.355-1.719
			c0.786-0.557,1.463-1.229,2.153-1.83c0.703-0.585,1.294-1.252,1.875-1.856c0.287-0.306,0.574-0.594,0.836-0.89
			c0.247-0.309,0.485-0.606,0.714-0.893c0.457-0.57,0.877-1.092,1.214-1.58c0.331-0.492,0.604-0.934,0.83-1.294
			c0.448-0.722,0.687-1.142,0.687-1.142s-0.373,0.318-0.994,0.891C331.056,14.134,330.678,14.481,330.266,14.889z M334.365-4.167
			c-0.064-0.618-0.101-1.301-0.28-1.99c-0.163-0.694-0.268-1.453-0.527-2.189c-0.266-0.733-0.45-1.532-0.807-2.275
			c-0.352-0.743-0.647-1.53-1.073-2.253c-0.412-0.728-0.832-1.45-1.309-2.121c-0.437-0.699-0.975-1.309-1.462-1.918
			c-0.488-0.609-1.036-1.135-1.535-1.643c-0.521-0.492-1.015-0.949-1.513-1.325c-0.474-0.4-0.948-0.722-1.365-1.004
			c-0.415-0.284-0.799-0.502-1.113-0.679c-0.635-0.35-1.021-0.496-1.021-0.496s1.177,1.158,2.703,2.996
			c0.393,0.449,0.769,0.98,1.202,1.5c0.403,0.549,0.83,1.121,1.253,1.725c0.42,0.607,0.837,1.242,1.238,1.901
			c0.429,0.641,0.802,1.329,1.167,2.021c0.415,0.665,0.712,1.392,1.063,2.077c0.335,0.695,0.611,1.4,0.91,2.076
			c0.291,0.677,0.497,1.36,0.748,1.994c0.253,0.634,0.411,1.257,0.596,1.828c0.157,0.573,0.377,1.093,0.477,1.57
			c0.111,0.476,0.229,0.892,0.321,1.237c0.191,0.688,0.319,1.084,0.319,1.084s0.04-0.406,0.076-1.126
			c0.015-0.36,0.038-0.799,0.041-1.304C334.5-2.988,334.419-3.549,334.365-4.167z M164.967-45.419
			c1.203-0.45,2.467-0.965,3.714-1.52c0.619-0.286,1.238-0.573,1.848-0.854c0.606-0.291,1.196-0.595,1.779-0.859
			c1.155-0.553,2.22-1.107,3.121-1.618c0.902-0.505,1.648-0.951,2.166-1.274c0.517-0.328,0.806-0.531,0.806-0.531
			s-1.402,0.174-3.395,0.742c-1.001,0.274-2.155,0.635-3.377,1.061c-1.229,0.405-2.493,0.955-3.757,1.506
			c-1.261,0.56-2.503,1.158-3.65,1.753c-0.572,0.304-1.104,0.65-1.612,0.964c-0.51,0.308-0.98,0.622-1.413,0.913
			c-1.737,1.151-2.791,2.066-2.791,2.066s1.391-0.332,3.319-1.047C162.697-44.464,163.798-44.915,164.967-45.419z M11.188-54.192
			c0.994-0.606,2.175-1.198,3.412-1.911c0.626-0.343,1.267-0.72,1.947-1.073c0.7-0.319,1.425-0.649,2.169-0.988
			c0.741-0.341,1.503-0.688,2.282-1.046c0.777-0.355,1.616-0.619,2.443-0.942c0.833-0.311,1.68-0.626,2.536-0.945
			c0.86-0.309,1.765-0.523,2.652-0.809c0.894-0.266,1.795-0.532,2.699-0.801c0.922-0.207,1.848-0.414,2.772-0.62
			c1.834-0.491,3.718-0.744,5.558-1.069c1.844-0.295,3.677-0.485,5.447-0.695c1.779-0.094,3.496-0.323,5.134-0.342
			c0.819-0.032,1.615-0.062,2.387-0.089c0.771-0.005,1.517-0.01,2.233-0.014c1.434-0.026,2.745,0.053,3.915,0.063
			c1.162,0.073,2.185,0.092,3.021,0.165c0.838,0.063,1.498,0.104,1.946,0.154c0.449,0.046,0.689,0.072,0.689,0.072
			s-0.232-0.063-0.669-0.177c-0.438-0.115-1.084-0.279-1.912-0.441c-0.827-0.183-1.84-0.342-3.005-0.532
			c-1.168-0.138-2.486-0.362-3.936-0.445c-0.725-0.058-1.48-0.116-2.261-0.178c-0.783-0.022-1.594-0.044-2.427-0.065
			c-1.668-0.08-3.426,0.027-5.246,0.075c-0.909,0.055-1.831,0.151-2.766,0.227c-0.934,0.087-1.885,0.134-2.827,0.313
			c-1.89,0.309-3.825,0.548-5.717,1.026c-0.948,0.225-1.896,0.448-2.84,0.672c-0.928,0.286-1.851,0.572-2.768,0.855
			c-0.912,0.296-1.833,0.543-2.704,0.9c-0.869,0.359-1.728,0.716-2.571,1.065c-0.835,0.369-1.691,0.65-2.464,1.074
			c-0.775,0.414-1.534,0.819-2.272,1.214c-0.736,0.394-1.452,0.776-2.145,1.148c-0.665,0.421-1.287,0.859-1.894,1.264
			c-1.204,0.82-2.324,1.543-3.257,2.265c-0.896,0.77-1.677,1.439-2.32,1.991c-1.263,1.117-1.985,1.757-1.985,1.757
			s0.811-0.524,2.228-1.44C9.371-52.98,10.217-53.547,11.188-54.192z M-14.586-52.987c0.555-0.038,1.219,0.063,1.896,0.028
			c0.341-0.01,0.689-0.024,1.049-0.001c0.357,0.018,0.72,0.014,1.082,0.012c0.724-0.027,1.45,0.042,2.143-0.001
			c0.685,0.032,1.344-0.011,1.911-0.017c0.569-0.009,1.055-0.048,1.399-0.063c0.354-0.029,0.558-0.047,0.558-0.047
			s-0.151-0.142-0.448-0.333c-0.296-0.202-0.737-0.451-1.287-0.68c-0.547-0.26-1.216-0.433-1.939-0.62
			c-0.732-0.108-1.521-0.26-2.317-0.24c-0.398,0.013-0.797,0.021-1.188,0.051c-0.392,0.007-0.773,0.089-1.141,0.175
			c-0.367,0.081-0.718,0.173-1.047,0.266c-0.332,0.082-0.636,0.198-0.906,0.347c-1.099,0.525-1.724,1.035-1.724,1.035
			S-15.698-52.945-14.586-52.987z M-193.607-53.497c0.172,0.135,0.364,0.281,0.577,0.421c0.837,0.631,1.987,1.385,3.203,2.049
			c1.218,0.659,2.5,1.223,3.535,1.53c1.021,0.334,1.793,0.422,1.793,0.422s-0.419-0.656-1.207-1.402
			c-0.772-0.771-1.917-1.623-3.166-2.308c-0.626-0.338-1.278-0.635-1.913-0.87c-0.636-0.231-1.259-0.398-1.812-0.484
			c-0.552-0.097-1.042-0.099-1.378-0.065c-0.353,0.058-0.521,0.129-0.521,0.129s0.158,0.094,0.434,0.26
			C-193.931-53.723-193.78-53.606-193.607-53.497z M-240.375-52.484c0.619-0.321,1.357-0.601,2.151-0.923
			c0.798-0.312,1.641-0.69,2.549-1.038c0.926-0.309,1.899-0.629,2.892-0.994c1.007-0.321,2.078-0.548,3.133-0.876
			c1.072-0.271,2.18-0.453,3.275-0.691c1.109-0.143,2.215-0.351,3.313-0.431c1.1-0.054,2.182-0.203,3.234-0.168
			c1.053-0.029,2.068,0.009,3.036,0.06c0.486,0.002,0.949,0.085,1.405,0.119c0.454,0.048,0.9,0.062,1.316,0.138
			c0.838,0.128,1.614,0.232,2.293,0.378c0.686,0.123,1.27,0.28,1.762,0.391c0.48,0.14,0.871,0.226,1.125,0.313
			c0.259,0.084,0.397,0.129,0.397,0.129s-0.473-0.34-1.382-0.813c-0.461-0.212-1.015-0.512-1.687-0.75
			c-0.662-0.275-1.428-0.527-2.276-0.768c-0.849-0.231-1.782-0.463-2.782-0.616c-1.001-0.152-2.063-0.319-3.171-0.339
			c-1.106-0.089-2.251-0.05-3.415,0.002c-1.162,0.062-2.331,0.254-3.505,0.385c-1.151,0.265-2.313,0.487-3.432,0.794
			c-1.107,0.343-2.194,0.697-3.225,1.081c-1.017,0.427-1.984,0.872-2.9,1.285c-0.905,0.44-1.713,0.949-2.473,1.383
			c-0.762,0.43-1.447,0.844-2.01,1.283c-0.569,0.422-1.066,0.792-1.476,1.094c-0.808,0.615-1.256,0.981-1.256,0.981
			s0.542-0.226,1.463-0.642C-241.564-51.929-241.01-52.187-240.375-52.484z"/>
	</g>
</g>
</svg>
