<?xml version="1.0" encoding="utf-8"?>
<!-- Generator: Adobe Illustrator 16.2.0, SVG Export Plug-In . SVG Version: 6.00 Build 0)  -->
<!DOCTYPE svg PUBLIC "-//W3C//DTD SVG 1.1//EN" "http://www.w3.org/Graphics/SVG/1.1/DTD/svg11.dtd">
<svg version="1.1" id="OBJECTS" xmlns="http://www.w3.org/2000/svg" xmlns:xlink="http://www.w3.org/1999/xlink" x="0px" y="0px"
	 width="25.938px" height="25.938px" viewBox="0 0 25.938 25.938" enable-background="new 0 0 25.938 25.938" xml:space="preserve">
<g>
	<g>
		<path fill-rule="evenodd" clip-rule="evenodd" d="M25.581,9.786c-1.206-1.014-2.408-2.031-3.63-3.023
			c-0.302-0.245-0.456-0.482-0.437-0.887c0.035-0.729,0.016-1.46,0.008-2.189c-0.006-0.558-0.328-0.91-0.809-0.91
			c-0.482,0-0.799,0.35-0.809,0.908c-0.008,0.414-0.002,0.83-0.002,1.33c-0.158-0.122-0.236-0.179-0.312-0.24
			c-1.573-1.313-3.15-2.621-4.716-3.941c-1.319-1.113-2.437-1.109-3.758,0.004c-2.15,1.811-4.312,3.607-6.468,5.41
			C3.222,7.442,1.79,8.636,0.363,9.832c-0.352,0.296-0.479,0.658-0.243,1.083c0.196,0.352,0.522,0.488,0.904,0.385
			c0.185-0.051,0.354-0.191,0.508-0.32C5.12,7.985,8.704,4.985,12.29,1.989c0.582-0.486,0.837-0.488,1.419-0.002
			c2.927,2.439,5.853,4.88,8.768,7.332c0.143,0.121,0.257,0.363,0.258,0.549c0.015,4.516,0.013,9.031,0.01,13.548
			c-0.001,0.651-0.311,0.951-0.973,0.954c-1.167,0.005-2.335,0.004-3.502,0c-0.128,0-0.255-0.024-0.399-0.039
			c0-2.891-0.049-5.743,0.02-8.593c0.039-1.585-1.081-2.882-2.81-2.79c-1.367,0.072-2.743,0.077-4.109-0.002
			c-1.752-0.102-2.909,1.182-2.863,2.844c0.078,2.832,0.021,5.668,0.021,8.582c-1.305,0-2.552,0.001-3.8-0.001
			c-0.81-0.001-1.076-0.277-1.075-1.108c0.001-1.766,0.001-3.531,0.001-5.297c0.001-1.375,0.008-2.75-0.003-4.125
			c-0.006-0.684-0.614-1.076-1.177-0.782c-0.365,0.19-0.446,0.512-0.446,0.896c0.006,3.141,0.003,6.281,0.004,9.423
			c0.001,1.61,1.017,2.622,2.638,2.622h17.458c1.646,0,2.638-1.007,2.638-2.674c0.001-3.922,0-7.843,0-11.766v-0.605
			c0.12,0.073,0.173,0.105,0.225,0.139c0.522,0.34,0.961,0.301,1.249-0.107C26.117,10.591,26.028,10.161,25.581,9.786z
			 M9.751,24.335v-7.612c0-0.425-0.011-0.849,0.002-1.272c0.016-0.534,0.326-0.854,0.86-0.856c1.589-0.01,3.179-0.011,4.768,0
			c0.514,0.004,0.86,0.315,0.862,0.805c0.01,2.968,0.005,5.935,0.005,8.937H9.751z M12.202,18.667
			c-0.441-0.011-0.811,0.339-0.826,0.781c-0.016,0.458,0.363,0.849,0.819,0.845c0.438-0.004,0.8-0.37,0.802-0.81
			C12.999,19.045,12.64,18.676,12.202,18.667z"/>
	</g>
</g>
</svg>
