<?xml version="1.0" encoding="utf-8"?>
<!-- Generator: Adobe Illustrator 16.2.0, SVG Export Plug-In . SVG Version: 6.00 Build 0)  -->
<!DOCTYPE svg PUBLIC "-//W3C//DTD SVG 1.1//EN" "http://www.w3.org/Graphics/SVG/1.1/DTD/svg11.dtd">
<svg version="1.1" id="OBJECTS" xmlns="http://www.w3.org/2000/svg" xmlns:xlink="http://www.w3.org/1999/xlink" x="0px" y="0px"
	 width="36px" height="36px" viewBox="0 0 36 36" enable-background="new 0 0 36 36" xml:space="preserve">
<g>
	<g>
		<path d="M33.718,0.336C33.516,0.122,33.232,0,32.938,0H3.063C2.767,0,2.483,0.122,2.281,0.336
			C2.079,0.552,1.978,0.838,1.998,1.129l2.135,29.533c0.03,0.42,0.313,0.783,0.717,0.92l12.803,4.36C17.765,35.98,17.883,36,18,36
			s0.234-0.019,0.348-0.058l12.803-4.36c0.404-0.137,0.686-0.5,0.717-0.92l2.135-29.533C34.022,0.838,33.92,0.552,33.718,0.336z
			 M29.789,29.816L18,33.83L6.21,29.816L4.208,2.109h27.583L29.789,29.816z M8.632,20.038h13.302l-0.256,3.567L18,24.922
			l-3.682-1.317l-0.034-0.479c-0.041-0.55-0.505-0.978-1.063-0.978H8.952c-0.296,0-0.579,0.121-0.78,0.336
			c-0.201,0.213-0.305,0.5-0.284,0.792l0.299,4.261c0.029,0.42,0.31,0.783,0.712,0.924l8.748,3.029
			c0.114,0.04,0.234,0.059,0.354,0.059s0.238-0.019,0.353-0.059l8.749-3.029c0.401-0.14,0.682-0.502,0.711-0.922l0.916-12.699
			c0.021-0.292-0.082-0.578-0.283-0.793c-0.202-0.215-0.484-0.336-0.78-0.336h-14.05l-0.23-3.164h14.66
			c0.56,0,1.023-0.427,1.063-0.98l0.306-4.218c0.021-0.292-0.082-0.58-0.284-0.794c-0.202-0.215-0.485-0.336-0.78-0.336H7.65
			c-0.296,0-0.578,0.121-0.78,0.336C6.668,4.769,6.564,5.057,6.586,5.348l0.982,13.711C7.607,19.611,8.072,20.038,8.632,20.038z
			 M27.203,6.328l-0.152,2.109H12.238c-0.297,0-0.578,0.121-0.781,0.336c-0.202,0.215-0.305,0.502-0.283,0.795l0.385,5.273
			c0.039,0.551,0.504,0.979,1.064,0.979H26.52l-0.785,10.877L18,29.377l-7.733-2.679l-0.171-2.44h2.132l0.013,0.182
			c0.031,0.415,0.307,0.773,0.701,0.916l4.695,1.68c0.234,0.084,0.492,0.084,0.727,0l4.694-1.68
			c0.396-0.143,0.671-0.502,0.701-0.918l0.384-5.379c0.021-0.291-0.082-0.58-0.284-0.793c-0.201-0.215-0.484-0.336-0.78-0.336H9.627
			L8.795,6.328H27.203z"/>
	</g>
</g>
</svg>
