<?xml version="1.0" encoding="utf-8"?>
<!-- Generator: Adobe Illustrator 16.2.0, SVG Export Plug-In . SVG Version: 6.00 Build 0)  -->
<!DOCTYPE svg PUBLIC "-//W3C//DTD SVG 1.1//EN" "http://www.w3.org/Graphics/SVG/1.1/DTD/svg11.dtd">
<svg version="1.1" id="OBJECTS" xmlns="http://www.w3.org/2000/svg" xmlns:xlink="http://www.w3.org/1999/xlink" x="0px" y="0px"
	 width="35.875px" height="35.875px" viewBox="0 0 35.875 35.875" enable-background="new 0 0 35.875 35.875" xml:space="preserve">
<g>
	<path d="M20.29,16.405c-0.594-0.524-1.473-0.962-1.643-1.049c-0.198-0.099-0.41-0.198-0.609-0.312
		c-0.042-0.028-0.084-0.057-0.127-0.07l0.113-3.346h0.17c0.213-0.014,0.864,0.1,1.359,0.553c0.086,0.072,0.156,0.141,0.227,0.227
		l-0.438,0.766l0.623-0.142l1.119-1.247c-0.185-0.1-0.325-0.17-0.396-0.198c-0.298-0.128-0.708-0.241-0.765-0.256
		c-0.893-0.227-1.487-0.241-1.885-0.269l0.086-1.375l-0.652,0.949v0.439c-0.566,0.099-0.807,0.17-1.09,0.283
		c-0.864,0.34-1.346,0.879-1.559,1.178c-0.424,0.623-0.481,1.303-0.481,1.558c0,0.142,0.015,0.482,0.156,0.864
		c0.325,0.908,1.005,1.32,1.813,1.772l0.213,0.1c0.085,0.057,0.185,0.099,0.283,0.142c0.17,0.086,0.34,0.156,0.495,0.256v3.713
		c-0.014,0-0.184,0.014-0.311,0.014c-0.893,0-1.729-0.566-1.898-0.693c-0.113-0.07-0.17-0.129-0.27-0.213l0.482-0.808l-0.652,0.128
		l-1.176,1.347c0.156,0.083,0.313,0.155,0.482,0.212c0.297,0.113,0.608,0.197,0.92,0.283c0.623,0.142,1.176,0.269,2.422,0.297v1.631
		l0.596-1.119v-0.54c1.289-0.085,2.62-0.667,3.145-1.956c0.197-0.481,0.227-0.893,0.227-1.091
		C21.269,17.313,20.588,16.661,20.29,16.405z M17.331,14.647c-0.34-0.212-0.652-0.454-0.836-0.836
		c-0.085-0.183-0.128-0.368-0.128-0.581c0-0.51,0.255-0.852,0.382-0.992c0.128-0.127,0.369-0.311,0.539-0.41
		c0.028-0.016,0.07-0.043,0.156-0.072L17.331,14.647z M18.181,20.644c-0.128,0.072-0.227,0.114-0.283,0.128v-3.23
		c0.608,0.354,0.863,0.764,0.977,1.047c0.071,0.185,0.1,0.355,0.1,0.568C18.974,19.766,18.69,20.318,18.181,20.644z M35.931,21.428
		c-0.088-0.473-0.228-0.873-0.392-1.285c-0.173-0.408-0.383-0.804-0.633-1.182c-0.258-0.371-0.546-0.729-0.87-1.052
		c-0.325-0.321-0.68-0.616-1.063-0.866c-0.38-0.252-0.788-0.455-1.202-0.621c-0.417-0.162-0.842-0.285-1.269-0.365
		c-0.265-0.051-0.528-0.082-0.792-0.104c0.137-0.079,0.275-0.155,0.407-0.245c0.22-0.137,0.422-0.299,0.629-0.455
		c0.194-0.172,0.403-0.33,0.585-0.516c0.189-0.178,0.369-0.367,0.536-0.566c0.175-0.194,0.332-0.4,0.486-0.609l0.114-0.158
		l0.11-0.174l0.218-0.348c0.039-0.061,0.072-0.117,0.096-0.164l0.08-0.149l0.156-0.302l0.039-0.076l0.02-0.045l0.039-0.086
		l0.078-0.178c0.051-0.118,0.106-0.232,0.151-0.355c0.083-0.254,0.184-0.488,0.248-0.759l0.101-0.396l0.07-0.419
		c0.025-0.137,0.031-0.289,0.042-0.434c0.011-0.146,0.019-0.294,0.007-0.45c-0.016-0.604-0.17-1.27-0.508-1.841
		c-0.332-0.576-0.818-1.021-1.318-1.324c-0.505-0.307-1.029-0.473-1.537-0.585c-0.51-0.115-1.014-0.15-1.506-0.162
		c-0.247-0.002-0.486,0.006-0.727,0.02c0.021-0.17,0.039-0.342,0.054-0.513c0.03-0.464,0.036-0.933-0.018-1.404
		c-0.049-0.468-0.168-0.948-0.397-1.391c-0.224-0.444-0.578-0.84-1.004-1.116c-0.427-0.277-0.901-0.444-1.375-0.556
		c-0.478-0.119-0.952-0.159-1.432-0.191c-0.234-0.001-0.472-0.008-0.711-0.001c-0.236,0.012-0.487,0.024-0.721,0.043
		c-0.217,0.026-0.436,0.048-0.652,0.078l-0.197,0.041l-0.178,0.039L21.339,0.29c-0.24,0.045-0.469,0.143-0.701,0.232
		c-0.232,0.09-0.464,0.181-0.682,0.311l-0.328,0.19c-0.109,0.064-0.219,0.125-0.318,0.206c-0.201,0.158-0.406,0.308-0.598,0.474
		c-0.186,0.177-0.365,0.357-0.541,0.54L17.699,2.84c-0.14,0.21-0.265,0.428-0.395,0.643c-0.12,0.218-0.214,0.449-0.317,0.672
		c-0.085,0.2-0.149,0.406-0.216,0.611c-0.073-0.139-0.143-0.28-0.227-0.413c-0.128-0.22-0.276-0.429-0.425-0.637
		c-0.162-0.195-0.311-0.407-0.494-0.584L15.36,2.855c-0.092-0.089-0.191-0.169-0.286-0.253c-0.187-0.174-0.396-0.318-0.601-0.466
		c-0.1-0.076-0.209-0.143-0.324-0.212c-0.113-0.066-0.225-0.137-0.338-0.201c-0.223-0.123-0.416-0.203-0.629-0.302l-0.02-0.009
		l-0.01-0.005l-0.004-0.002c-0.049-0.029-0.018-0.01-0.029-0.016l-0.043-0.018L12.99,1.337l-0.173-0.068
		c-0.115-0.044-0.228-0.092-0.345-0.133c-0.243-0.073-0.469-0.162-0.72-0.214c-0.482-0.128-0.998-0.197-1.512-0.194
		c-0.516,0-1.047,0.108-1.518,0.339C8.253,1.3,7.857,1.645,7.545,2.034c-0.313,0.39-0.551,0.821-0.75,1.26
		C6.594,3.733,6.435,4.187,6.293,4.646C6.25,4.797,6.207,4.948,6.166,5.101C5.967,5.014,5.763,4.937,5.554,4.864
		C5.08,4.702,4.575,4.59,4.027,4.554C3.481,4.523,2.878,4.59,2.284,4.844C1.686,5.086,1.146,5.565,0.798,6.102
		C0.447,6.639,0.245,7.216,0.143,7.754c-0.034,0.139-0.05,0.271-0.068,0.404c-0.016,0.135-0.04,0.27-0.048,0.4
		C0.015,8.816-0.008,9.084,0.003,9.334c0.005,0.252,0.005,0.505,0.038,0.764l0.039,0.385c0.012,0.133,0.031,0.227,0.047,0.342
		l0.054,0.33l0.014,0.083l0.007,0.04l0.008,0.043l0.003,0.012l0.005,0.023l0.045,0.188c0.061,0.25,0.122,0.499,0.191,0.746
		c0.183,0.487,0.349,0.982,0.63,1.436l0.194,0.346c0.069,0.112,0.152,0.217,0.229,0.325c0.161,0.213,0.307,0.434,0.499,0.62
		l0.274,0.287c0.09,0.096,0.184,0.189,0.289,0.27c0.206,0.164,0.402,0.34,0.617,0.484c0.22,0.139,0.436,0.279,0.659,0.404
		c0.229,0.115,0.458,0.225,0.687,0.329C4.766,16.877,5,16.963,5.234,17.043c0.005,0.001,0.01,0.003,0.015,0.004
		c-0.204,0.128-0.404,0.263-0.597,0.408c-0.414,0.321-0.792,0.689-1.121,1.093c-0.16,0.204-0.318,0.41-0.454,0.628
		c-0.068,0.111-0.136,0.215-0.203,0.336l-0.099,0.176l-0.078,0.156c-0.227,0.449-0.41,0.914-0.55,1.41
		c-0.141,0.491-0.237,1.009-0.244,1.544c-0.008,0.532,0.079,1.086,0.298,1.583c0.215,0.5,0.563,0.919,0.947,1.248
		c0.391,0.325,0.819,0.573,1.258,0.777c0.441,0.199,0.893,0.359,1.352,0.49C6,26.965,6.236,27.025,6.478,27.08
		c-0.132,0.305-0.247,0.612-0.343,0.941c-0.153,0.528-0.265,1.091-0.242,1.707c0.011,0.309,0.058,0.629,0.155,0.951
		c0.104,0.32,0.258,0.642,0.47,0.929c0.42,0.59,1.049,0.983,1.649,1.202c0.607,0.224,1.203,0.308,1.776,0.348
		c0.574,0.035,1.128,0.017,1.67-0.033c0.134-0.009,0.276-0.029,0.415-0.044l0.381-0.049c0.284-0.043,0.552-0.093,0.828-0.154
		c0.549-0.124,1.094-0.3,1.621-0.535c0.525-0.235,1.035-0.526,1.503-0.876c0.472-0.348,0.896-0.756,1.274-1.195
		c0.446-0.525,0.807-1.104,1.101-1.705c0.037,0.244,0.085,0.497,0.149,0.756c0.129,0.514,0.302,1.057,0.561,1.59
		c0.254,0.533,0.562,1.078,0.967,1.564c0.189,0.258,0.418,0.48,0.637,0.717c0.113,0.115,0.235,0.219,0.354,0.33
		c0.121,0.106,0.239,0.219,0.369,0.313c0.254,0.201,0.512,0.398,0.781,0.572l0.4,0.271c0.139,0.08,0.277,0.159,0.414,0.239
		c0.275,0.165,0.557,0.302,0.842,0.424c0.282,0.138,0.572,0.224,0.858,0.308c0.144,0.039,0.286,0.084,0.429,0.113
		c0.142,0.027,0.283,0.051,0.424,0.071c0.281,0.04,0.557,0.081,0.824,0.082c0.268,0.015,0.528,0.013,0.778,0.017
		c0.251-0.015,0.49-0.031,0.72-0.057c0.461-0.033,0.875-0.128,1.24-0.211c0.182-0.043,0.352-0.085,0.507-0.131
		c0.155-0.053,0.296-0.1,0.424-0.148c0.255-0.098,0.451-0.18,0.585-0.242c0.133-0.061,0.203-0.098,0.203-0.098l-0.014-0.24
		c0,0-0.074-0.034-0.211-0.084c-0.137-0.055-0.336-0.124-0.586-0.203c-0.248-0.074-0.547-0.163-0.891-0.265
		c-0.334-0.091-0.71-0.194-1.121-0.308c-0.201-0.059-0.411-0.102-0.625-0.162c-0.213-0.059-0.43-0.125-0.654-0.18
		c-0.226-0.05-0.446-0.131-0.676-0.19c-0.115-0.03-0.231-0.06-0.35-0.087c-0.114-0.031-0.23-0.065-0.348-0.098
		c-0.234-0.061-0.479-0.109-0.716-0.178c-0.239-0.066-0.491-0.112-0.728-0.195c-0.121-0.039-0.243-0.076-0.365-0.115
		c-0.119-0.044-0.234-0.096-0.354-0.143c-0.244-0.086-0.459-0.221-0.686-0.341c-0.116-0.059-0.218-0.133-0.324-0.204
		c-0.104-0.073-0.214-0.139-0.315-0.217c-0.194-0.162-0.404-0.311-0.58-0.492c-0.372-0.344-0.698-0.729-0.984-1.133
		c-0.293-0.4-0.509-0.836-0.71-1.256c-0.198-0.424-0.338-0.85-0.457-1.248c-0.063-0.225-0.097-0.419-0.143-0.626
		c0.11,0.229,0.23,0.452,0.363,0.669c0.239,0.418,0.539,0.793,0.845,1.164c0.323,0.353,0.655,0.702,1.028,0.998l0.278,0.225
		l0.287,0.209c0.188,0.139,0.399,0.267,0.612,0.395c0.223,0.142,0.398,0.229,0.588,0.323l0.141,0.069l0.104,0.053l0.08,0.037
		c0.107,0.048,0.212,0.101,0.324,0.145c0.442,0.179,0.906,0.344,1.414,0.446c0.508,0.104,1.062,0.16,1.66,0.075
		c0.594-0.075,1.234-0.331,1.717-0.75c0.49-0.416,0.803-0.936,0.992-1.435c0.189-0.503,0.274-0.997,0.314-1.474
		c0.031-0.477,0.02-0.939-0.025-1.391c-0.027-0.262-0.062-0.514-0.104-0.768c0.174-0.018,0.348-0.037,0.522-0.058
		c0.406-0.049,0.811-0.104,1.214-0.175s0.807-0.152,1.209-0.262c0.404-0.107,0.809-0.237,1.211-0.43
		c0.398-0.191,0.805-0.451,1.138-0.838c0.338-0.379,0.57-0.887,0.663-1.396C36.036,22.404,36.02,21.902,35.931,21.428z
		 M34.287,23.643c-0.109,0.27-0.321,0.533-0.601,0.742c-0.277,0.211-0.612,0.371-0.965,0.488c-0.354,0.115-0.727,0.189-1.104,0.23
		s-0.761,0.051-1.144,0.031c-0.377-0.02-0.773-0.063-1.123-0.141l-0.588-0.128l-0.021,0.771c-0.011,0.371-0.049,0.787-0.113,1.17
		c-0.066,0.387-0.148,0.766-0.264,1.116c-0.107,0.35-0.246,0.675-0.406,0.935c-0.158,0.265-0.334,0.455-0.509,0.563
		s-0.354,0.153-0.595,0.156c-0.238,0.004-0.53-0.051-0.838-0.146c-0.307-0.098-0.633-0.23-0.957-0.393l-0.246-0.121l-0.054-0.029
		l-0.01-0.004l-0.034-0.02l-0.139-0.076c-0.181-0.104-0.381-0.207-0.513-0.291c-0.147-0.088-0.296-0.176-0.45-0.281l-0.232-0.146
		l-0.223-0.159c-0.297-0.212-0.582-0.435-0.854-0.675c-0.266-0.245-0.527-0.497-0.764-0.773c-0.237-0.276-0.467-0.564-0.667-0.877
		c-0.249-0.368-0.464-0.769-0.656-1.186c-0.296-0.387-0.575-0.786-0.827-1.199c-0.142,0.207-0.287,0.412-0.432,0.618
		c-0.333,0.472-0.667,0.943-0.985,1.428c-0.171,0.454-0.362,0.894-0.583,1.306c-0.207,0.396-0.441,0.771-0.697,1.117
		c-0.255,0.346-0.535,0.663-0.835,0.95c-0.299,0.29-0.629,0.538-0.968,0.769c-0.346,0.221-0.707,0.422-1.088,0.593
		c-0.381,0.175-0.782,0.315-1.197,0.439c-0.205,0.061-0.424,0.115-0.629,0.163l-0.354,0.076c-0.107,0.021-0.21,0.045-0.323,0.063
		c-0.444,0.077-0.884,0.137-1.305,0.15c-0.419,0.013-0.823-0.016-1.163-0.102c-0.344-0.084-0.608-0.214-0.822-0.399
		c-0.211-0.186-0.381-0.472-0.484-0.847C7.425,29.15,7.392,28.71,7.419,28.26c0.028-0.443,0.11-0.928,0.238-1.346l0.219-0.717
		l-0.65,0.017c-0.404,0.011-0.859-0.028-1.282-0.104c-0.428-0.078-0.848-0.196-1.239-0.369c-0.196-0.084-0.384-0.182-0.559-0.297
		c-0.176-0.111-0.34-0.238-0.482-0.383c-0.288-0.283-0.488-0.629-0.571-0.992c-0.083-0.365-0.055-0.746,0.051-1.117
		c0.107-0.371,0.28-0.732,0.488-1.082c0.208-0.346,0.458-0.688,0.706-1.016l0.102-0.135l0.091-0.107
		c0.056-0.072,0.124-0.149,0.189-0.225c0.133-0.15,0.263-0.299,0.401-0.438c0.551-0.558,1.142-1.056,1.829-1.435
		c0.34-0.195,0.703-0.355,1.077-0.502c0.377-0.141,0.768-0.264,1.172-0.358c0.403-0.099,0.819-0.171,1.243-0.231
		c0.424-0.056,0.856-0.096,1.294-0.119c0.438-0.022,0.883-0.036,1.332-0.029h0.018c-0.747-0.435-1.506-0.85-2.254-1.283
		c-0.252-0.04-0.503-0.088-0.752-0.144c-0.38-0.017-0.764-0.015-1.15,0.015c-0.511,0.041-1.026,0.129-1.534,0.263
		c-0.126-0.049-0.252-0.096-0.375-0.149l-0.567-0.258L5.916,15.43c-0.168-0.111-0.337-0.215-0.505-0.318l-0.466-0.348
		c-0.147-0.123-0.281-0.257-0.422-0.379c-0.137-0.127-0.251-0.275-0.378-0.408c-0.066-0.063-0.116-0.142-0.17-0.215l-0.161-0.22
		c-0.118-0.138-0.189-0.311-0.284-0.464C3.485,13,3.434,12.926,3.394,12.846l-0.107-0.252c-0.16-0.324-0.256-0.688-0.373-1.037
		c-0.035-0.187-0.08-0.369-0.125-0.553l-0.033-0.138l-0.004-0.019L2.75,10.844L2.746,10.82l-0.013-0.083l-0.054-0.329
		c-0.017-0.105-0.045-0.23-0.054-0.318L2.59,9.811C2.563,9.625,2.547,9.434,2.53,9.24C2.505,9.045,2.518,8.867,2.505,8.679
		C2.501,8.586,2.511,8.501,2.513,8.412C2.516,8.324,2.516,8.233,2.53,8.154c0.027-0.342,0.109-0.63,0.218-0.855
		C2.862,7.076,2.995,6.91,3.211,6.785c0.213-0.129,0.506-0.219,0.849-0.27C4.404,6.468,4.788,6.479,5.183,6.51
		C5.38,6.527,5.58,6.555,5.78,6.59c0.194,0.033,0.411,0.084,0.578,0.125l1.065,0.271L7.318,6.114
		c-0.022-0.182-0.024-0.411-0.025-0.62C7.294,5.28,7.301,5.064,7.32,4.851C7.357,4.424,7.438,4,7.564,3.594
		c0.131-0.401,0.307-0.788,0.556-1.11c0.245-0.322,0.558-0.583,0.916-0.718c0.355-0.143,0.75-0.154,1.133-0.079
		c0.384,0.085,0.761,0.225,1.114,0.446c0.179,0.094,0.35,0.227,0.521,0.336c0.084,0.06,0.168,0.126,0.251,0.189l0.125,0.096
		l0.062,0.046l0.027,0.022c-0.001-0.001,0,0-0.016-0.009l0.004,0.004l0.008,0.007l0.016,0.014l0.262,0.221
		c0.083,0.072,0.189,0.147,0.25,0.214c0.139,0.143,0.28,0.254,0.418,0.407C13.5,3.965,13.766,4.26,14.02,4.563
		c0.132,0.146,0.244,0.31,0.372,0.46c0.109,0.165,0.239,0.312,0.344,0.483c0.223,0.326,0.417,0.674,0.604,1.031
		c0.098,0.199,0.189,0.402,0.277,0.607c0.555,0.844,0.986,1.779,1.322,2.748c0.158-0.391,0.321-0.78,0.486-1.17
		c0.05-0.479,0.119-0.951,0.237-1.42c-0.004-0.022-0.008-0.044-0.012-0.065c0.009-0.026,0.016-0.054,0.024-0.08
		c0.074-0.194,0.128-0.392,0.205-0.581c0.082-0.186,0.145-0.379,0.229-0.559c0.093-0.176,0.162-0.361,0.257-0.532
		c0.1-0.167,0.184-0.341,0.284-0.502c0.108-0.157,0.208-0.318,0.315-0.468c0.117-0.145,0.228-0.294,0.346-0.434l0.375-0.397
		c0.141-0.115,0.277-0.234,0.409-0.355c0.292-0.214,0.585-0.426,0.909-0.599c0.148-0.108,0.322-0.178,0.488-0.262
		c0.165-0.089,0.331-0.177,0.512-0.247l0.266-0.113l0.133-0.059l0.1-0.047l0.008-0.003c0.007-0.002-0.039,0.009-0.018,0.004
		l0.005-0.002l0.019-0.006c0.207-0.071,0.412-0.151,0.617-0.227l0.563-0.196c0.19-0.061,0.388-0.112,0.583-0.17
		c0.389-0.084,0.789-0.171,1.174-0.164c0.387-0.001,0.771,0.056,1.1,0.216c0.332,0.158,0.597,0.419,0.771,0.749
		c0.173,0.33,0.259,0.718,0.269,1.115c0.007,0.397-0.045,0.806-0.145,1.201c-0.051,0.198-0.111,0.394-0.182,0.586
		c-0.068,0.187-0.155,0.389-0.236,0.542l-0.377,0.719l0.977,0.102c0.393,0.043,0.832,0.129,1.23,0.233
		c0.406,0.103,0.792,0.245,1.148,0.396c0.354,0.158,0.674,0.344,0.919,0.548c0.249,0.202,0.416,0.419,0.511,0.644
		c0.096,0.225,0.128,0.477,0.102,0.775c-0.029,0.297-0.094,0.623-0.23,0.967c-0.049,0.17-0.143,0.346-0.209,0.52l-0.24,0.494
		l-0.166,0.297c-0.054,0.092-0.11,0.216-0.156,0.278l-0.143,0.228l-0.069,0.113l-0.084,0.118c-0.11,0.159-0.214,0.322-0.337,0.47
		c-0.114,0.156-0.243,0.299-0.367,0.446c-0.12,0.153-0.266,0.28-0.396,0.424c-0.146,0.128-0.279,0.271-0.431,0.394L28.487,14
		l-0.236,0.178c-0.154,0.125-0.324,0.228-0.488,0.344c-0.339,0.212-0.691,0.416-1.063,0.597c-0.195,0.095-0.396,0.185-0.6,0.27
		c-0.641,0.722-1.495,1.245-2.418,1.669c0.377,0.075,0.754,0.141,1.133,0.182c0.359,0.002,0.719-0.01,1.08-0.046
		c0.484-0.054,0.97-0.14,1.452-0.261c0.178-0.045,0.354-0.103,0.529-0.16c0.013,0.004,0.026,0.008,0.04,0.012
		c0.377,0.105,0.744,0.224,1.1,0.347c0.355,0.126,0.699,0.262,1.027,0.412c0.328,0.154,0.641,0.317,0.934,0.503
		c0.587,0.365,1.094,0.802,1.525,1.307c0.215,0.252,0.416,0.52,0.596,0.805c0.181,0.285,0.35,0.582,0.516,0.889
		c0.164,0.305,0.327,0.637,0.464,0.923c0.128,0.282,0.236,0.571,0.284,0.85C34.407,23.094,34.396,23.367,34.287,23.643z"/>
</g>
</svg>
