<?xml version="1.0" encoding="utf-8"?>
<!-- Generator: Adobe Illustrator 16.2.0, SVG Export Plug-In . SVG Version: 6.00 Build 0)  -->
<!DOCTYPE svg PUBLIC "-//W3C//DTD SVG 1.1//EN" "http://www.w3.org/Graphics/SVG/1.1/DTD/svg11.dtd">
<svg version="1.1" id="OBJECTS" xmlns="http://www.w3.org/2000/svg" xmlns:xlink="http://www.w3.org/1999/xlink" x="0px" y="0px"
	 width="21.25px" height="21px" viewBox="0 0 21.25 21" enable-background="new 0 0 21.25 21" xml:space="preserve">
<g>
	<g>
		<path d="M10.275,12.788c0.134-0.102,0.318-0.102,0.452,0l1.75,1.334l6.272-4.779V2.165H2.25v7.178l6.273,4.78L10.275,12.788z
			 M7.125,7.438c0-1.872,1.511-3.391,3.375-3.391c1.863,0.003,3.373,1.52,3.375,3.391v0.754c0.001,0.623-0.501,1.128-1.121,1.13
			c-0.388,0-0.749-0.2-0.954-0.531C11.055,9.51,9.87,9.486,9.154,8.737S8.462,6.798,9.208,6.079c0.745-0.719,1.93-0.694,2.646,0.054
			c0.335,0.352,0.522,0.819,0.521,1.306v0.754c0,0.208,0.168,0.376,0.375,0.376s0.375-0.168,0.375-0.376V7.438
			c0-1.456-1.176-2.637-2.625-2.637c-1.45,0-2.625,1.181-2.625,2.637s1.175,2.637,2.625,2.637h1.125c0.207,0,0.375,0.17,0.375,0.377
			c0,0.208-0.168,0.377-0.375,0.377H10.5C8.636,10.829,7.125,9.312,7.125,7.438z M10.5,6.309c-0.621,0-1.125,0.506-1.125,1.13
			c0,0.625,0.504,1.13,1.125,1.13s1.125-0.505,1.125-1.13C11.625,6.814,11.121,6.309,10.5,6.309z M1.5,6.859L0.245,7.815L1.5,8.771
			V6.859z M0,8.574v12.044l7.902-6.022L0,8.574z M19.5,6.86v1.911l1.254-0.956L19.5,6.86z M13.098,14.596L21,20.618V8.574
			L13.098,14.596z M0.74,21h19.52l-9.76-7.438L0.74,21z M10.5,0L8.648,1.411h3.703L10.5,0z"/>
	</g>
</g>
</svg>
