<?xml version="1.0" encoding="utf-8"?>
<!-- Generator: Adobe Illustrator 16.2.0, SVG Export Plug-In . SVG Version: 6.00 Build 0)  -->
<!DOCTYPE svg PUBLIC "-//W3C//DTD SVG 1.1//EN" "http://www.w3.org/Graphics/SVG/1.1/DTD/svg11.dtd">
<svg version="1.1" id="OBJECTS" xmlns="http://www.w3.org/2000/svg" xmlns:xlink="http://www.w3.org/1999/xlink" x="0px" y="0px"
	 width="267px" height="388.5px" viewBox="0 0 267 388.5" enable-background="new 0 0 267 388.5" xml:space="preserve">
<g>
	<path fill="#F9F0E9" d="M243.074,378.393c-0.414,0-0.75-0.336-0.75-0.75c0-12.883,10.481-23.365,23.365-23.365
		c0.414,0,0.75,0.336,0.75,0.75s-0.336,0.75-0.75,0.75c-12.057,0-21.865,9.809-21.865,21.865
		C243.824,378.057,243.488,378.393,243.074,378.393z"/>
</g>
<g id="BG_41_">
	<path fill="#F9F0E9" d="M243.074,378.393H141.391c-0.414,0-0.75-0.336-0.75-0.75s0.336-0.75,0.75-0.75h101.684
		c0.414,0,0.75,0.336,0.75,0.75S243.488,378.393,243.074,378.393z"/>
</g>
<g id="BG_35_">
	<path fill="#F9F0E9" d="M125.463,378.393H23.914c-0.414,0-0.75-0.336-0.75-0.75s0.336-0.75,0.75-0.75h101.549
		c0.414,0,0.75,0.336,0.75,0.75S125.877,378.393,125.463,378.393z"/>
</g>
<g>
	<path fill="#F9F0E9" d="M23.914,378.393c-0.414,0-0.75-0.336-0.75-0.75c0-12.057-9.809-21.865-21.865-21.865
		c-0.414,0-0.75-0.336-0.75-0.75s0.336-0.75,0.75-0.75c12.884,0,23.365,10.482,23.365,23.365
		C24.664,378.057,24.328,378.393,23.914,378.393z"/>
</g>
<g id="BG_33_">
	<path fill="#F9F0E9" d="M1.299,355.777c-0.414,0-0.75-0.336-0.75-0.75V52.959c0-0.414,0.336-0.75,0.75-0.75s0.75,0.336,0.75,0.75
		v302.068C2.049,355.441,1.713,355.777,1.299,355.777z"/>
</g>
<g>
	<path fill="#F9F0E9" d="M1.299,53.709c-0.414,0-0.75-0.336-0.75-0.75s0.336-0.75,0.75-0.75c12.057,0,21.865-9.809,21.865-21.863
		c0-0.414,0.336-0.75,0.75-0.75s0.75,0.336,0.75,0.75C24.664,43.229,14.183,53.709,1.299,53.709z"/>
</g>
<g id="BG_31_">
	<path fill="#F9F0E9" d="M265.689,355.777c-0.414,0-0.75-0.336-0.75-0.75V52.959c0-0.414,0.336-0.75,0.75-0.75s0.75,0.336,0.75,0.75
		v302.068C266.439,355.441,266.104,355.777,265.689,355.777z"/>
</g>
<g>
	<path fill="#F9F0E9" d="M265.689,53.709c-12.884,0-23.365-10.48-23.365-23.363c0-0.414,0.336-0.75,0.75-0.75s0.75,0.336,0.75,0.75
		c0,12.055,9.809,21.863,21.865,21.863c0.414,0,0.75,0.336,0.75,0.75S266.104,53.709,265.689,53.709z"/>
</g>
<g id="BG_29_">
	<path fill="#F9F0E9" d="M243.074,31.096h-94.683c-0.414,0-0.75-0.336-0.75-0.75s0.336-0.75,0.75-0.75h94.683
		c0.414,0,0.75,0.336,0.75,0.75S243.488,31.096,243.074,31.096z"/>
</g>
<g id="BG_1_">
	<path fill="#F9F0E9" d="M117.463,31.096H23.914c-0.414,0-0.75-0.336-0.75-0.75s0.336-0.75,0.75-0.75h93.549
		c0.414,0,0.75,0.336,0.75,0.75S117.877,31.096,117.463,31.096z"/>
</g>
<g>
	<path fill="#AD1F23" d="M258.458,371.57H148.785c-0.193,0-0.379-0.078-0.516-0.215c-4.749-4.748-9.734-7.154-14.817-7.154
		c-8.644,0-14.769,7.041-14.829,7.113c-0.139,0.162-0.342,0.256-0.555,0.256H8.416c-0.403,0-0.729-0.326-0.729-0.73V37.146
		c0-0.402,0.326-0.73,0.729-0.73h109.652c0.213,0,0.416,0.094,0.555,0.256c0.061,0.07,6.192,7.105,14.838,7.105
		c5.084-0.002,10.066-2.404,14.809-7.146c0.137-0.137,0.322-0.215,0.516-0.215h109.673c0.403,0,0.729,0.328,0.729,0.73V370.84
		C259.188,371.244,258.861,371.57,258.458,371.57z M149.086,370.111h108.643V37.875H149.086c-4.963,4.885-10.218,7.361-15.625,7.361
		c-8.465,0-14.479-6.014-15.719-7.361H9.146v332.236h108.596c1.241-1.352,7.247-7.371,15.711-7.371
		C138.858,362.74,144.117,365.221,149.086,370.111z"/>
</g>
<g>
	<g>
		<path fill-rule="evenodd" clip-rule="evenodd" fill="#AD1F23" d="M116.321,26.512c-1.14,0.254-1.816-0.361-2.103-1.234
			c-0.487-1.479-0.899-3-1.143-4.533c-0.217-1.379,0.434-1.949,1.854-1.904c0.394,0.012,0.784,0.104,1.229,0.164
			c0.219-0.592,0.467-1.203,0.654-1.83c0.049-0.156-0.053-0.41-0.169-0.553c-2.275-2.816-1.787-6.535-0.186-9.287
			c0.133-0.228,0.494-0.47,0.728-0.45c0.237,0.02,0.539,0.314,0.654,0.561c0.628,1.358,1.528,2.486,2.679,3.432
			c0.375,0.309,0.63,0.326,1.087,0.016c1.53-1.037,3.131-1.978,4.642-2.916c-0.067-1.021-0.307-2.144-0.182-3.223
			c0.293-2.527,2.125-4.204,4.796-4.597c0.604-0.088,1.216-0.144,1.825-0.156c0.662-0.015,0.894,0.359,0.762,0.993
			c-0.109,0.54-0.203,1.083-0.28,1.499c1.247-0.153,2.435-0.4,3.626-0.423c2.145-0.039,4.16,1.533,4.777,3.58
			c0.233,0.768,0.016,1.103-0.779,1.188c-0.318,0.033-0.639,0.04-0.955,0.085c-0.18,0.025-0.354,0.102-0.672,0.197
			c0.241,0.271,0.393,0.604,0.633,0.689c2.224,0.794,4.259,1.918,6.094,3.461c1.403-0.91,2.406-2.111,3.152-3.561
			c0.175-0.338,0.579-0.847,0.792-0.808c0.35,0.063,0.74,0.457,0.913,0.809c1.495,3.04,1.778,6.045-0.403,8.936
			c-0.115,0.152-0.088,0.418-0.115,0.631c-0.006,0.047,0.036,0.098,0.055,0.148c0.183,0.521,0.362,1.043,0.531,1.529
			c0.646-0.037,1.251-0.119,1.849-0.09c0.762,0.039,1.306,0.596,1.287,1.359c-0.044,1.854-0.4,3.643-1.281,5.297
			c-0.415,0.779-1.031,1.207-1.764,1.049c-0.977,1.678-1.756,3.385-2.864,4.842c-2.785,3.66-6.613,5.672-11.103,6.457
			c-0.65,0.113-1.119,0.328-1.465,0.91c-0.327,0.545-0.747,1.035-1.148,1.533c-0.684,0.844-0.973,0.838-1.669-0.027
			c-0.385-0.477-0.792-0.945-1.102-1.469c-0.359-0.607-0.854-0.824-1.528-0.947c-5.217-0.977-9.418-3.514-12.242-8.111
			c-0.305-0.496-0.552-1.031-0.793-1.561C116.756,27.668,116.561,27.119,116.321,26.512z M136.986,36.514
			c5.008-1.115,8.961-3.512,11.37-8.014c1.819-3.406,2-6.965,0.623-10.662c-1.481,0.936-2.724,0.518-3.908-0.396
			c-1.014-0.781-1.606-1.814-1.866-3.061c-0.178-0.851,0.11-1.511,0.736-2.057c0.17-0.147,0.359-0.27,0.69-0.515
			c-1.598-0.893-3.085-1.723-4.656-2.602c-0.316,3.023-1.347,4.455-3.878,5.603c-0.784,0.354-1.112,0.172-1.247-0.703
			c-0.033-0.211-0.034-0.426-0.068-0.635c-0.288-1.834-0.923-3.505-2.389-4.728c-0.294-0.246-0.769-0.453-1.131-0.41
			c-3.232,0.375-6.165,1.524-8.785,3.597c0.852,0.473,1.443,1.116,1.385,2.098c-0.139,2.215-2.846,5.502-5.874,3.861
			c-1.408,3.967-1.12,7.762,1.07,11.332c2.486,4.059,6.25,6.266,10.956,7.275c-0.313-0.646-0.581-1.137-0.791-1.648
			c-0.4-0.969-0.091-1.936,0.774-2.516c1.919-1.295,5.05-1.307,6.974-0.027c0.911,0.607,1.221,1.568,0.799,2.574
			C137.559,35.391,137.295,35.879,136.986,36.514z M129.402,7.224c0.071-1.059,0.366-1.248,1.381-0.918
			c2.061,0.668,3.559,1.998,4.454,3.952c0.414,0.903,0.666,1.877,0.993,2.822c1.97-0.649,2.871-2.82,1.899-5.012
			c-0.665-1.503,0.086-2.313,1.385-2.483c0.123-0.016,0.242-0.052,0.422-0.092c-0.38-0.954-1.053-1.53-1.936-1.812
			c-1.356-0.432-2.705-0.433-4.026,0.226c-1.205,0.602-2.115,0-2.116-1.356c0-0.367,0-0.731,0-1.097
			c-3.681,0.183-5.372,2.86-4.032,6.184C128.351,7.499,128.883,7.36,129.402,7.224z M149.888,9.176
			c-0.025,0.008-0.061,0.009-0.075,0.027c-0.144,0.191-0.284,0.38-0.421,0.575c-0.999,1.425-2.282,2.515-3.854,3.265
			c-1.146,0.549-1.274,0.867-0.677,2.01c0.206,0.395,0.48,0.773,0.799,1.084c1.19,1.17,2.193,1.135,3.36-0.068
			C150.675,14.365,151.034,11.498,149.888,9.176z M117.09,8.984c-0.193,0.673-0.373,1.173-0.476,1.687
			c-0.442,2.185,0.004,4.128,1.679,5.681c0.513,0.479,1.125,0.861,1.874,0.555c1.184-0.486,1.93-1.381,2.27-2.609
			c0.128-0.461,0.02-0.838-0.475-1.037C119.923,12.432,118.363,11.033,117.09,8.984z M133.373,39.271
			c1.4-1.656,2.39-3.242,3.126-4.979c0.086-0.207-0.127-0.689-0.342-0.852c-1.246-0.939-4.051-0.947-5.296-0.006
			c-0.229,0.172-0.442,0.721-0.334,0.916C131.405,35.969,132.36,37.547,133.373,39.271z M151.046,25.164
			c0.078,0.016,0.154,0.029,0.23,0.045c0.942-1.531,1.278-3.221,1.301-5.025c-1.382,0.012-1.488,0.129-1.372,1.291
			c0.042,0.447,0.057,0.904,0.031,1.354C151.194,23.609,151.111,24.385,151.046,25.164z M114.535,20.189
			c-0.307,1.359,0.497,4.309,1.431,5.043c-0.023-0.338-0.05-0.617-0.063-0.896c-0.039-0.953-0.138-1.912-0.094-2.861
			C115.87,20.303,115.81,20.189,114.535,20.189z"/>
		<path fill-rule="evenodd" clip-rule="evenodd" fill="#AD1F23" d="M122.865,20.516c-0.061-0.355-0.288-0.83-0.141-1.035
			c0.16-0.225,0.701-0.344,1.017-0.266c1.439,0.359,2.865,0.785,4.279,1.234c0.26,0.082,0.564,0.336,0.644,0.576
			c0.058,0.182-0.222,0.465-0.336,0.711c-0.101,0.215-0.254,0.438-0.261,0.66c-0.036,0.957-0.249,1.844-0.881,2.588
			c-1.076,1.27-2.858,1.23-3.841-0.117C122.355,23.508,122.414,22.047,122.865,20.516z M126.654,22.58
			c0.017-1.055-0.06-1.141-1.293-1.492c-0.934-0.266-1.085-0.189-1.308,0.756c-0.073,0.303-0.116,0.633-0.08,0.939
			c0.125,1.086,0.72,1.801,1.4,1.754C126.071,24.488,126.64,23.617,126.654,22.58z"/>
		<path fill-rule="evenodd" clip-rule="evenodd" fill="#AD1F23" d="M144.117,20.531c0.427,1.359,0.501,2.676-0.206,3.957
			c-1.047,1.885-3.361,1.906-4.415,0.023c-0.278-0.496-0.427-1.09-0.521-1.656c-0.085-0.504,0.007-0.969-0.531-1.369
			c-0.394-0.295-0.156-0.844,0.33-0.992c1.571-0.48,3.156-0.924,4.749-1.326c0.23-0.059,0.739,0.154,0.771,0.311
			C144.36,19.805,144.19,20.178,144.117,20.531z M143.088,22.459c0.05-0.035,0.099-0.068,0.147-0.104
			c-0.303-0.48-0.52-1.27-0.925-1.385c-1.126-0.318-2.018,0.596-1.952,1.777c0.053,0.945,0.627,1.752,1.282,1.789
			c0.629,0.037,1.149-0.547,1.354-1.531C143.033,22.824,143.058,22.641,143.088,22.459z"/>
		<path fill-rule="evenodd" clip-rule="evenodd" fill="#AD1F23" d="M133.53,30.027c-1.156-0.084-2.215-0.361-2.895-1.332
			c-0.273-0.389-0.42-0.908-0.479-1.387c-0.025-0.203,0.317-0.641,0.491-0.639c0.26,0.002,0.66,0.24,0.752,0.477
			c0.428,1.092,0.932,1.477,2.146,1.471c1.146-0.004,1.631-0.387,2.057-1.48c0.092-0.229,0.5-0.537,0.672-0.488
			c0.246,0.07,0.592,0.451,0.571,0.668c-0.047,0.477-0.206,0.996-0.48,1.385C135.682,29.668,134.619,29.938,133.53,30.027z"/>
		<path fill-rule="evenodd" clip-rule="evenodd" fill="#AD1F23" d="M133.521,25.904c-0.516-0.076-1.315,0.236-1.326-0.666
			c-0.01-0.916,0.793-0.656,1.319-0.658c0.529-0.004,1.322-0.244,1.3,0.68C134.792,26.104,134.044,25.844,133.521,25.904z"/>
	</g>
</g>
<path fill="#AD1F23" d="M138.751,372.941l-0.679-0.551l-0.315,0.816c-0.006,0.014-0.612,1.549-1.545,1.268
	c-0.206-0.061-0.344-0.182-0.434-0.375c-0.232-0.496-0.135-1.393,0.249-2.285c0.531-1.234,0.299-2.525-0.671-3.738
	c-0.682-0.854-1.501-1.369-1.536-1.393l-0.993-0.617l0.021,1.17c0.001,0.02,0.022,2.1-1.517,2.861
	c-0.943,0.469-1.619,1.24-1.901,2.176c-0.265,0.875-0.154,1.832,0.305,2.625c0.188,0.324,0.244,0.602,0.17,0.82
	c-0.108,0.311-0.457,0.473-0.562,0.514c-1.1,0.441-1.821-1.033-1.85-1.094l-0.502-1.072l-0.615,1.012
	c-0.79,1.297-1.208,2.791-1.208,4.318c0,4.557,3.681,8.27,8.225,8.324c0.034,0,0.066,0,0.101,0l0,0l0,0
	c4.59,0,8.325-3.732,8.325-8.324C141.819,376.883,140.701,374.531,138.751,372.941z M130.891,383.848v-0.006
	c-0.006-0.508,0.09-1.049,0.286-1.619l1.565,0.459l0.016-0.83c0.023-1.271,0.741-2.053,1.314-2.475
	c0.146,0.641,0.376,1.209,0.693,1.727c0.36,0.59,0.702,1.088,1.017,1.539c0.204,0.291,0.318,0.73,0.316,1.203v0.002
	c0,0.695-0.271,1.35-0.763,1.842c-0.492,0.492-1.146,0.762-1.842,0.762h-0.001C132.06,386.451,130.891,385.285,130.891,383.848
	L130.891,383.848z M136.988,385.523c0.249-0.516,0.379-1.084,0.379-1.674c0.004-0.738-0.188-1.426-0.543-1.934
	c-0.352-0.504-0.652-0.947-0.977-1.477c-0.36-0.59-0.579-1.285-0.664-2.127l-0.084-0.822l-0.772,0.293
	c-0.072,0.029-0.727,0.285-1.397,0.895c-0.712,0.645-1.171,1.443-1.354,2.34l-1.136-0.33l-0.223,0.51
	c-0.406,0.924-0.606,1.818-0.597,2.654c0,0.602,0.138,1.168,0.383,1.674c-2.127-1.215-3.564-3.508-3.564-6.129
	c0-0.953,0.191-1.891,0.56-2.756c0.056,0.061,0.116,0.125,0.18,0.184c0.777,0.75,1.714,0.957,2.638,0.586
	c0.624-0.248,1.094-0.717,1.287-1.277c0.139-0.4,0.204-1.049-0.269-1.869c-0.288-0.498-0.355-1.074-0.188-1.623
	c0.18-0.596,0.623-1.096,1.249-1.404c1.315-0.652,1.854-1.877,2.073-2.803c0.139,0.135,0.281,0.289,0.415,0.459
	c0.652,0.826,0.813,1.641,0.478,2.422c-0.536,1.246-0.624,2.488-0.234,3.324c0.244,0.521,0.666,0.887,1.221,1.053
	c0.871,0.262,1.723-0.043,2.399-0.857c0.106-0.127,0.2-0.256,0.28-0.381c1.294,1.314,2.021,3.078,2.021,4.943
	C140.549,382.018,139.114,384.307,136.988,385.523L136.988,385.523z"/>
<g>
	<path fill="#AD1F23" d="M214.059,25.383c-4.188,0-8.551-1.568-12.312-4.533c-2.445-1.926-4.793-3.98-7.063-5.969
		c-6.392-5.595-12.43-10.879-18.185-10.879c-7.606,0-12.577,7.705-12.627,7.782c-0.216,0.34-0.667,0.441-1.007,0.227
		c-0.341-0.217-0.441-0.667-0.226-1.008c0.219-0.345,5.459-8.459,13.859-8.459c6.304,0,12.542,5.46,19.146,11.241
		c2.257,1.975,4.59,4.018,7.005,5.92c4.836,3.811,10.705,5.146,15.705,3.574c2.775-0.873,4.972-2.6,6.272-4.869
		c-1.158-0.25-2.277-0.615-3.352-1.096c-4.708-2.109-8.174-6.34-8.832-10.781c-0.299-2.015,0.485-2.927,1.196-3.338
		c2.011-1.162,5.582,0.435,8.228,2.533c3.268,2.59,6.306,6.858,5.033,11.067c-0.048,0.16-0.1,0.316-0.154,0.473
		c5.176,0.529,11.086-1.252,17.13-5.229c0.338-0.221,0.79-0.127,1.011,0.209c0.222,0.336,0.128,0.789-0.208,1.011
		c-6.507,4.278-12.918,6.122-18.532,5.411c-1.439,2.816-4.033,4.955-7.354,6.002C217.271,25.148,215.678,25.383,214.059,25.383z
		 M215.252,4.267c-0.364,0-0.664,0.064-0.883,0.19c-0.463,0.268-0.626,0.894-0.482,1.86c0.48,3.245,3.136,7.491,7.984,9.663
		c1.084,0.484,2.221,0.84,3.4,1.068c0.085-0.221,0.163-0.447,0.232-0.678c1.061-3.51-1.651-7.209-4.543-9.501
		C218.735,5.105,216.57,4.267,215.252,4.267z"/>
</g>
<g>
	<path fill="#AD1F23" d="M243.548,21.506c-0.062,0-0.124-0.008-0.186-0.023c-0.322-0.084-0.545-0.377-0.544-0.709l0.031-8.156
		l-6.763-4.607c-0.277-0.189-0.39-0.544-0.272-0.858c0.118-0.314,0.428-0.508,0.77-0.469l13.649,1.612
		c0.242,0.029,0.454,0.176,0.564,0.394s0.105,0.476-0.014,0.688l-6.6,11.757C244.053,21.367,243.807,21.506,243.548,21.506z
		 M239.37,8.481l4.622,3.148c0.2,0.137,0.319,0.363,0.318,0.606l-0.022,5.731l4.688-8.352L239.37,8.481z"/>
</g>
<g>
	<path fill="#AD1F23" d="M51.272,25.383c-1.654,0-3.281-0.24-4.835-0.73c-3.326-1.051-5.926-3.184-7.372-5.986
		c-5.669,0.713-12.144-1.127-18.72-5.408c-0.337-0.219-0.433-0.672-0.213-1.009c0.219-0.337,0.67-0.435,1.01-0.214
		c6.111,3.98,12.09,5.762,17.317,5.23c-0.055-0.154-0.106-0.311-0.155-0.469c-1.273-4.173,1.744-8.418,4.993-11
		C46,3.648,49.644,2.012,51.697,3.197c0.712,0.412,1.498,1.324,1.197,3.335c-0.66,4.409-4.129,8.626-8.837,10.743
		c-1.111,0.5-2.27,0.877-3.469,1.133c1.307,2.256,3.509,3.975,6.288,4.854c5.061,1.598,11.017,0.27,15.925-3.561
		c2.44-1.902,4.798-3.945,7.077-5.92c6.669-5.78,12.97-11.239,19.332-11.239c8.48,0,13.771,8.112,13.992,8.457
		c0.218,0.339,0.118,0.79-0.221,1.007c-0.34,0.218-0.79,0.118-1.008-0.22c-0.05-0.078-5.091-7.786-12.764-7.786
		c-5.818,0-11.919,5.286-18.377,10.883c-2.293,1.986-4.664,4.041-7.134,5.967C59.9,23.816,55.498,25.383,51.272,25.383z
		 M50.06,4.265c-1.354,0-3.573,0.861-5.854,2.673c-2.873,2.284-5.564,5.96-4.505,9.431c0.07,0.232,0.149,0.459,0.235,0.682
		c1.225-0.232,2.4-0.602,3.522-1.105c4.853-2.182,7.511-6.409,7.992-9.629c0.145-0.962-0.019-1.586-0.484-1.855
		C50.742,4.331,50.434,4.265,50.06,4.265z"/>
</g>
<g>
	<path fill="#AD1F23" d="M21.481,21.506c-0.258,0-0.503-0.137-0.635-0.369L14.18,9.379c-0.12-0.213-0.127-0.472-0.016-0.69
		c0.11-0.218,0.322-0.366,0.565-0.395l13.788-1.612c0.341-0.038,0.653,0.156,0.77,0.471c0.116,0.315,0.003,0.67-0.276,0.858
		l-6.831,4.607l0.031,8.154c0.001,0.332-0.222,0.623-0.542,0.709C21.606,21.498,21.544,21.506,21.481,21.506z M15.992,9.616
		l4.749,8.376l-0.022-5.757c-0.001-0.243,0.119-0.472,0.321-0.608l4.666-3.147L15.992,9.616z"/>
</g>
</svg>
