<?xml version="1.0" encoding="utf-8"?>
<!-- Generator: Adobe Illustrator 16.2.0, SVG Export Plug-In . SVG Version: 6.00 Build 0)  -->
<!DOCTYPE svg PUBLIC "-//W3C//DTD SVG 1.1//EN" "http://www.w3.org/Graphics/SVG/1.1/DTD/svg11.dtd">
<svg version="1.1" id="OBJECTS" xmlns="http://www.w3.org/2000/svg" xmlns:xlink="http://www.w3.org/1999/xlink" x="0px" y="0px"
	 width="72px" height="39px" viewBox="0 0 72 39" enable-background="new 0 0 72 39" xml:space="preserve">
<g>
	<path d="M62.942,29.502c-0.122-0.305-0.409-0.504-0.729-0.504H9.789c-0.319,0-0.606,0.199-0.729,0.504
		c-0.122,0.306-0.055,0.658,0.171,0.893c2.987,3.1,6.96,4.807,11.186,4.807h3.991v1.979c0,0.452,0.354,0.818,0.788,0.818h21.609
		c0.436,0,0.788-0.366,0.788-0.818v-1.979h3.992c4.226,0,8.197-1.707,11.186-4.807C62.996,30.16,63.064,29.808,62.942,29.502z
		 M51.586,33.565h-6.672c-0.436,0-0.788,0.366-0.788,0.818c0,0.451,0.353,0.817,0.788,0.817h1.104v1.16H25.984v-1.16h10.218
		c0.436,0,0.788-0.366,0.788-0.817c0-0.452-0.353-0.818-0.788-0.818H20.417c-3.113,0-6.073-1.028-8.521-2.933h48.209
		C57.659,32.537,54.698,33.565,51.586,33.565z"/>
	<path d="M7.617,10.675V8.308V0.762C7.617,0.341,7.276,0,6.855,0S6.094,0.341,6.094,0.762v9.14H4.57v-9.14
		C4.57,0.341,4.229,0,3.809,0S3.047,0.341,3.047,0.762v9.14H1.523v-9.14C1.523,0.341,1.183,0,0.762,0S0,0.341,0,0.762v9.901
		c0,1.202,0.574,2.332,1.523,3.046v12.477c-0.463,4.246-0.762,9.049-0.762,9.766c0,1.68,1.367,3.047,3.047,3.047
		s3.047-1.367,3.047-3.047c0-0.536-0.446-6.533-0.446-6.533l-0.315-3.45V13.709C7.04,12.998,7.613,11.872,7.617,10.675z
		 M3.809,37.475c-0.84,0-1.523-0.684-1.523-1.523c0-0.581,0.762-9.697,0.762-9.726v-2.233H4.57v2.233
		c0,0.028,0.762,9.145,0.762,9.726C5.332,36.791,4.648,37.475,3.809,37.475z M3.047,22.469v-1.523H4.57v1.523H3.047z M4.95,12.643
		c-0.235,0.136-0.38,0.387-0.38,0.658v6.121H3.047v-6.121c0-0.271-0.145-0.522-0.381-0.658c-0.477-0.276-0.831-0.713-1.011-1.218
		h4.307C5.782,11.93,5.428,12.366,4.95,12.643z"/>
	<path d="M71.238,26.186V0.762c0-0.326-0.207-0.615-0.516-0.721c-0.308-0.105-0.649-0.003-0.849,0.254
		c-2.12,2.74-3.622,5.924-4.393,9.295l-0.331,2.209l-0.006,6.861c0,0.202,0.08,0.396,0.223,0.539l1.301,1.301v3.535l0.038,2.281
		c-0.349,3.658-0.8,9.027-0.8,9.635c0,1.68,1.367,3.047,3.047,3.047S72,37.631,72,35.951C72,35.234,71.701,30.432,71.238,26.186z
		 M66.668,18.346l0.006-6.9c0.457-2.922,1.497-5.73,3.041-8.244v16.221h-1.97L66.668,18.346z M69.715,20.945v1.523h-1.523v-1.523
		H69.715z M68.953,37.475c-0.84,0-1.523-0.684-1.523-1.523c0-0.581,0.762-9.697,0.762-9.726v-2.233h1.523v2.233
		c0,0.028,0.762,9.145,0.762,9.726C70.477,36.791,69.793,37.475,68.953,37.475z"/>
</g>
</svg>
