<?xml version="1.0" encoding="utf-8"?>
<!-- Generator: Adobe Illustrator 16.2.0, SVG Export Plug-In . SVG Version: 6.00 Build 0)  -->
<!DOCTYPE svg PUBLIC "-//W3C//DTD SVG 1.1//EN" "http://www.w3.org/Graphics/SVG/1.1/DTD/svg11.dtd">
<svg version="1.1" id="OBJECTS" xmlns="http://www.w3.org/2000/svg" xmlns:xlink="http://www.w3.org/1999/xlink" x="0px" y="0px"
	 width="35.875px" height="35.875px" viewBox="0 0 35.875 35.875" enable-background="new 0 0 35.875 35.875" xml:space="preserve">
<g>
	<path d="M4.176,18.322V9.273l3.335,4.29h0.561l0.271-0.475l0.561,1.43c1.722,3.438,4.039,5.5,6.949,6.189v-0.473l0.281-0.482
		v-0.473c-1.482-1.518-2.223-4.377-2.223-8.578h0.279l0.281-1.429l0.27-0.472h1.674V8.326c0-1.169-1.205-2.282-3.616-3.341h-0.561
		l-0.27,0.483l0.27,2.857l-0.27,6.665l-3.345-4.76H8.342l-0.271,0.472C5.949,6.577,4.65,4.512,4.176,4.512
		C1.392,5.899,0,7.17,0,8.326v0.476h1.672c0.313,0,0.591,0.794,0.831,2.384l-0.28,0.473c0,4.086-0.647,6.629-1.943,7.621v0.955
		l0.281,0.473C2.971,19.787,4.176,18.992,4.176,18.322z M15.563,13.709c0.486,3.207,1.701,4.811,3.645,4.811l0.73-2.189
		c-1.215-1.512-1.822-2.826-1.822-3.943c0-2.247,1.455-3.705,4.367-4.376c0.814,0,1.666,0.438,2.553,1.312h0.371V8.889
		c1.145,0,2.059,0.208,2.752,0.615c0.721-0.662,1.557-1.179,2.398-1.676c0.021-0.014,0.043-0.021,0.064-0.033
		c-0.342-0.295-0.715-0.539-1.09-0.791c-0.408-0.271-0.807-0.546-1.17-0.858c-1.729-0.332-2.596-0.731-2.596-1.201V4.512
		l-2.182,0.433c-5.348,1.19-8.021,3.819-8.021,7.887V13.709z M22.852,15.896h-0.73c-1.215,0-1.943,0.438-2.184,1.311l1.092,3.5
		h2.184c5.52-1.205,8.531-3.605,9.035-7.199c-0.84-0.016-1.678-0.051-2.516-0.127c-0.225,1.936-1.662,3.215-4.326,3.826
		C24.592,17.207,23.74,16.771,22.852,15.896z M35.021,6.606c-0.594-0.516-1.473-0.948-1.643-1.031
		c-0.197-0.098-0.41-0.195-0.607-0.307c-0.043-0.027-0.086-0.056-0.129-0.069l0.113-3.289h0.17c0.213-0.014,0.865,0.098,1.359,0.543
		c0.086,0.07,0.156,0.139,0.227,0.223l-0.438,0.753l0.621-0.14l1.119-1.226c-0.184-0.099-0.326-0.167-0.396-0.195
		c-0.297-0.125-0.707-0.237-0.764-0.251c-0.893-0.224-1.486-0.237-1.883-0.264L32.855,0l-0.65,0.934v0.433
		c-0.566,0.097-0.807,0.168-1.09,0.278c-0.865,0.334-1.346,0.864-1.559,1.157c-0.424,0.614-0.48,1.281-0.48,1.534
		c0,0.138,0.014,0.474,0.156,0.85c0.324,0.892,1.004,1.296,1.811,1.741l0.213,0.098c0.086,0.056,0.184,0.098,0.283,0.14
		c0.17,0.082,0.34,0.153,0.496,0.251v3.65c-0.016,0-0.184,0.016-0.313,0.016c-0.891,0-1.727-0.559-1.896-0.684
		c-0.113-0.068-0.17-0.124-0.27-0.208l0.482-0.795l-0.652,0.125l-1.174,1.324c0.154,0.084,0.311,0.154,0.48,0.208
		c0.297,0.111,0.609,0.195,0.92,0.277c0.623,0.143,1.176,0.268,2.422,0.295v1.604l0.594-1.104v-0.527
		c1.289-0.086,2.619-0.656,3.143-1.923c0.199-0.475,0.227-0.879,0.227-1.074C35.998,7.499,35.318,6.857,35.021,6.606z M32.063,4.878
		c-0.34-0.209-0.65-0.446-0.834-0.822C31.143,3.875,31.1,3.693,31.1,3.484c0-0.502,0.256-0.835,0.383-0.975
		c0.127-0.126,0.369-0.307,0.537-0.404c0.029-0.014,0.072-0.042,0.156-0.069L32.063,4.878z M32.912,10.772
		c-0.127,0.07-0.227,0.111-0.283,0.127V7.72c0.609,0.35,0.863,0.753,0.977,1.031c0.072,0.182,0.1,0.349,0.1,0.558
		C33.705,9.909,33.422,10.454,32.912,10.772z M32.191,26.832c-0.715,0.221-1.416,0.475-2.111,0.74l-1.035,0.412l-1.025,0.434
		c-0.064,0.029-0.127,0.059-0.191,0.088l0.041-0.268c0.098-0.592,0.209-1.178,0.326-1.764l0.363-1.754l0.369-1.727l0.467-2.182
		l-2.25,0.801c-0.346,0.121-0.676,0.275-1.021,0.395l-0.512,0.191l-0.52,0.178c-0.344,0.125-0.697,0.225-1.049,0.336
		c-0.355,0.092-0.709,0.199-1.072,0.275l-0.543,0.117l-0.549,0.098c-0.367,0.066-0.738,0.123-1.109,0.184
		c-0.373,0.057-0.748,0.119-1.127,0.166c-0.379,0.051-0.762,0.09-1.146,0.121l-0.58,0.035l-0.58,0.008
		c-0.387-0.01-0.775-0.027-1.16-0.074c-0.385-0.041-0.766-0.111-1.145-0.191c-0.379-0.084-0.752-0.189-1.117-0.318
		c-0.733-0.252-1.431-0.604-2.098-0.992c-0.336-0.188-0.661-0.393-0.984-0.59l-0.479-0.295c-0.155-0.092-0.324-0.201-0.448-0.279
		l-1.996-1.27l0.512,2.51l0.159,0.777c0.056,0.275,0.119,0.551,0.163,0.834c0.052,0.279,0.091,0.563,0.131,0.848
		c0.037,0.285,0.068,0.572,0.097,0.859l0.037,0.436l0.028,0.438l0.02,0.441C9.063,27,9.06,27.148,9.068,27.299
		c0.001,0.299,0.009,0.605,0.001,0.914l-0.004,0.445c-0.357-0.125-0.715-0.244-1.075-0.361c-0.364-0.115-0.725-0.236-1.091-0.346
		c-0.73-0.221-1.463-0.434-2.202-0.629c-0.369-0.1-0.74-0.191-1.112-0.281c-0.374-0.084-0.745-0.176-1.123-0.248
		c0.33,0.195,0.665,0.375,0.996,0.564l0.999,0.551c0.666,0.365,1.335,0.721,2.002,1.076l4.001,2.104l1.987,1.049
		c0.659,0.354,1.312,0.713,1.962,1.068l0.963,0.549c0.322,0.18,0.639,0.367,0.951,0.557c0.314,0.186,0.617,0.385,0.922,0.576
		l0.449,0.293l0.432,0.303l0.641,0.447l0.682-0.393c0.629-0.361,1.256-0.74,1.885-1.109c0.633-0.365,1.252-0.752,1.881-1.123
		l1.869-1.145c0.621-0.387,1.244-0.768,1.859-1.16l1.852-1.174l1.846-1.188l1.848-1.188c0.309-0.195,0.619-0.395,0.934-0.582
		c0.311-0.201,0.631-0.375,0.957-0.559c-0.371,0.047-0.74,0.127-1.104,0.215C32.908,26.617,32.547,26.721,32.191,26.832z M26,29.336
		c-0.67,0.313-1.328,0.645-1.988,0.975c-0.33,0.164-0.654,0.338-0.982,0.508c-0.326,0.172-0.654,0.34-0.977,0.518
		c-0.645,0.354-1.295,0.699-1.932,1.068c-0.418,0.24-0.832,0.484-1.248,0.727l-0.342-0.219c-0.336-0.207-0.678-0.402-1.018-0.592
		s-0.682-0.375-1.025-0.555c-0.344-0.178-0.691-0.344-1.037-0.514c-0.348-0.164-0.693-0.332-1.045-0.488l-1.052-0.461
		c-0.703-0.305-1.416-0.582-2.126-0.861c-0.542-0.203-1.086-0.398-1.632-0.592c0.093-0.137,0.184-0.277,0.264-0.418
		c0.168-0.289,0.312-0.592,0.438-0.9c0.123-0.313,0.229-0.629,0.312-0.957c0.084-0.322,0.15-0.654,0.194-0.988
		c0.045-0.332,0.071-0.668,0.079-1.006c0.005-0.168,0.002-0.336-0.004-0.506c-0.006-0.168-0.012-0.338-0.029-0.504
		c-0.007-0.07-0.022-0.139-0.03-0.209c0.163,0.037,0.326,0.08,0.489,0.113c0.402,0.082,0.805,0.146,1.204,0.217
		c0.398,0.072,0.796,0.137,1.188,0.215c0.395,0.072,0.785,0.156,1.176,0.24l1.17,0.256l1.174,0.264
		c0.395,0.086,0.789,0.18,1.189,0.258c0.201,0.045,0.402,0.078,0.604,0.115c0.201,0.039,0.404,0.076,0.607,0.1
		c0.205,0.027,0.41,0.061,0.615,0.082l0.617,0.051c0.207,0.018,0.414,0.02,0.621,0.021c0.207,0.004,0.416,0.008,0.623-0.006
		l0.623-0.033l0.623-0.061c0.207-0.016,0.414-0.045,0.621-0.076s0.416-0.055,0.621-0.094c0.41-0.082,0.826-0.15,1.23-0.266
		c0.145-0.039,0.289-0.078,0.434-0.117c-0.01,0.582,0.006,1.164,0.063,1.748c0.061,0.645,0.162,1.289,0.336,1.926
		c0.045,0.158,0.088,0.316,0.145,0.473c0.02,0.055,0.041,0.107,0.063,0.162C26.568,29.078,26.281,29.201,26,29.336z"/>
</g>
</svg>
