<?xml version="1.0" encoding="utf-8"?>
<!-- Generator: Adobe Illustrator 16.2.0, SVG Export Plug-In . SVG Version: 6.00 Build 0)  -->
<!DOCTYPE svg PUBLIC "-//W3C//DTD SVG 1.1//EN" "http://www.w3.org/Graphics/SVG/1.1/DTD/svg11.dtd">
<svg version="1.1" id="OBJECTS" xmlns="http://www.w3.org/2000/svg" xmlns:xlink="http://www.w3.org/1999/xlink" x="0px" y="0px"
	 width="25.938px" height="24px" viewBox="0 0 25.938 24" enable-background="new 0 0 25.938 24" xml:space="preserve">
<path d="M24.14,12.386l0.088-0.105c1.119-1.353,1.71-2.995,1.71-4.748C25.938,3.379,22.509,0,18.293,0
	c-1.957,0-3.821,0.734-5.25,2.068l-0.105,0.098l-0.105-0.098C11.403,0.734,9.539,0,7.581,0C3.366,0-0.063,3.379-0.063,7.532
	c0,1.938,0.752,3.782,2.116,5.192l0.089,0.092l-0.077,0.102c-0.316,0.42-0.483,0.908-0.483,1.414c0,1.283,1.022,2.322,2.327,2.368
	l0.144,0.005l0.005,0.141c0.045,1.236,1.063,2.24,2.318,2.285l0.143,0.004l0.005,0.142c0.045,1.237,1.063,2.241,2.318,2.284
	l0.144,0.006l0.005,0.139C9.035,22.992,10.091,24,11.393,24c0.201,0,0.417-0.033,0.658-0.102l1.202-0.758l0.086,0.064
	C13.765,23.525,14.778,24,15.304,24c1.302,0,2.357-1.008,2.403-2.295l0.005-0.139l0.144-0.006c1.256-0.043,2.273-1.047,2.318-2.284
	l0.005-0.142l0.144-0.004c1.255-0.045,2.273-1.049,2.318-2.285l0.005-0.141l0.143-0.005c1.305-0.046,2.327-1.085,2.327-2.368
	c0-0.635-0.251-1.232-0.706-1.681L24.14,12.386z M13.833,3.138c1.192-1.173,2.776-1.819,4.46-1.819c3.478,0,6.308,2.787,6.308,6.214
	c0,1.378-0.452,2.685-1.307,3.778l-0.106,0.137l-4.028-3.971l0.142-0.104c0.224-0.166,0.41-0.319,0.576-0.473l-0.944-0.932
	c-0.922,0.854-2.119,1.322-3.389,1.322h-1.239l-1.358,1.338c-0.185,0.183-0.43,0.281-0.69,0.281H9.167
	c-0.272,0-0.494-0.218-0.494-0.486c0-0.127,0.053-0.254,0.145-0.344L13.833,3.138z M4.754,15.082
	c-0.204,0.199-0.474,0.31-0.761,0.31c-0.593,0-1.075-0.476-1.075-1.06c0-0.282,0.112-0.549,0.314-0.75l0.624-0.613
	c0.204-0.199,0.474-0.311,0.76-0.311c0.594,0,1.076,0.476,1.076,1.06c0,0.282-0.112,0.549-0.314,0.749L4.754,15.082z M7.22,17.512
	c-0.203,0.199-0.474,0.311-0.76,0.311c-0.593,0-1.075-0.476-1.075-1.061c0-0.281,0.111-0.548,0.314-0.748l0.623-0.615
	c0.204-0.199,0.474-0.31,0.761-0.31c0.593,0,1.075,0.476,1.075,1.06c0,0.282-0.112,0.549-0.314,0.748L7.22,17.512z M9.687,19.941
	c-0.204,0.2-0.474,0.311-0.761,0.311c-0.593,0-1.074-0.476-1.074-1.06c0-0.282,0.111-0.548,0.313-0.749l0.624-0.614
	c0.204-0.2,0.474-0.311,0.76-0.311c0.593,0,1.075,0.476,1.075,1.06c0,0.283-0.111,0.549-0.314,0.749L9.687,19.941z M12.776,21.757
	l-0.623,0.615c-0.204,0.2-0.475,0.31-0.761,0.31c-0.593,0-1.075-0.475-1.075-1.059c0-0.283,0.111-0.549,0.314-0.749l0.623-0.614
	c0.204-0.2,0.475-0.311,0.761-0.311c0.593,0,1.075,0.475,1.075,1.059C13.091,21.291,12.979,21.557,12.776,21.757z M22.703,15.392
	c-0.286,0-0.557-0.11-0.761-0.31l-1.847-1.82l-0.945,0.931l1.847,1.821c0.203,0.2,0.314,0.467,0.314,0.748
	c0,0.585-0.482,1.061-1.074,1.061c-0.287,0-0.557-0.111-0.761-0.311l-1.848-1.82l-0.945,0.932l1.848,1.82
	c0.202,0.201,0.314,0.467,0.314,0.749c0,0.584-0.482,1.06-1.075,1.06c-0.286,0-0.557-0.11-0.76-0.311l-1.848-1.82l-0.945,0.932
	l1.847,1.821c0.203,0.2,0.314,0.466,0.314,0.749c0,0.584-0.481,1.059-1.075,1.059c-0.286,0-0.557-0.109-0.76-0.31l-0.348-0.343
	l0.04-0.094c0.127-0.297,0.191-0.607,0.191-0.928c0-1.282-1.022-2.322-2.327-2.367l-0.143-0.006l-0.005-0.141
	c-0.045-1.236-1.063-2.24-2.318-2.284l-0.144-0.005l-0.005-0.141c-0.044-1.236-1.063-2.24-2.318-2.285l-0.143-0.004l-0.005-0.142
	c-0.047-1.286-1.103-2.293-2.404-2.293c-0.509,0-1,0.161-1.42,0.466l-0.109,0.08l-0.093-0.098c-1.109-1.16-1.72-2.672-1.72-4.257
	c0-3.427,2.829-6.214,6.307-6.214c1.594,0,3.117,0.592,4.29,1.668l0.116,0.106L7.871,7.148c-0.345,0.34-0.535,0.793-0.535,1.275
	c0,0.994,0.821,1.805,1.831,1.805h3.089c0.618,0,1.199-0.237,1.636-0.668l0.967-0.952h0.686c0.789,0,1.563-0.146,2.303-0.432
	l0.094-0.036l5.523,5.441c0.203,0.201,0.314,0.468,0.314,0.75C23.778,14.916,23.296,15.392,22.703,15.392z"/>
</svg>
