<?xml version="1.0" encoding="utf-8"?>
<!-- Generator: Adobe Illustrator 16.2.0, SVG Export Plug-In . SVG Version: 6.00 Build 0)  -->
<!DOCTYPE svg PUBLIC "-//W3C//DTD SVG 1.1//EN" "http://www.w3.org/Graphics/SVG/1.1/DTD/svg11.dtd">
<svg version="1.1" id="OBJECTS" xmlns="http://www.w3.org/2000/svg" xmlns:xlink="http://www.w3.org/1999/xlink" x="0px" y="0px"
	 width="35.875px" height="35.875px" viewBox="0 0 35.875 35.875" enable-background="new 0 0 35.875 35.875" xml:space="preserve">
<g>
	<path d="M35.984,33.975c-0.01-0.051-0.035-0.119-0.049-0.219c-0.041-0.191-0.076-0.473-0.1-0.828
		c-0.051-0.709-0.023-1.727-0.01-2.969c0.004-0.619,0.016-1.299-0.008-2.02c-0.023-0.723-0.09-1.492-0.225-2.293
		c-0.141-0.805-0.303-1.639-0.531-2.523l-0.1-0.357l-0.109-0.336c-0.113-0.334-0.266-0.578-0.416-0.799
		c-0.307-0.434-0.637-0.768-0.973-1.086c-0.672-0.623-1.367-1.156-2.07-1.646c-0.703-0.488-1.406-0.941-2.092-1.365
		c-1.373-0.844-2.684-1.568-3.811-2.174c-1.133-0.6-2.082-1.082-2.754-1.408c-0.232-0.109-0.414-0.197-0.574-0.275l0.092-4.928
		l0.123-7.758l0.012-0.679l-0.703-0.011L11.495,0.145L1.302,0.013L0.373,0L0.324,0.989C0.259,2.283,0.21,3.576,0.169,4.869
		C0.137,6.162,0.093,7.455,0.077,8.748l-0.033,1.939c-0.014,0.647-0.014,1.293-0.021,1.94c-0.006,1.293-0.028,2.586-0.021,3.879
		l0.007,3.879c0,0.646,0.013,1.293,0.019,1.939l0.045,3.879c0.004,0.646,0.025,1.293,0.037,1.939l0.083,3.879l0.024,1.125
		l1.083-0.018C2.151,33.111,3,33.078,3.85,33.053l2.548-0.078c0.849-0.023,1.699-0.066,2.548-0.1l2.548-0.105
		c1.699-0.088,3.398-0.162,5.097-0.271c0.85-0.049,1.699-0.1,2.549-0.162c0.734-0.047,1.473-0.109,2.209-0.168
		c0.025,0.037,0.061,0.084,0.107,0.146c0.049,0.066,0.109,0.146,0.178,0.234c0.07,0.092,0.146,0.193,0.232,0.305
		c0.168,0.215,0.363,0.467,0.572,0.738c0.205,0.26,0.424,0.535,0.643,0.811c0.107,0.135,0.193,0.293,0.271,0.445
		c0.078,0.154,0.15,0.297,0.25,0.4c0.098,0.104,0.219,0.172,0.342,0.227c0.121,0.053,0.244,0.092,0.367,0.119
		c0.121,0.029,0.242,0.049,0.357,0.063c0.057,0.004,0.121,0.02,0.166,0.025c0.053,0.006,0.111,0.023,0.156,0.031
		c0.043,0.01,0.094,0.033,0.135,0.047c0.043,0.012,0.072,0.053,0.105,0.064c0.063,0.025,0.098,0.105,0.098,0.105h0.244
		c0,0,0.031-0.084,0.086-0.143c0.059-0.064,0.117-0.215,0.17-0.35c0.023-0.066,0.045-0.135,0.064-0.217
		c0.016-0.082,0.023-0.158,0.031-0.252c0.014-0.176,0-0.363-0.039-0.549c-0.037-0.188-0.1-0.369-0.184-0.545
		c-0.084-0.174-0.191-0.338-0.334-0.463c-0.143-0.129-0.324-0.219-0.512-0.295c-0.188-0.074-0.375-0.148-0.547-0.236
		c-0.342-0.176-0.689-0.332-1.023-0.459c-0.334-0.125-0.654-0.223-0.926-0.303c-0.137-0.043-0.266-0.072-0.377-0.102
		c-0.066-0.018-0.117-0.027-0.174-0.041l0.059-2.775c0.092,0.174,0.191,0.336,0.295,0.479c0.355,0.471,0.738,0.816,1.125,1.102
		c0.773,0.568,1.547,0.908,2.252,1.131c0.707,0.221,1.355,0.305,1.889,0.301c0.537-0.004,0.955-0.102,1.223-0.205
		c0.133-0.051,0.23-0.098,0.295-0.135c0.063-0.037,0.096-0.057,0.096-0.057l-0.08-0.23c0,0-0.033,0-0.098,0.004
		c-0.064,0-0.16,0.004-0.281-0.008c-0.244-0.02-0.594-0.082-1.016-0.24c-0.42-0.156-0.912-0.398-1.43-0.736
		s-1.068-0.777-1.545-1.299c-0.232-0.264-0.453-0.547-0.588-0.824c-0.07-0.135-0.117-0.27-0.137-0.375
		c-0.01-0.053-0.01-0.1-0.01-0.135c0-0.016,0.004-0.039,0.006-0.041c0.002,0.002,0.002,0.02,0.002,0.014l0.012-0.09
		c-0.006,0.078-0.002,0.014-0.002,0.025l0.002-0.014l0.004-0.027l0.006-0.061l0.014-0.117l0.014-0.234
		c0.008-0.152,0.01-0.307,0.002-0.455c-0.012-0.303-0.043-0.596-0.092-0.883c-0.098-0.572-0.258-1.125-0.453-1.658
		c-0.402-1.068-0.951-2.063-1.633-3.037l-0.133-0.184l-0.137-0.184l-0.086-0.111l-0.094-0.111c-0.061-0.068-0.117-0.129-0.176-0.189
		c-0.225-0.23-0.436-0.42-0.643-0.609c-0.412-0.371-0.799-0.732-1.146-1.098c-0.342-0.363-0.648-0.748-0.803-1.076
		c-0.076-0.162-0.105-0.293-0.105-0.367c0-0.072,0.01-0.129,0.092-0.234c0.018-0.023,0.047-0.055,0.068-0.076
		c0.012-0.012,0.014-0.016,0.033-0.033l0.076-0.061l0.008-0.004l0.02-0.016c0.012-0.01,0.025-0.016,0.037-0.023
		c0.023-0.018,0.049-0.029,0.074-0.041c0.102-0.047,0.229-0.068,0.396-0.055c0.336,0.031,0.766,0.219,1.162,0.457
		c0.807,0.486,1.549,1.143,2.252,1.76c0.707,0.625,1.357,1.248,2.045,1.783c0.176,0.135,0.352,0.262,0.553,0.377
		c0.242,0.133,0.385,0.176,0.551,0.256c0.322,0.154,0.625,0.33,0.906,0.5c0.563,0.348,1.037,0.688,1.426,0.969
		c0.775,0.568,1.197,0.924,1.197,0.924l0.166-0.176c0,0-0.377-0.412-1.086-1.082c-0.355-0.334-0.795-0.732-1.338-1.158
		c-0.271-0.211-0.568-0.43-0.906-0.641c-0.164-0.102-0.383-0.213-0.477-0.291c-0.135-0.096-0.275-0.221-0.418-0.354
		c-0.57-0.543-1.156-1.227-1.807-1.932c-0.414-0.445-0.852-0.904-1.344-1.354l0.008-0.455l0.045-2.451
		c0.111,0.074,0.234,0.156,0.375,0.25c0.615,0.418,1.496,1.01,2.535,1.742c1.043,0.727,2.244,1.594,3.494,2.557
		c0.625,0.48,1.26,0.988,1.879,1.521c0.613,0.537,1.232,1.086,1.756,1.67c0.26,0.287,0.5,0.588,0.656,0.861
		c0.078,0.137,0.131,0.266,0.143,0.334l0.051,0.271l0.035,0.258c0.092,0.754,0.088,1.561,0.092,2.34
		c0.006,0.783,0.049,1.549,0.145,2.281c0.094,0.732,0.229,1.426,0.383,2.07c0.309,1.287,0.754,2.361,1.215,3.049
		c0.23,0.342,0.457,0.586,0.623,0.734c0.17,0.148,0.27,0.209,0.27,0.209l0.195-0.148C36.004,34.055,35.998,34.027,35.984,33.975z
		 M21.008,1.691l0.064,4.104c-0.033-0.031-0.066-0.062-0.104-0.096c-0.107-0.096-0.217-0.188-0.342-0.307
		c-0.061-0.057-0.123-0.106-0.186-0.162c-0.061-0.063-0.123-0.116-0.186-0.176c-0.129-0.105-0.244-0.243-0.373-0.348
		c-0.115-0.13-0.246-0.233-0.361-0.36c-0.127-0.111-0.236-0.243-0.363-0.354c-0.111-0.128-0.24-0.238-0.352-0.364
		c-0.127-0.116-0.23-0.247-0.359-0.363c-0.105-0.128-0.242-0.244-0.348-0.372c-0.061-0.061-0.115-0.124-0.178-0.184
		c-0.055-0.063-0.105-0.126-0.16-0.187c-0.119-0.12-0.215-0.243-0.311-0.354c-0.051-0.056-0.094-0.11-0.145-0.162
		c-0.041-0.053-0.08-0.101-0.117-0.146c-0.037-0.047-0.063-0.075-0.096-0.112L21.008,1.691z M6.631,1.898
		C6.6,1.939,6.57,1.98,6.537,2.026C6.492,2.074,6.444,2.127,6.394,2.183C6.297,2.291,6.204,2.399,6.086,2.525
		C6.029,2.585,5.98,2.649,5.924,2.711c-0.063,0.06-0.117,0.124-0.176,0.186C5.642,3.024,5.504,3.139,5.4,3.268
		C5.269,3.383,5.166,3.514,5.039,3.63C4.928,3.757,4.796,3.865,4.686,3.993C4.558,4.102,4.448,4.233,4.321,4.344
		C4.205,4.47,4.075,4.574,3.959,4.702C3.83,4.808,3.714,4.945,3.586,5.051C3.525,5.11,3.461,5.167,3.401,5.227
		C3.339,5.283,3.276,5.333,3.215,5.388C3.095,5.506,2.973,5.602,2.86,5.699c-0.056,0.05-0.11,0.094-0.161,0.144
		C2.646,5.883,2.598,5.923,2.554,5.958c-0.038,0.03-0.059,0.05-0.091,0.078c-0.011-0.39-0.018-0.779-0.028-1.168
		C2.404,3.896,2.366,2.926,2.323,1.954L6.631,1.898z M6.398,31.066L3.85,30.988c-0.473-0.014-0.945-0.029-1.417-0.045l0.061-2.801
		c0.006-0.314,0.011-0.631,0.018-0.945c0.019,0.016,0.026,0.023,0.046,0.039c0.048,0.039,0.102,0.074,0.16,0.117
		c0.048,0.045,0.101,0.092,0.157,0.143c0.107,0.098,0.217,0.189,0.341,0.307c0.061,0.059,0.125,0.105,0.187,0.162
		c0.06,0.063,0.123,0.117,0.185,0.178c0.128,0.105,0.244,0.242,0.373,0.348c0.116,0.129,0.247,0.232,0.362,0.359
		c0.126,0.111,0.236,0.242,0.363,0.354c0.111,0.129,0.241,0.236,0.353,0.363c0.126,0.115,0.229,0.248,0.359,0.363
		c0.104,0.129,0.242,0.244,0.348,0.371c0.06,0.063,0.114,0.125,0.176,0.186c0.056,0.061,0.105,0.125,0.162,0.186
		c0.118,0.121,0.213,0.242,0.31,0.354c0.014,0.014,0.025,0.027,0.038,0.043C6.42,31.068,6.409,31.066,6.398,31.066z M21.463,27.117
		l0.1,4.771c-0.807-0.063-1.615-0.131-2.422-0.184c-0.719-0.051-1.436-0.096-2.152-0.137c0.008-0.01,0.006-0.006,0.016-0.018
		c0.041-0.051,0.113-0.125,0.186-0.223c0.039-0.047,0.076-0.102,0.117-0.158c0.045-0.049,0.092-0.102,0.143-0.158
		c0.098-0.105,0.189-0.217,0.309-0.34c0.057-0.061,0.105-0.125,0.162-0.188c0.063-0.059,0.115-0.123,0.176-0.184
		c0.105-0.129,0.242-0.244,0.348-0.373c0.131-0.115,0.234-0.246,0.361-0.361c0.111-0.127,0.242-0.236,0.354-0.363
		c0.127-0.111,0.238-0.24,0.363-0.352c0.117-0.127,0.248-0.229,0.363-0.359c0.129-0.105,0.244-0.24,0.373-0.348
		c0.061-0.061,0.125-0.115,0.184-0.176c0.063-0.057,0.127-0.105,0.188-0.16c0.119-0.119,0.242-0.215,0.354-0.311
		c0.057-0.051,0.111-0.096,0.162-0.143c0.053-0.043,0.102-0.084,0.145-0.119c0.072-0.055,0.121-0.102,0.17-0.145
		C21.459,27.1,21.463,27.109,21.463,27.117z M21.18,16.188c-0.463-0.33-0.98-0.664-1.699-0.82c-0.357-0.072-0.783-0.08-1.193,0.055
		c-0.102,0.031-0.201,0.07-0.297,0.117c-0.047,0.025-0.096,0.047-0.139,0.076l-0.068,0.041l-0.033,0.018l-0.016,0.012l-0.031,0.02
		l-0.084,0.057l-0.125,0.096c-0.082,0.066-0.152,0.129-0.229,0.205c-0.145,0.146-0.283,0.324-0.393,0.533
		c-0.109,0.207-0.182,0.445-0.211,0.678c-0.063,0.475,0.039,0.895,0.166,1.24c0.268,0.693,0.646,1.195,1.02,1.668
		c0.375,0.471,0.773,0.891,1.135,1.301c0.18,0.203,0.357,0.402,0.494,0.58c0.033,0.045,0.064,0.088,0.09,0.123l0.031,0.053
		c0.002,0.002,0.016,0.023,0.008,0.014l0.025,0.043c0.039,0.063,0.066,0.109,0.092,0.154l0.088,0.158
		c0.465,0.875,0.857,1.816,1.168,2.691c0.158,0.439,0.283,0.867,0.383,1.273c0.021,0.096,0.033,0.186,0.053,0.277
		c-0.049-0.033-0.088-0.064-0.156-0.102c-0.055-0.035-0.117-0.066-0.186-0.102c-0.068-0.031-0.143-0.053-0.225-0.084
		c-0.164-0.057-0.354-0.111-0.563-0.129c-0.105-0.012-0.215-0.02-0.332-0.027c-0.113,0-0.229,0.012-0.352,0.02
		c-0.248,0.012-0.494,0.088-0.754,0.158c-0.246,0.1-0.512,0.203-0.744,0.361c-0.246,0.145-0.461,0.336-0.674,0.529
		c-0.195,0.215-0.387,0.432-0.529,0.676c-0.16,0.234-0.262,0.496-0.359,0.744c-0.072,0.26-0.148,0.504-0.158,0.752
		c-0.01,0.123-0.021,0.238-0.021,0.354c0.008,0.115,0.014,0.225,0.027,0.33c0.02,0.205,0.072,0.406,0.127,0.576
		c0.029,0.082,0.055,0.158,0.086,0.227c0.033,0.063,0.066,0.119,0.1,0.172c0.061,0.104,0.125,0.184,0.162,0.24
		c0.008,0.01,0.006,0.008,0.012,0.016c-0.094-0.006-0.189-0.012-0.283-0.018c-1.699-0.109-3.398-0.184-5.097-0.271l-2.548-0.105
		C8.38,31.145,7.814,31.123,7.249,31.1c0.028-0.064,0.051-0.133,0.079-0.209c0.057-0.162,0.11-0.354,0.13-0.563
		c0.014-0.104,0.02-0.213,0.028-0.33c-0.001-0.113-0.012-0.23-0.021-0.352c-0.011-0.25-0.087-0.492-0.159-0.754
		c-0.099-0.246-0.201-0.51-0.36-0.742c-0.144-0.246-0.336-0.463-0.531-0.676c-0.212-0.193-0.429-0.383-0.675-0.527
		c-0.233-0.158-0.497-0.262-0.744-0.359c-0.261-0.072-0.505-0.146-0.753-0.158c-0.123-0.008-0.239-0.021-0.353-0.021
		c-0.116,0.01-0.226,0.016-0.331,0.029c-0.205,0.02-0.408,0.07-0.576,0.125c-0.084,0.031-0.16,0.055-0.229,0.086
		c-0.063,0.035-0.119,0.066-0.171,0.1c-0.027,0.018-0.039,0.027-0.063,0.043c0.004-0.195,0.01-0.393,0.011-0.588l0.045-3.879
		c0.006-0.646,0.02-1.293,0.019-1.939l0.007-3.879c0.007-1.293-0.016-2.586-0.021-3.879c-0.007-0.647-0.006-1.292-0.02-1.94
		L2.527,8.748c-0.01-0.792-0.035-1.584-0.056-2.375c0.04,0.026,0.064,0.047,0.116,0.076c0.055,0.033,0.116,0.064,0.185,0.1
		C2.84,6.58,2.914,6.602,2.996,6.632C3.159,6.689,3.35,6.744,3.559,6.763c0.105,0.013,0.215,0.02,0.332,0.027
		c0.113-0.002,0.229-0.012,0.353-0.02c0.248-0.013,0.493-0.088,0.753-0.16c0.247-0.1,0.511-0.201,0.744-0.359
		C5.986,6.107,6.202,5.914,6.415,5.72C6.608,5.507,6.8,5.291,6.943,5.045c0.159-0.234,0.262-0.497,0.36-0.744
		c0.072-0.26,0.147-0.504,0.158-0.752c0.008-0.124,0.02-0.239,0.021-0.352C7.474,3.081,7.468,2.972,7.455,2.866
		c-0.02-0.206-0.071-0.408-0.127-0.575c-0.029-0.083-0.053-0.16-0.084-0.229C7.208,2,7.176,1.944,7.143,1.892l4.352-0.057
		l5.298-0.08c-0.031,0.044-0.059,0.078-0.094,0.14c-0.033,0.055-0.064,0.117-0.1,0.186c-0.031,0.068-0.055,0.143-0.084,0.224
		c-0.057,0.164-0.109,0.353-0.129,0.563c-0.014,0.104-0.021,0.214-0.029,0.331c0.002,0.113,0.014,0.229,0.021,0.352
		c0.012,0.248,0.086,0.492,0.158,0.753c0.1,0.246,0.201,0.509,0.361,0.743c0.145,0.246,0.336,0.461,0.531,0.674
		c0.213,0.193,0.43,0.387,0.676,0.528c0.232,0.159,0.496,0.262,0.744,0.359c0.26,0.073,0.504,0.147,0.752,0.158
		c0.123,0.009,0.24,0.021,0.354,0.021c0.115-0.008,0.225-0.014,0.33-0.027c0.205-0.02,0.408-0.07,0.576-0.127
		c0.082-0.029,0.156-0.052,0.225-0.084l0.035,2.199l0.137,7.502C21.23,16.229,21.207,16.207,21.18,16.188z M14.109,15.961
		c-0.745-0.654-1.844-1.203-2.057-1.311c-0.248-0.123-0.514-0.248-0.762-0.391c-0.053-0.035-0.106-0.07-0.16-0.088l0.142-4.182
		h0.213c0.266-0.018,1.082,0.123,1.702,0.689c0.107,0.09,0.195,0.18,0.284,0.285l-0.55,0.957l0.78-0.178l1.402-1.559
		c-0.23-0.125-0.408-0.213-0.496-0.249c-0.373-0.159-0.887-0.301-0.959-0.317c-1.117-0.284-1.862-0.302-2.358-0.338l0.106-1.719
		L10.581,8.75v0.548C9.871,9.422,9.57,9.511,9.215,9.653c-1.082,0.425-1.685,1.099-1.951,1.472c-0.532,0.779-0.603,1.629-0.603,1.95
		c0,0.176,0.018,0.602,0.195,1.08c0.408,1.135,1.259,1.646,2.27,2.215l0.266,0.123c0.106,0.072,0.23,0.125,0.354,0.178
		c0.213,0.105,0.426,0.195,0.621,0.32v4.643c-0.018,0-0.23,0.018-0.39,0.018c-1.117,0-2.164-0.711-2.376-0.871
		c-0.142-0.088-0.213-0.158-0.337-0.266l0.603-1.008l-0.816,0.158L5.58,21.348c0.195,0.105,0.39,0.193,0.603,0.266
		c0.372,0.143,0.762,0.248,1.152,0.355c0.781,0.176,1.472,0.336,3.033,0.371v2.037l0.745-1.398v-0.674
		c1.613-0.107,3.282-0.832,3.938-2.445c0.248-0.602,0.283-1.115,0.283-1.365C15.334,17.096,14.482,16.281,14.109,15.961z
		 M10.403,13.766c-0.426-0.268-0.816-0.568-1.046-1.047c-0.106-0.23-0.16-0.461-0.16-0.726c0-0.638,0.319-1.063,0.479-1.241
		c0.159-0.16,0.461-0.389,0.674-0.514c0.035-0.018,0.089-0.053,0.195-0.088L10.403,13.766z M11.467,21.26
		c-0.16,0.088-0.284,0.141-0.354,0.16v-4.041c0.762,0.443,1.082,0.957,1.224,1.311c0.088,0.232,0.124,0.443,0.124,0.709
		C12.46,20.16,12.106,20.852,11.467,21.26z"/>
</g>
</svg>
