<?xml version="1.0" encoding="utf-8"?>
<!-- Generator: Adobe Illustrator 16.2.0, SVG Export Plug-In . SVG Version: 6.00 Build 0)  -->
<!DOCTYPE svg PUBLIC "-//W3C//DTD SVG 1.1//EN" "http://www.w3.org/Graphics/SVG/1.1/DTD/svg11.dtd">
<svg version="1.1" id="OBJECTS" xmlns="http://www.w3.org/2000/svg" xmlns:xlink="http://www.w3.org/1999/xlink" x="0px" y="0px"
	 width="64px" height="92.5px" viewBox="0 0 64 92.5" enable-background="new 0 0 64 92.5" xml:space="preserve">
<path fill="#FFFFFF" d="M64,88H0V0h49.605L64,14.399V88z"/>
<path fill="#E2E2E2" d="M49.605,0v14.399H64L49.605,0z"/>
<path fill="#B53438" d="M0,64.003h64v28.794H0V64.003z"/>
<g>
	<path fill="#FFFFFF" d="M9.6,88c-0.883,0-1.599-0.719-1.599-1.597V70.398c0-0.881,0.716-1.6,1.599-1.6
		c0.881,0,1.602,0.719,1.602,1.6v16.005C11.201,87.281,10.48,88,9.6,88z"/>
	<path fill="#FFFFFF" d="M54.4,72.002h-9.598c-0.884,0-1.608-0.723-1.608-1.604s0.725-1.6,1.608-1.6H54.4
		c0.883,0,1.599,0.719,1.599,1.6S55.283,72.002,54.4,72.002z"/>
	<path fill="#FFFFFF" d="M54.4,79.999h-9.598c-0.884,0-1.608-0.717-1.608-1.6c0-0.879,0.725-1.6,1.608-1.6H54.4
		c0.883,0,1.599,0.721,1.599,1.6C55.999,79.282,55.283,79.999,54.4,79.999z"/>
	<path fill="#FFFFFF" d="M44.803,88c-0.884,0-1.608-0.719-1.608-1.597V70.398c0-0.881,0.725-1.6,1.608-1.6
		c0.881,0,1.595,0.719,1.595,1.6v16.005C46.397,87.281,45.684,88,44.803,88z"/>
</g>
<path fill="#B53438" d="M30.853,17.249c-0.164,0.042-2.122,2.762,0.152,5.063C32.513,18.98,30.921,17.223,30.853,17.249
	 M31.817,30.574c-1.137,3.896-2.646,8.095-4.263,11.901c3.327-1.276,6.949-2.385,10.36-3.182
	C35.761,36.836,33.605,33.753,31.817,30.574 M43.733,40.933c1.288,0.98,1.614,1.485,2.458,1.485c0.375,0,1.44-0.018,1.932-0.689
	c0.235-0.336,0.326-0.539,0.369-0.651c-0.198-0.107-0.457-0.315-1.873-0.315C45.816,40.762,44.801,40.799,43.733,40.933
	 M21.987,47.927c-3.411,1.891-4.802,3.447-4.896,4.319c-0.016,0.149-0.063,0.533,0.683,1.087
	C18.012,53.261,19.4,52.639,21.987,47.927 M17.739,56.001c-0.557,0-1.09-0.178-1.545-0.512c-1.65-1.237-1.878-2.607-1.772-3.532
	c0.29-2.564,3.494-5.247,9.543-7.982c2.395-5.193,4.678-11.585,6.039-16.927c-1.584-3.426-3.134-7.861-2.014-10.463
	c0.396-0.917,0.887-1.611,1.807-1.919c0.366-0.122,1.284-0.267,1.621-0.267c0.838,0,1.64,1,2.03,1.648
	c0.72,1.209,0.724,2.606,0.607,3.963c-0.107,1.318-0.33,2.62-0.589,3.912c-0.188,0.955-0.406,1.9-0.63,2.845
	c2.147,4.374,5.188,8.842,8.106,11.897c2.094-0.377,3.889-0.56,5.358-0.56c2.498,0,4.011,0.572,4.626,1.755
	c0.511,0.979,0.304,2.13-0.621,3.408c-0.886,1.222-2.115,1.873-3.54,1.873c-1.943,0-4.2-1.215-6.716-3.596
	c-4.523,0.927-9.808,2.597-14.075,4.443c-1.334,2.792-2.61,5.037-3.804,6.694C20.543,54.949,19.137,56.001,17.739,56.001"/>
<path fill="#FFFFFF" d="M14.396,81.604H9.6c-0.883,0-1.599-0.721-1.599-1.604v-9.601c0-0.881,0.716-1.6,1.599-1.6h4.797
	c3.531,0,6.409,2.868,6.409,6.399C20.806,78.726,17.928,81.604,14.396,81.604z M11.201,78.399h3.195
	c1.771,0,3.206-1.436,3.206-3.201c0-1.758-1.435-3.196-3.206-3.196h-3.195V78.399z"/>
<path fill="#FFFFFF" d="M28.8,88h-1.601c-0.881,0-1.594-0.719-1.594-1.597V70.398c0-0.881,0.713-1.6,1.594-1.6H28.8
	c5.291,0,9.595,4.302,9.595,9.601C38.395,83.69,34.091,88,28.8,88z M28.8,84.794h0.017H28.8z M28.8,72.002v12.792
	c3.525,0,6.404-2.866,6.404-6.395C35.204,74.875,32.325,72.002,28.8,72.002z"/>
</svg>
