<?xml version="1.0" encoding="utf-8"?>
<!-- Generator: Adobe Illustrator 16.2.0, SVG Export Plug-In . SVG Version: 6.00 Build 0)  -->
<!DOCTYPE svg PUBLIC "-//W3C//DTD SVG 1.1//EN" "http://www.w3.org/Graphics/SVG/1.1/DTD/svg11.dtd">
<svg version="1.1" id="OBJECTS" xmlns="http://www.w3.org/2000/svg" xmlns:xlink="http://www.w3.org/1999/xlink" x="0px" y="0px"
	 width="21.25px" height="21px" viewBox="0 0 21.25 21" enable-background="new 0 0 21.25 21" xml:space="preserve">
<g>
	<g>
		<path d="M11.2,7.001c1.544,0,2.8,1.256,2.8,2.8c0,0.386,0.313,0.699,0.7,0.699c0.386,0,0.7-0.313,0.7-0.699
			c0-2.315-1.885-4.2-4.2-4.2c-0.387,0-0.7,0.313-0.7,0.7C10.5,6.687,10.813,7.001,11.2,7.001z M11.2,4.2
			c3.088,0,5.6,2.512,5.6,5.601c0,0.386,0.313,0.699,0.7,0.699s0.7-0.313,0.7-0.699c0-3.86-3.141-7-7-7c-0.387,0-0.7,0.313-0.7,0.7
			S10.813,4.2,11.2,4.2z M11.2,0c-0.387,0-0.7,0.314-0.7,0.7c0,0.387,0.313,0.7,0.7,0.7c4.632,0,8.399,3.768,8.399,8.4
			c0,0.386,0.314,0.699,0.7,0.699c0.387,0,0.7-0.313,0.7-0.699C21,4.396,16.603,0,11.2,0z M18.9,15.4
			c-2.033,0-3.97-0.442-5.755-1.314c-0.168-0.084-0.36-0.094-0.536-0.032s-0.32,0.19-0.401,0.356l-1.101,2.278
			C8.26,15.1,5.902,12.743,4.314,9.896l2.276-1.104c0.168-0.081,0.296-0.225,0.357-0.401c0.06-0.175,0.049-0.368-0.034-0.536
			C6.042,6.07,5.6,4.133,5.6,2.101c0-0.387-0.313-0.7-0.699-0.7H0.7C0.313,1.4,0,1.714,0,2.101C0,12.522,8.479,21,18.9,21
			c0.386,0,0.699-0.313,0.699-0.699v-4.2C19.6,15.714,19.286,15.4,18.9,15.4z"/>
	</g>
</g>
</svg>
