<?xml version="1.0" encoding="utf-8"?>
<!-- Generator: Adobe Illustrator 16.2.0, SVG Export Plug-In . SVG Version: 6.00 Build 0)  -->
<!DOCTYPE svg PUBLIC "-//W3C//DTD SVG 1.1//EN" "http://www.w3.org/Graphics/SVG/1.1/DTD/svg11.dtd">
<svg version="1.1" id="OBJECTS" xmlns="http://www.w3.org/2000/svg" xmlns:xlink="http://www.w3.org/1999/xlink" x="0px" y="0px"
	 width="25.938px" height="25.938px" viewBox="0 0 25.938 25.938" enable-background="new 0 0 25.938 25.938" xml:space="preserve">
<g>
	<g>
		<path d="M23.562,6.125C23.19,2.688,20.226,0,16.636,0H9.24C5.649,0,2.686,2.688,2.313,6.125C0.971,6.328-0.062,7.488-0.062,8.887
			v14.32C-0.062,24.746,1.19,26,2.731,26h20.413c1.54,0,2.793-1.254,2.793-2.793V8.887C25.938,7.488,24.904,6.328,23.562,6.125z
			 M9.24,1.523h7.396c2.737,0,5.009,1.99,5.387,4.57H3.853C4.231,3.514,6.503,1.523,9.24,1.523z M24.414,23.207
			c0,0.699-0.569,1.27-1.27,1.27H2.731c-0.7,0-1.27-0.57-1.27-1.27V8.887c0-0.7,0.569-1.27,1.27-1.27h20.413
			c0.7,0,1.27,0.569,1.27,1.27V23.207z M22.078,9.193H3.797c-0.42,0-0.762,0.342-0.762,0.762v9.141c0,0.422,0.342,0.762,0.762,0.762
			h18.281c0.421,0,0.762-0.34,0.762-0.762V9.955C22.84,9.535,22.499,9.193,22.078,9.193z M9.129,18.334h-4.57v-7.616h4.57V18.334z
			 M15.223,18.334h-4.57v-7.616h4.57V18.334z M21.316,18.334h-4.57v-7.616h4.57V18.334z M5.892,13.955h0.947l-0.917,1.713
			c-0.033,0.063-0.031,0.14,0.005,0.201c0.037,0.061,0.104,0.098,0.175,0.098h0.604c0.076,0,0.146-0.042,0.181-0.109l1.092-2.111
			c0.028-0.056,0.03-0.121,0.004-0.178l-0.156-0.342c-0.033-0.072-0.105-0.118-0.185-0.118H5.892c-0.112,0-0.203,0.091-0.203,0.203
			v0.44C5.688,13.864,5.779,13.955,5.892,13.955z M11.985,13.955h0.947l-0.917,1.713c-0.034,0.063-0.032,0.14,0.005,0.201
			c0.037,0.061,0.103,0.098,0.174,0.098h0.604c0.076,0,0.146-0.042,0.181-0.109l1.092-2.111c0.028-0.056,0.03-0.121,0.004-0.178
			l-0.156-0.342c-0.033-0.072-0.105-0.118-0.185-0.118h-1.749c-0.112,0-0.203,0.091-0.203,0.203v0.44
			C11.782,13.864,11.873,13.955,11.985,13.955z M18.078,13.955h0.948l-0.917,1.713c-0.034,0.063-0.032,0.14,0.005,0.201
			c0.037,0.061,0.103,0.098,0.174,0.098h0.604c0.076,0,0.146-0.042,0.181-0.109l1.092-2.111c0.028-0.056,0.029-0.121,0.004-0.178
			l-0.156-0.342c-0.033-0.072-0.105-0.118-0.186-0.118h-1.748c-0.112,0-0.203,0.091-0.203,0.202v0.441
			C17.876,13.864,17.967,13.955,18.078,13.955z M22.078,21.48H3.797c-0.42,0-0.762,0.34-0.762,0.762c0,0.42,0.342,0.762,0.762,0.762
			h18.281c0.421,0,0.762-0.342,0.762-0.762C22.84,21.82,22.499,21.48,22.078,21.48z M11.414,3.047c-0.42,0-0.762,0.342-0.762,0.762
			c0,0.422,0.342,0.762,0.762,0.762c0.421,0,0.762-0.34,0.762-0.762C12.176,3.389,11.835,3.047,11.414,3.047z M8.367,3.047
			c-0.42,0-0.762,0.342-0.762,0.762c0,0.422,0.342,0.762,0.762,0.762c0.421,0,0.762-0.34,0.762-0.762
			C9.129,3.389,8.788,3.047,8.367,3.047z M14.461,3.047c-0.421,0-0.762,0.342-0.762,0.762c0,0.422,0.341,0.762,0.762,0.762
			s0.762-0.34,0.762-0.762C15.223,3.389,14.882,3.047,14.461,3.047z M17.508,3.047c-0.421,0-0.762,0.342-0.762,0.762
			c0,0.422,0.341,0.762,0.762,0.762s0.762-0.34,0.762-0.762C18.27,3.389,17.929,3.047,17.508,3.047z"/>
	</g>
</g>
</svg>
