<?xml version="1.0" encoding="utf-8"?>
<!-- Generator: Adobe Illustrator 16.2.0, SVG Export Plug-In . SVG Version: 6.00 Build 0)  -->
<!DOCTYPE svg PUBLIC "-//W3C//DTD SVG 1.1//EN" "http://www.w3.org/Graphics/SVG/1.1/DTD/svg11.dtd">
<svg version="1.1" id="OBJECTS" xmlns="http://www.w3.org/2000/svg" xmlns:xlink="http://www.w3.org/1999/xlink" x="0px" y="0px"
	 width="21.25px" height="21px" viewBox="0 0 21.25 21" enable-background="new 0 0 21.25 21" xml:space="preserve">
<path fill="#03A9F4" d="M20.634,12.881c1.539-6.915-4.518-13.196-11.632-11.99C5.141-1.505,0,1.203,0,5.796
	c0,1.068,0.295,2.069,0.807,2.932c-1.43,6.93,4.677,13.12,11.784,11.833c0.829,0.438,1.775,0.688,2.779,0.688
	C19.75,21.249,22.556,16.704,20.634,12.881z"/>
<path fill="#FFFFFF" d="M10.708,17.601c-2.074,0-4.099-0.5-5.297-2.212c-1.787-2.526,0.569-3.792,1.725-2.827
	c0.965,0.813,0.662,2.781,3.496,2.781c1.249,0,2.792-0.534,2.792-1.772c0-2.492-5.529-1.312-7.727-4.03
	c-0.808-0.995-0.96-2.75,0.031-4.022c1.729-2.225,6.799-2.359,8.979-0.681c2.013,1.559,1.47,3.625-0.154,3.625
	c-1.954,0-0.927-2.557-4.082-2.557c-2.287,0-3.187,1.627-1.576,2.418c2.144,1.064,7.747,0.732,7.747,4.961
	C16.635,16.258,13.768,17.601,10.708,17.601z"/>
</svg>
