<?xml version="1.0" encoding="utf-8"?>
<!-- Generator: Adobe Illustrator 16.2.0, SVG Export Plug-In . SVG Version: 6.00 Build 0)  -->
<!DOCTYPE svg PUBLIC "-//W3C//DTD SVG 1.1//EN" "http://www.w3.org/Graphics/SVG/1.1/DTD/svg11.dtd">
<svg version="1.1" id="OBJECTS" xmlns="http://www.w3.org/2000/svg" xmlns:xlink="http://www.w3.org/1999/xlink" x="0px" y="0px"
	 width="21.25px" height="21px" viewBox="0 0 21.25 21" enable-background="new 0 0 21.25 21" xml:space="preserve">
<path fill="#8E24AA" d="M9.561,17.567c0,0-2.19,2.731-2.871,3.439c-0.223,0.23-0.468,0.21-0.464-0.247
	c0-0.301,0.017-3.731,0.017-3.731c-4.284-1.228-4.031-5.846-3.985-8.262c0.046-2.418,0.489-4.396,1.792-5.73
	c3.009-2.821,11.497-2.189,13.659-0.158c2.644,2.344,1.702,8.965,1.708,9.191c-0.544,4.526-3.746,4.814-4.334,5.011
	C14.83,17.162,12.493,17.764,9.561,17.567z"/>
<path fill="#FFFFFF" d="M20.549,12.431c0.64-5.387-0.307-8.789-2.016-10.328l0,0C15.775-0.525,6.459-0.914,3.158,2.221
	C1.677,3.754,1.154,6.003,1.097,8.79c-0.057,2.785-0.125,8.004,4.739,9.42H5.84l-0.004,2.162c0,0-0.034,0.877,0.527,1.053
	c0.64,0.207,0.929-0.2,2.919-2.578c3.33,0.29,5.886-0.372,6.176-0.469C16.131,18.153,19.935,17.65,20.549,12.431L20.549,12.431z
	 M9.61,17.326c0,0-2.106,2.627-2.762,3.309c-0.215,0.224-0.45,0.202-0.446-0.237c0-0.289,0.016-3.59,0.016-3.59
	c-4.123-1.183-3.88-5.627-3.835-7.951c0.044-2.327,0.47-4.231,1.726-5.514C7.204,0.627,15.37,1.235,17.452,3.19
	c2.544,2.256,1.638,8.628,1.643,8.844c-0.521,4.356-3.604,4.633-4.17,4.821C14.683,16.936,12.433,17.514,9.61,17.326z"/>
<path fill="#FFFFFF" d="M10.776,3.852c-0.344,0-0.344,0.538,0,0.542c2.669,0.021,4.869,1.882,4.894,5.294
	c0,0.362,0.527,0.357,0.522-0.003l0,0C16.163,6.007,13.763,3.873,10.776,3.852L10.776,3.852z"/>
<path fill="#FFFFFF" d="M14.289,9.124c-0.007,0.354,0.519,0.372,0.522,0.011c0.044-2.027-1.207-3.698-3.558-3.874
	c-0.344-0.026-0.38,0.516-0.036,0.541C13.255,5.957,14.329,7.347,14.289,9.124L14.289,9.124z"/>
<path fill="#FFFFFF" d="M13.726,11.429c-0.441-0.254-0.892-0.095-1.077,0.157l-0.39,0.502c-0.198,0.256-0.567,0.222-0.567,0.222
	c-2.694-0.713-3.414-3.532-3.414-3.532S8.244,8.396,8.491,8.192L8.978,7.79C9.22,7.597,9.374,7.132,9.126,6.675
	C8.465,5.479,8.021,5.067,7.795,4.75C7.558,4.454,7.199,4.386,6.828,4.588H6.819C6.046,5.04,5.2,5.885,5.471,6.757
	c0.462,0.92,1.311,3.849,4.018,6.062c1.271,1.047,3.284,2.119,4.139,2.367l0.01,0.013c0.841,0.281,1.659-0.599,2.097-1.396v-0.005
	c0.194-0.386,0.13-0.751-0.154-0.989C15.079,12.318,14.321,11.777,13.726,11.429L13.726,11.429z"/>
<path fill="#FFFFFF" d="M11.623,7.255c0.858,0.05,1.275,0.499,1.319,1.421c0.018,0.361,0.54,0.334,0.524-0.025
	c-0.057-1.203-0.685-1.875-1.814-1.937C11.308,6.695,11.275,7.236,11.623,7.255L11.623,7.255z"/>
</svg>
