<?xml version="1.0" encoding="utf-8"?>
<!-- Generator: Adobe Illustrator 16.2.0, SVG Export Plug-In . SVG Version: 6.00 Build 0)  -->
<!DOCTYPE svg PUBLIC "-//W3C//DTD SVG 1.1//EN" "http://www.w3.org/Graphics/SVG/1.1/DTD/svg11.dtd">
<svg version="1.1" id="OBJECTS" xmlns="http://www.w3.org/2000/svg" xmlns:xlink="http://www.w3.org/1999/xlink" x="0px" y="0px"
	 width="21.25px" height="21px" viewBox="0 0 21.25 21" enable-background="new 0 0 21.25 21" xml:space="preserve">
<path fill="#4CAF50" d="M10.913,0h-0.005l0,0C5.208,0,0.571,4.637,0.571,10.339c0,2.262,0.729,4.359,1.969,6.059l-1.289,3.843
	l3.974-1.271c1.635,1.084,3.585,1.709,5.688,1.709c5.702,0,10.337-4.638,10.337-10.339C21.25,4.638,16.615,0,10.913,0z"/>
<path fill="#FAFAFA" d="M16.93,14.602c-0.25,0.702-1.24,1.288-2.03,1.458c-0.539,0.115-1.245,0.207-3.621-0.778
	c-3.038-1.258-4.995-4.346-5.147-4.547c-0.146-0.2-1.228-1.634-1.228-3.118c0-1.484,0.753-2.206,1.058-2.517
	c0.249-0.254,0.661-0.371,1.057-0.371c0.128,0,0.244,0.006,0.346,0.012c0.304,0.013,0.457,0.031,0.657,0.51
	c0.25,0.601,0.857,2.084,0.93,2.238c0.074,0.151,0.147,0.359,0.044,0.56C8.896,8.255,8.812,8.347,8.659,8.523
	c-0.152,0.176-0.297,0.309-0.45,0.499C8.07,9.185,7.913,9.361,8.088,9.664c0.176,0.299,0.783,1.289,1.677,2.086
	c1.154,1.026,2.09,1.355,2.425,1.494c0.25,0.103,0.546,0.079,0.729-0.114c0.231-0.25,0.517-0.662,0.808-1.071
	c0.207-0.29,0.469-0.327,0.742-0.224c0.279,0.097,1.755,0.828,2.061,0.978c0.303,0.153,0.502,0.226,0.578,0.354
	C17.18,13.294,17.18,13.895,16.93,14.602z"/>
</svg>
