<?xml version="1.0" encoding="utf-8"?>
<!-- Generator: Adobe Illustrator 16.2.0, SVG Export Plug-In . SVG Version: 6.00 Build 0)  -->
<!DOCTYPE svg PUBLIC "-//W3C//DTD SVG 1.1//EN" "http://www.w3.org/Graphics/SVG/1.1/DTD/svg11.dtd">
<svg version="1.1" id="OBJECTS" xmlns="http://www.w3.org/2000/svg" xmlns:xlink="http://www.w3.org/1999/xlink" x="0px" y="0px"
	 width="35.875px" height="35.875px" viewBox="0 0 35.875 35.875" enable-background="new 0 0 35.875 35.875" xml:space="preserve">
<g>
	<path d="M35.215,26.566c0-0.121-0.006-0.303-0.02-0.537c-0.025-0.469-0.07-1.158-0.207-2.027c-0.133-0.873-0.338-1.932-0.699-3.133
		c-0.375-1.195-0.91-2.545-1.822-3.857c-0.461-0.65-1.006-1.295-1.678-1.867c-0.164-0.146-0.34-0.283-0.518-0.422
		c-0.189-0.131-0.361-0.26-0.576-0.389c-0.1-0.063-0.217-0.139-0.305-0.186L29.115,14c-0.063-0.035-0.137-0.051-0.203-0.08
		l0.223-0.523l0.656-1.54l0.641-1.537l0.621-1.53l1.141-2.814l-2.881,1.48l-2.096,1.077c-0.174,0.094-0.354,0.168-0.527,0.262
		C26.512,8.873,26.334,8.96,26.15,9.03c-0.182,0.077-0.367,0.141-0.555,0.206c-0.188,0.061-0.377,0.117-0.568,0.164
		s-0.385,0.086-0.58,0.121c-0.195,0.031-0.391,0.063-0.59,0.083c-0.195,0.023-0.395,0.038-0.594,0.048
		c-0.199,0.012-0.398,0.014-0.598,0.012c-0.398-0.008-0.799-0.028-1.197-0.08c-0.197-0.026-0.395-0.058-0.59-0.098
		c-0.098-0.02-0.193-0.041-0.289-0.064l-0.258-0.072L18.35,8.803l1.223,1.479l0.4,0.486l0.391,0.494
		c0.123,0.168,0.254,0.336,0.375,0.506c0.119,0.171,0.24,0.342,0.357,0.518c0.236,0.348,0.457,0.705,0.654,1.076
		c0.1,0.184,0.195,0.371,0.283,0.561c0.053,0.119,0.092,0.238,0.137,0.359l-0.016,0.01l-0.16,0.1
		c-0.215,0.129-0.418,0.273-0.619,0.422c-0.289,0.217-0.555,0.459-0.822,0.699c-0.418-1.195-0.986-2.504-1.842-3.825
		c-0.939-1.41-2.217-2.876-4.107-3.846c-0.125-0.062-0.254-0.121-0.383-0.18c-0.037-0.018-0.063-0.027-0.092-0.039L14.32,7.25
		c0.117-0.236,0.229-0.471,0.336-0.707c0.109-0.233,0.225-0.467,0.326-0.702l0.311-0.701l0.297-0.702l0.293-0.696l0.273-0.675
		L17.398,0l-3.061,1.526c-0.367,0.182-0.723,0.375-1.085,0.541c-0.359,0.176-0.724,0.326-1.093,0.464
		c-0.37,0.134-0.748,0.232-1.135,0.305c-0.386,0.073-0.779,0.112-1.186,0.149c-0.808,0.07-1.696,0.063-2.557-0.167
		C6.854,2.707,6.435,2.544,6.03,2.348c-0.409-0.193-0.796-0.431-1.188-0.69L4.241,1.255c-0.1-0.066-0.226-0.139-0.335-0.207
		L3.755,0.959L3.717,0.936L3.708,0.931L3.704,0.928L3.678,0.919L3.639,0.905c-0.051-0.02-0.115-0.039-0.195-0.052
		C3.36,0.842,3.262,0.831,3.11,0.862c-0.144,0.03-0.345,0.134-0.471,0.294C2.511,1.315,2.465,1.475,2.444,1.58
		C2.422,1.692,2.42,1.774,2.42,1.845C2.428,2.116,2.467,2.264,2.5,2.418c0.07,0.295,0.154,0.538,0.249,0.775
		c0.187,0.469,0.405,0.896,0.655,1.298c0.248,0.402,0.531,0.774,0.812,1.146C4.784,6.375,5.4,7.066,6.065,7.715
		c0.222,0.219,0.462,0.423,0.698,0.63C6.688,8.394,6.613,8.443,6.538,8.49C6.059,8.81,5.614,9.175,5.195,9.562
		c-0.835,0.779-1.553,1.67-2.174,2.616c-1.24,1.896-2.113,4.02-2.616,6.236C0.155,19.523,0.011,20.652,0,21.813
		c-0.008,1.127,0.119,2.301,0.463,3.41c0.331,1.113,0.91,2.166,1.67,3.025c0.758,0.867,1.697,1.516,2.664,1.99
		c0.973,0.469,1.981,0.768,2.974,0.949c0.995,0.188,1.963,0.252,2.923,0.252c1.682-0.002,3.298-0.248,4.736-0.713
		c0.084,0.197,0.168,0.395,0.268,0.586c0.268,0.5,0.59,0.969,0.957,1.395c0.732,0.857,1.645,1.512,2.584,1.986
		c0.939,0.486,1.918,0.781,2.873,0.973c0.479,0.09,0.953,0.158,1.42,0.201c0.234,0.021,0.467,0.033,0.697,0.045
		c0.229,0.01,0.475,0.014,0.697,0.018l0.316-0.002l0.176-0.004l0.166-0.006c0.223-0.008,0.443-0.021,0.664-0.039
		c0.438-0.029,0.871-0.078,1.293-0.146c0.85-0.139,1.662-0.361,2.414-0.662c0.752-0.305,1.438-0.695,2.039-1.133
		c0.598-0.445,1.102-0.949,1.508-1.463c0.813-1.039,1.201-2.105,1.414-2.969c0.213-0.871,0.26-1.563,0.283-2.037
		c0.02-0.238,0.012-0.414,0.016-0.533c0.002-0.121,0.004-0.182,0.004-0.182V26.75C35.219,26.75,35.217,26.688,35.215,26.566z
		 M21.781,11.916c-0.082-0.207-0.178-0.403-0.27-0.605c-0.039-0.085-0.082-0.169-0.123-0.253c0.377,0.1,0.76,0.187,1.148,0.237
		c0.23,0.033,0.463,0.058,0.695,0.074c0.234,0.018,0.469,0.029,0.703,0.031c0.234,0.005,0.469-0.002,0.703-0.01
		c0.234-0.015,0.471-0.029,0.705-0.053c0.234-0.021,0.467-0.057,0.703-0.086c0.234-0.035,0.469-0.071,0.701-0.119
		c0.234-0.04,0.463-0.102,0.697-0.154c0.229-0.063,0.461-0.125,0.684-0.207c0.074-0.024,0.145-0.058,0.217-0.085
		c-0.037,0.254-0.084,0.505-0.113,0.761c-0.064,0.575-0.107,1.153-0.113,1.737c-0.002,0.146-0.004,0.291,0.002,0.439
		c0,0.037,0.004,0.074,0.004,0.111c-0.037-0.002-0.078-0.016-0.115-0.016c-0.742,0.021-1.223,0.281-1.619,0.459
		c-0.199,0.092-0.373,0.184-0.533,0.25c-0.078,0.031-0.154,0.061-0.223,0.084c-0.066,0.025-0.141,0.041-0.164,0.055l-0.084,0.01
		c0.006,0-0.043,0.002,0.008,0.002l-0.01,0.002l-0.016,0.002c-0.023,0.004-0.049,0.006-0.078,0.006
		c-0.059,0.002-0.127-0.002-0.205-0.016c-0.158-0.027-0.346-0.086-0.553-0.16c-0.209-0.072-0.438-0.162-0.701-0.238
		c-0.262-0.074-0.57-0.146-0.928-0.119c-0.088,0.006-0.178,0.02-0.268,0.041c-0.063,0.014-0.127,0.039-0.193,0.063
		c-0.018-0.117-0.025-0.236-0.049-0.352c-0.047-0.217-0.1-0.434-0.162-0.645C22.105,12.738,21.951,12.324,21.781,11.916z
		 M6.622,5.586C6.391,5.195,6.154,4.81,5.915,4.429c-0.244-0.377-0.477-0.757-0.729-1.12C4.999,3.037,4.8,2.782,4.605,2.527
		c0.377,0.128,0.75,0.285,1.111,0.468C6.128,3.201,6.537,3.422,6.952,3.65C7.368,3.875,7.789,4.119,8.24,4.326
		c0.449,0.21,0.926,0.39,1.425,0.511c0.499,0.12,1.02,0.179,1.539,0.167c0.52-0.01,1.041-0.059,1.552-0.158
		c0.168-0.035,0.334-0.079,0.501-0.12c-0.027,0.216-0.056,0.432-0.069,0.653c-0.012,0.134-0.021,0.268-0.028,0.402
		c-0.006,0.135-0.019,0.268-0.02,0.403c-0.004,0.271-0.003,0.542,0.004,0.812c0.004,0.119,0.007,0.236,0.017,0.356
		c-0.226-0.011-0.411,0.006-0.571,0.03c-0.357,0.063-0.625,0.156-0.88,0.242c-0.229,0.084-0.458,0.168-0.688,0.252
		c-0.202,0.072-0.403,0.135-0.496,0.147h0c0,0-0.002,0.001-0.002,0.001c-0.013,0.002-0.015,0.002-0.023,0.002
		c0,0,0.013-0.002,0.024-0.003l-0.011,0.001l-0.014-0.001l-0.054-0.003c-0.072-0.001-0.141-0.012-0.215-0.023
		c-0.148-0.025-0.31-0.073-0.568-0.153c-0.246-0.075-0.661-0.196-1.14-0.177c-0.118,0-0.234,0.025-0.351,0.041
		C8.057,7.73,7.95,7.76,7.84,7.792C7.827,7.796,7.814,7.803,7.801,7.807C7.638,7.459,7.471,7.116,7.292,6.782
		C7.079,6.375,6.851,5.98,6.622,5.586z M15.477,23.418c-0.326,0.986-0.566,2.014-0.666,3.08c-0.084,1.057-0.041,2.17,0.268,3.248
		c0.025,0.092,0.063,0.182,0.092,0.273c-0.596,0.129-1.213,0.225-1.854,0.281c-0.84,0.064-1.701,0.064-2.606,0.02
		c-1.755-0.115-3.644-0.447-5.279-1.334c-0.81-0.447-1.556-1.021-2.129-1.744c-0.573-0.721-1.007-1.563-1.243-2.486
		c-0.247-0.924-0.322-1.902-0.277-2.912c0.045-0.984,0.21-1.998,0.471-2.975c0.522-1.959,1.419-3.83,2.593-5.404
		c0.583-0.791,1.243-1.497,1.942-2.103c0.353-0.3,0.72-0.567,1.091-0.812c0.094-0.057,0.186-0.122,0.282-0.174l0.239-0.134
		l0.164-0.079c0.005,0.006,0.006,0.006,0.01,0.002c0.013,0.001,0.026-0.006,0.036-0.006c0.008,0.004,0.015-0.004,0.022,0
		c0.023-0.003,0.1-0.001,0.328,0.068c0.216,0.064,0.529,0.163,0.867,0.218c0.167,0.028,0.344,0.048,0.516,0.053l0.13,0.003
		l0.032,0.001l0.072-0.001l0.046-0.002c0.04-0.001,0.155-0.012,0.214-0.021c0.052-0.01,0.111-0.018,0.157-0.028
		c0.385-0.085,0.639-0.192,0.887-0.287c0.219-0.091,0.438-0.179,0.654-0.267c0.192-0.076,0.376-0.138,0.481-0.16
		c0.023-0.008,0.041-0.011,0.051-0.014l0.025,0.01l0.166,0.055c0.055,0.018,0.113,0.036,0.149,0.052
		c0.083,0.035,0.167,0.067,0.251,0.099c0.721,0.297,1.416,0.711,2.043,1.189c0.629,0.479,1.215,1.004,1.727,1.571
		c1.039,1.119,1.84,2.326,2.428,3.463c0.004,0.004,0.006,0.01,0.008,0.016c-0.566,0.58-1.098,1.193-1.58,1.852
		C17.115,19.648,16.146,21.453,15.477,23.418z M34.971,26.93c-0.006,0.117-0.006,0.301-0.031,0.525
		c-0.037,0.451-0.133,1.129-0.439,1.918c-0.303,0.781-0.859,1.67-1.754,2.348c-0.883,0.689-2.055,1.156-3.377,1.41
		c-1.332,0.25-2.797,0.365-4.41,0.285c-1.545-0.084-3.201-0.33-4.658-0.967c-1.461-0.635-2.666-1.752-3.217-3.344
		c-0.145-0.393-0.256-0.807-0.334-1.238c-0.088-0.432-0.139-0.877-0.16-1.336c-0.063-0.91-0.004-1.857,0.146-2.795
		c0.297-1.881,1.02-3.738,2.127-5.283c0.553-0.77,1.193-1.473,1.924-2.027c0.363-0.281,0.74-0.533,1.139-0.732
		c0.197-0.1,0.395-0.199,0.596-0.279l0.15-0.061l0.037-0.018c-0.041,0.02,0,0.002-0.002,0.004l0.02-0.006
		c0.025-0.01,0.064-0.021,0.061-0.016c0.002,0.006,0.033,0.002,0.057,0.004c0.025,0.002,0.051,0.004,0.078,0.012
		c0.215,0.033,0.564,0.242,0.963,0.48c0.203,0.117,0.43,0.248,0.701,0.355c0.135,0.057,0.285,0.104,0.447,0.141
		c0.08,0.018,0.168,0.031,0.256,0.039l0.1,0.008c0.063,0,0.029,0.002,0.049,0.002l0.084,0.004c0.197-0.002,0.342-0.016,0.492-0.037
		c0.148-0.02,0.285-0.053,0.416-0.086c0.26-0.068,0.49-0.143,0.695-0.213c0.406-0.141,0.74-0.223,0.855-0.197
		c0.057,0.012,0.064,0.018,0.1,0.041l0.27,0.158c0.094,0.053,0.148,0.092,0.225,0.139c0.287,0.184,0.594,0.402,0.873,0.621
		c0.564,0.443,1.08,0.93,1.563,1.424c0.955,1,1.762,2.049,2.359,3.064c0.607,1.012,0.998,1.984,1.23,2.809
		c0.232,0.826,0.316,1.5,0.35,1.959c0.018,0.23,0.023,0.406,0.025,0.525c0.002,0.117,0.006,0.176,0.006,0.178
		S34.977,26.809,34.971,26.93z M14.064,19.75c-0.586-0.521-1.454-0.957-1.622-1.041c-0.196-0.1-0.406-0.199-0.602-0.311
		c-0.042-0.029-0.084-0.057-0.126-0.07l0.112-3.322h0.168c0.209-0.016,0.853,0.098,1.342,0.549c0.084,0.07,0.154,0.141,0.225,0.225
		l-0.434,0.762l0.616-0.143l1.104-1.238c-0.182-0.1-0.32-0.17-0.391-0.197c-0.295-0.127-0.699-0.24-0.756-0.254
		c-0.881-0.225-1.468-0.238-1.86-0.268l0.084-1.363l-0.643,0.941v0.438c-0.56,0.098-0.797,0.168-1.077,0.281
		c-0.854,0.336-1.329,0.871-1.539,1.168c-0.419,0.619-0.475,1.295-0.475,1.547c0,0.143,0.014,0.48,0.153,0.861
		c0.322,0.9,0.993,1.309,1.79,1.76l0.21,0.098c0.084,0.057,0.182,0.1,0.279,0.141c0.168,0.084,0.336,0.154,0.49,0.254v3.688
		c-0.014,0-0.182,0.016-0.308,0.016c-0.881,0-1.706-0.563-1.874-0.689c-0.112-0.07-0.167-0.127-0.266-0.213l0.476-0.801L8.5,22.693
		l-1.161,1.336c0.154,0.086,0.308,0.154,0.476,0.211c0.294,0.115,0.601,0.199,0.909,0.283c0.615,0.141,1.161,0.268,2.391,0.295
		v1.619l0.587-1.111v-0.535c1.272-0.086,2.587-0.662,3.105-1.943c0.195-0.479,0.223-0.887,0.223-1.084
		C15.029,20.65,14.359,20.004,14.064,19.75z M11.142,18.004c-0.335-0.211-0.643-0.449-0.825-0.83
		c-0.083-0.184-0.125-0.367-0.125-0.578c0-0.506,0.251-0.844,0.377-0.986c0.126-0.125,0.364-0.309,0.531-0.408
		c0.028-0.014,0.07-0.041,0.154-0.068L11.142,18.004z M11.981,23.959c-0.126,0.07-0.224,0.113-0.28,0.127v-3.211
		c0.601,0.354,0.853,0.762,0.965,1.043c0.069,0.184,0.098,0.354,0.098,0.564C12.764,23.086,12.484,23.635,11.981,23.959z
		 M27.969,24.883c-0.588-0.521-1.455-0.957-1.623-1.043c-0.195-0.098-0.404-0.197-0.6-0.309c-0.043-0.029-0.084-0.057-0.127-0.07
		l0.111-3.324h0.168c0.211-0.014,0.854,0.1,1.344,0.551c0.084,0.068,0.152,0.141,0.223,0.225l-0.434,0.76l0.615-0.141l1.105-1.238
		c-0.182-0.1-0.322-0.17-0.391-0.197c-0.295-0.127-0.701-0.24-0.756-0.254c-0.881-0.225-1.469-0.238-1.859-0.268l0.084-1.363
		l-0.645,0.941v0.436c-0.559,0.1-0.797,0.17-1.076,0.281c-0.854,0.34-1.328,0.873-1.539,1.17c-0.418,0.619-0.475,1.295-0.475,1.547
		c0,0.143,0.014,0.48,0.154,0.859c0.32,0.902,0.992,1.311,1.789,1.762l0.211,0.098c0.082,0.057,0.18,0.1,0.279,0.141
		c0.168,0.084,0.336,0.154,0.488,0.254v3.689c-0.014,0-0.182,0.012-0.307,0.012c-0.881,0-1.707-0.563-1.875-0.689
		c-0.111-0.068-0.168-0.125-0.266-0.211l0.477-0.803l-0.645,0.127l-1.16,1.338c0.154,0.086,0.309,0.154,0.477,0.211
		c0.293,0.113,0.6,0.199,0.908,0.283c0.615,0.141,1.16,0.268,2.391,0.295v1.619l0.588-1.113v-0.533
		c1.271-0.086,2.586-0.662,3.104-1.943c0.197-0.479,0.225-0.889,0.225-1.084C28.934,25.783,28.262,25.137,27.969,24.883z
		 M25.047,23.137c-0.336-0.211-0.645-0.451-0.826-0.83c-0.084-0.184-0.125-0.367-0.125-0.578c0-0.506,0.252-0.846,0.377-0.986
		c0.127-0.125,0.363-0.309,0.531-0.408c0.027-0.014,0.07-0.041,0.154-0.07L25.047,23.137z M25.885,29.092
		c-0.125,0.07-0.223,0.113-0.279,0.127v-3.211c0.602,0.354,0.854,0.762,0.965,1.043c0.07,0.184,0.098,0.352,0.098,0.563
		C26.668,28.219,26.389,28.768,25.885,29.092z"/>
</g>
</svg>
