<?xml version="1.0" encoding="utf-8"?>
<!-- Generator: Adobe Illustrator 16.2.0, SVG Export Plug-In . SVG Version: 6.00 Build 0)  -->
<!DOCTYPE svg PUBLIC "-//W3C//DTD SVG 1.1//EN" "http://www.w3.org/Graphics/SVG/1.1/DTD/svg11.dtd">
<svg version="1.1" id="OBJECTS" xmlns="http://www.w3.org/2000/svg" xmlns:xlink="http://www.w3.org/1999/xlink" x="0px" y="0px"
	 width="25.938px" height="24px" viewBox="0 0 25.938 24" enable-background="new 0 0 25.938 24" xml:space="preserve">
<g>
	<g>
		<path d="M20.829,16.539v-2.955l1.568-7.433c1.115-0.148,1.979-1.104,1.979-2.256c0-1.256-1.023-2.277-2.28-2.277
			c-1.258,0-2.281,1.021-2.281,2.277c0,0.271,0.048,0.529,0.136,0.771l-3.216,2.626L14.709,3.75c0.34-0.398,0.546-0.912,0.546-1.475
			C15.255,1.02,14.231,0,12.974,0c-1.257,0-2.28,1.02-2.28,2.276c0,0.563,0.206,1.076,0.546,1.475L9.212,7.292L5.997,4.666
			c0.088-0.241,0.136-0.501,0.136-0.771c0-1.255-1.023-2.276-2.281-2.276c-1.257,0-2.28,1.021-2.28,2.276
			c0,1.153,0.863,2.108,1.979,2.257l1.568,7.433v2.955c0,0.418,0.34,0.758,0.76,0.758h14.19
			C20.489,17.297,20.829,16.957,20.829,16.539z M22.097,3.135c0.419,0,0.76,0.341,0.76,0.76c0,0.418-0.341,0.758-0.76,0.758
			c-0.42,0-0.761-0.34-0.761-0.758C21.336,3.476,21.677,3.135,22.097,3.135z M12.974,1.518c0.42,0,0.761,0.34,0.761,0.758
			s-0.341,0.758-0.761,0.758c-0.419,0-0.76-0.34-0.76-0.758S12.555,1.518,12.974,1.518z M3.852,4.653c-0.419,0-0.76-0.34-0.76-0.758
			c0-0.419,0.341-0.76,0.76-0.76s0.761,0.341,0.761,0.76C4.612,4.313,4.271,4.653,3.852,4.653z M19.309,15.779H6.64v-1.516h12.669
			V15.779z M19.452,12.746H6.496L5.04,5.844l3.905,3.189c0.137,0.111,0.308,0.172,0.481,0.172c0.046,0,0.092-0.005,0.139-0.013
			c0.22-0.041,0.41-0.177,0.521-0.37l2.467-4.311c0.136,0.025,0.276,0.039,0.42,0.039c0.145,0,0.284-0.014,0.421-0.039l2.467,4.311
			c0.111,0.193,0.302,0.329,0.521,0.37c0.046,0.008,0.093,0.013,0.139,0.013c0.174,0,0.345-0.061,0.481-0.172l3.905-3.189
			L19.452,12.746z M10.979,19.193h-0.006c-0.317,0.004-0.571,0.262-0.568,0.578l0.019,1.859l-1.511-2.182
			C8.77,19.242,8.51,19.152,8.27,19.227c-0.239,0.074-0.402,0.297-0.402,0.547v3.656c0,0.316,0.257,0.572,0.573,0.572
			s0.573-0.256,0.573-0.572v-1.82l1.432,2.07c0.164,0.234,0.439,0.336,0.702,0.254c0.266-0.084,0.438-0.33,0.438-0.627v-0.006
			l-0.034-3.539C11.548,19.447,11.292,19.193,10.979,19.193z M6.469,19.193c-0.316,0-0.573,0.256-0.573,0.572v3.664
			c0,0.316,0.257,0.572,0.573,0.572c0.317,0,0.573-0.256,0.573-0.572v-3.664C7.042,19.449,6.786,19.193,6.469,19.193z
			 M13.474,21.229h-0.63c-0.316,0-0.573,0.256-0.573,0.572s0.257,0.572,0.573,0.572h0.63c0.316,0,0.573-0.256,0.573-0.572
			S13.79,21.229,13.474,21.229z M4.662,19.211c-0.311-0.061-0.612,0.141-0.675,0.451L3.65,21.35l-0.54-1.752
			c-0.094-0.303-0.414-0.471-0.717-0.379c-0.202,0.063-0.345,0.227-0.39,0.418l-0.531,1.715l-0.336-1.695
			c-0.062-0.311-0.363-0.512-0.674-0.451c-0.312,0.061-0.513,0.363-0.452,0.672l0.716,3.607c0.005,0.029,0.013,0.055,0.022,0.082
			c0.093,0.26,0.341,0.436,0.618,0.436h0.004C1.65,24,1.898,23.82,1.988,23.559c0.002-0.006,0.003-0.012,0.005-0.016l0.568-1.832
			l0.566,1.832c0.002,0.008,0.005,0.016,0.007,0.023c0.094,0.26,0.342,0.436,0.619,0.436h0.005C4.037,24,4.285,23.82,4.375,23.557
			c0.008-0.023,0.015-0.047,0.02-0.072l0.718-3.6C5.175,19.574,4.973,19.273,4.662,19.211z M25.964,19.762
			c-0.003-0.314-0.259-0.568-0.573-0.568h-0.006c-0.316,0.004-0.57,0.262-0.567,0.578l0.018,1.859l-1.51-2.182
			c-0.143-0.207-0.403-0.297-0.643-0.223c-0.24,0.074-0.403,0.297-0.403,0.547v3.656c0,0.316,0.257,0.572,0.573,0.572
			c0.317,0,0.574-0.256,0.574-0.572v-1.82l1.432,2.07c0.164,0.234,0.439,0.336,0.701,0.254c0.267-0.084,0.438-0.33,0.438-0.627
			v-0.006L25.964,19.762z M20.882,19.193c-0.316,0-0.574,0.256-0.574,0.572v3.664c0,0.316,0.258,0.572,0.574,0.572
			s0.573-0.256,0.573-0.572v-3.664C21.455,19.449,21.198,19.193,20.882,19.193z M19.075,19.211
			c-0.312-0.061-0.613,0.141-0.675,0.451l-0.337,1.688l-0.541-1.752c-0.093-0.303-0.414-0.471-0.717-0.379
			c-0.202,0.063-0.345,0.227-0.39,0.418l-0.531,1.715l-0.336-1.695c-0.062-0.311-0.363-0.512-0.674-0.451s-0.513,0.363-0.451,0.672
			l0.715,3.607c0.006,0.029,0.013,0.055,0.022,0.082c0.093,0.26,0.341,0.436,0.618,0.436h0.005c0.279-0.002,0.527-0.182,0.617-0.443
			c0.001-0.006,0.003-0.012,0.005-0.016l0.568-1.832l0.565,1.832c0.002,0.008,0.005,0.016,0.008,0.023
			c0.093,0.26,0.341,0.436,0.618,0.436h0.005c0.279-0.002,0.527-0.182,0.617-0.445c0.008-0.023,0.014-0.047,0.02-0.072l0.718-3.6
			C19.587,19.574,19.386,19.273,19.075,19.211z"/>
	</g>
</g>
</svg>
