<?xml version="1.0" encoding="utf-8"?>
<!-- Generator: Adobe Illustrator 16.2.0, SVG Export Plug-In . SVG Version: 6.00 Build 0)  -->
<!DOCTYPE svg PUBLIC "-//W3C//DTD SVG 1.1//EN" "http://www.w3.org/Graphics/SVG/1.1/DTD/svg11.dtd">
<svg version="1.1" id="OBJECTS" xmlns="http://www.w3.org/2000/svg" xmlns:xlink="http://www.w3.org/1999/xlink" x="0px" y="0px"
	 width="28.25px" height="25.75px" viewBox="0 0 28.25 25.75" enable-background="new 0 0 28.25 25.75" xml:space="preserve">
<path fill-rule="evenodd" clip-rule="evenodd" d="M7.089,17.344c0.241,0.467,0.485,0.934,0.723,1.402
	c0.165,0.324,0.336,0.574,0.617,0.086c0.062-0.106,0.98-2.199,1.088-2.418c2.134-4.354,4.526-8.557,7.758-12.264
	c1.294-1.484,2.733-2.82,4.4-3.922c0.401-0.266,0.759-0.307,1.172-0.086c1.811,0.966,3.401,2.229,5.022,3.451
	c0.259,0.195,0.075,0.285-0.07,0.39c-0.572,0.418-1.149,0.826-1.719,1.246c-3.536,2.613-6.34,5.9-9.089,9.232
	c-1.007,1.221-1.951,2.487-2.926,3.733c-0.306,0.392-1.304,1.732-1.711,2.317c-1.169,1.677-2.329,3.359-3.488,5.042
	c-0.396,0.573-0.557,0.591-1.015,0.063c-2.514-2.895-5.025-5.791-7.536-8.688c-0.368-0.424-0.43-1.139-0.102-1.637
	c0.943-1.438,1.9-2.868,2.864-4.293c0.264-0.392,0.57-0.379,0.785,0.036c0.848,1.632,1.67,3.274,2.523,4.904
	C6.561,16.271,7.044,17.352,7.089,17.344z"/>
</svg>
