<?xml version="1.0" encoding="utf-8"?>
<!-- Generator: Adobe Illustrator 16.2.0, SVG Export Plug-In . SVG Version: 6.00 Build 0)  -->
<!DOCTYPE svg PUBLIC "-//W3C//DTD SVG 1.1//EN" "http://www.w3.org/Graphics/SVG/1.1/DTD/svg11.dtd">
<svg version="1.1" id="OBJECTS" xmlns="http://www.w3.org/2000/svg" xmlns:xlink="http://www.w3.org/1999/xlink" x="0px" y="0px"
	 width="36px" height="36px" viewBox="0 0 36 36" enable-background="new 0 0 36 36" xml:space="preserve">
<g>
	<g>
		<path d="M27.957,19.055h1.871c0.437,1.234,1.613,2.121,2.996,2.121C34.574,21.176,36,19.751,36,18
			c0-1.752-1.426-3.176-3.176-3.176c-1.383,0-2.56,0.887-2.996,2.121h-1.871c-0.265-2.515-1.464-4.754-3.243-6.363h5.987
			c0.584,0,1.056-0.473,1.056-1.055v-3.35c1.234-0.438,2.122-1.615,2.122-2.997c0-1.75-1.426-3.177-3.178-3.177
			c-1.751,0-3.176,1.427-3.176,3.177c0,1.382,0.888,2.56,2.121,2.997v2.295h-8.583c-0.642-0.207-1.313-0.352-2.003-0.424V6.171
			c1.234-0.437,2.121-1.613,2.121-2.995C21.182,1.424,19.756,0,18.005,0s-3.177,1.424-3.177,3.176c0,1.382,0.889,2.559,2.122,2.995
			v1.878c-3.134,0.329-5.841,2.113-7.435,4.661H4.234v-2.298c1.234-0.434,2.122-1.613,2.122-2.994c0-1.75-1.426-3.176-3.177-3.176
			S0.003,5.668,0.003,7.418c0,1.381,0.888,2.561,2.121,2.994v3.353c0,0.582,0.474,1.056,1.056,1.056h5.337
			C8.182,15.818,7.998,16.888,7.998,18c0,0.357,0.02,0.711,0.057,1.059H3.18c-0.582,0-1.056,0.473-1.056,1.056v3.356
			C0.889,23.906,0,25.086,0,26.468c0,1.751,1.425,3.175,3.176,3.175c1.752,0,3.177-1.424,3.177-3.175
			c0-1.381-0.886-2.558-2.118-2.995v-2.305h4.278c0.744,2.224,2.249,4.102,4.206,5.323v3.336c-1.236,0.436-2.126,1.613-2.126,2.997
			c0,1.752,1.425,3.176,3.177,3.176c1.751,0,3.176-1.424,3.176-3.176c0-1.381-0.885-2.557-2.118-2.994v-2.342
			c0.999,0.334,2.068,0.518,3.178,0.518c1.066,0,2.095-0.168,3.059-0.479h9.178v2.297c-1.234,0.436-2.121,1.612-2.121,2.994
			c0,1.751,1.425,3.177,3.176,3.177c1.752,0,3.177-1.426,3.177-3.177c0-1.382-0.889-2.559-2.122-2.994v-3.352
			c0-0.584-0.472-1.055-1.055-1.055h-6.582C26.493,23.808,27.692,21.568,27.957,19.055z M32.824,16.934
			c0.587,0,1.066,0.477,1.066,1.066c0,0.588-0.479,1.066-1.066,1.066c-0.588,0-1.067-0.479-1.067-1.066
			C31.757,17.41,32.236,16.934,32.824,16.934z M29.636,3.181c0-0.587,0.479-1.066,1.065-1.066c0.59,0,1.067,0.479,1.067,1.066
			c0,0.589-0.478,1.067-1.067,1.067C30.115,4.248,29.636,3.77,29.636,3.181z M3.18,8.484c-0.588,0-1.066-0.479-1.066-1.066
			c0-0.589,0.479-1.065,1.066-1.065s1.066,0.477,1.066,1.065C4.246,8.006,3.768,8.484,3.18,8.484z M4.243,26.468
			c0,0.588-0.479,1.065-1.067,1.065s-1.066-0.478-1.066-1.065c0-0.589,0.479-1.067,1.066-1.067S4.243,25.879,4.243,26.468z
			 M31.296,31.752c0.589,0,1.067,0.479,1.067,1.066s-0.479,1.068-1.067,1.068c-0.588,0-1.066-0.48-1.066-1.068
			S30.708,31.752,31.296,31.752z M16.938,3.176c0-0.588,0.478-1.066,1.066-1.066s1.066,0.479,1.066,1.066s-0.478,1.066-1.066,1.066
			S16.938,3.764,16.938,3.176z M14.836,32.824c0,0.588-0.479,1.066-1.066,1.066s-1.067-0.479-1.067-1.066s0.479-1.068,1.067-1.068
			S14.836,32.236,14.836,32.824z M18.005,25.897c-4.354,0-7.896-3.544-7.896-7.897s3.542-7.896,7.896-7.896s7.897,3.543,7.897,7.896
			S22.359,25.897,18.005,25.897z M20.932,13.438v-0.302c0-0.584-0.472-1.055-1.055-1.055c-0.554,0-1.008,0.428-1.05,0.971h-1.694
			c-0.041-0.543-0.494-0.971-1.05-0.971c-0.554,0-1.009,0.428-1.05,0.971H14.6c-0.582,0-1.055,0.474-1.055,1.055
			c0,0.556,0.43,1.01,0.973,1.051v5.683c-0.543,0.041-0.973,0.495-0.973,1.05c0,0.582,0.473,1.056,1.055,1.056h0.434
			c0.041,0.543,0.496,0.972,1.05,0.972c0.556,0,1.009-0.429,1.05-0.972h1.694c0.042,0.543,0.496,0.972,1.05,0.972
			c0.583,0,1.055-0.472,1.055-1.055v-0.303c0.914-0.515,1.533-1.494,1.533-2.615c0-0.742-0.271-1.421-0.719-1.945
			c0.447-0.525,0.719-1.204,0.719-1.945C22.465,14.934,21.846,13.953,20.932,13.438z M19.465,20.836h-2.837v-1.781h2.837
			c0.491,0,0.891,0.399,0.891,0.891S19.956,20.836,19.465,20.836z M19.465,16.945h-2.837v-1.782h2.837
			c0.491,0,0.891,0.399,0.891,0.892C20.355,16.546,19.956,16.945,19.465,16.945z"/>
	</g>
</g>
</svg>
