<?xml version="1.0" encoding="utf-8"?>
<!-- Generator: Adobe Illustrator 16.2.0, SVG Export Plug-In . SVG Version: 6.00 Build 0)  -->
<!DOCTYPE svg PUBLIC "-//W3C//DTD SVG 1.1//EN" "http://www.w3.org/Graphics/SVG/1.1/DTD/svg11.dtd">
<svg version="1.1" id="OBJECTS" xmlns="http://www.w3.org/2000/svg" xmlns:xlink="http://www.w3.org/1999/xlink" x="0px" y="0px"
	 width="36px" height="36px" viewBox="0 0 36 36" enable-background="new 0 0 36 36" xml:space="preserve">
<g>
	<g>
		<path d="M30.727,14.964h-5.232c-0.582,0-1.055,0.472-1.055,1.054c0,0.139,0.027,0.27,0.075,0.391
			c0.155,0.39,0.536,0.665,0.979,0.665h5.232c1.744,0,3.164,1.42,3.164,3.165v10.488c0,1.744-1.42,3.164-3.164,3.164H18.803
			c-1.744,0-3.164-1.42-3.164-3.164V19.158c0-0.646,0.527-1.172,1.173-1.172h2.377c1.809,0,3.281-1.473,3.281-3.282V5.273
			C22.47,2.365,20.104,0,17.196,0H5.273C2.365,0,0,2.365,0,5.273v11.219c0,2.91,2.365,5.274,5.273,5.274h8.256v8.96
			c0,2.908,2.365,5.273,5.273,5.273h11.924C33.635,36,36,33.635,36,30.727V20.238C36,17.331,33.635,14.964,30.727,14.964z
			 M13.529,19.158v0.498H5.273c-1.745,0-3.164-1.418-3.164-3.164V5.273c0-1.745,1.419-3.164,3.164-3.164h11.923
			c1.745,0,3.164,1.419,3.164,3.164v9.431c0,0.647-0.526,1.173-1.172,1.173h-2.377C15.002,15.877,13.529,17.349,13.529,19.158z
			 M28.111,18.607c-0.583,0-1.055,0.473-1.055,1.055v2.684h-5.051c-0.583,0-1.055,0.474-1.055,1.056
			c0,0.583,0.472,1.055,1.055,1.055h1.979v0.319c0,2.226-1.812,4.038-4.039,4.038c-0.582,0-1.055,0.472-1.055,1.054
			s0.473,1.056,1.055,1.056c3.392,0,6.148-2.759,6.148-6.147v-0.319h0.962v5.411c0,0.582,0.472,1.056,1.055,1.056
			c0.582,0,1.055-0.474,1.055-1.056v-5.411h0.417c0.583,0,1.055-0.472,1.055-1.055c0-0.582-0.472-1.056-1.055-1.056h-0.417v-2.684
			C29.166,19.08,28.693,18.607,28.111,18.607z M12.205,5.705c-0.165-0.389-0.547-0.641-0.97-0.641s-0.806,0.252-0.972,0.641
			l-3.208,7.559c-0.228,0.537,0.022,1.156,0.56,1.383c0.133,0.058,0.273,0.085,0.41,0.085c0.411,0,0.801-0.242,0.973-0.644
			l0.622-1.467h3.229l0.623,1.467c0.228,0.536,0.846,0.785,1.383,0.559c0.536-0.227,0.786-0.846,0.558-1.383L12.205,5.705z
			 M10.516,10.512l0.72-1.693l0.719,1.693H10.516z"/>
	</g>
</g>
</svg>
